{
.appVersion = "3337";
.formatVersion = 3;
DisplayStrings = (
"കാറ്റ് മൃദുവായി വീശുന്നു",
"അ ആ ഇ ഈ ഉ ഊ ഋ
എ ഏ ഐ ഒ ഓ ഔ അം 

ക ഖ ഗ ഘ ങ
ച ഛ ജ ഝ ഞ
ട ഠ ഡ ഢ ണ
ത ഥ ദ ധ ന
പ ഫ ബ ഭ മ
യ ര ല വ ശ ഷ
സ ഹ ള ഴ റ"
);
axes = (
{
name = Weight;
tag = wght;
},
{
name = Width;
tag = wdth;
}
);
classes = (
{
code = "exclam.mlym quotedbl.mlym quotesingle.mlym parenright.mlym asterisk.mlym question.mlym bracketright.mlym braceright.mlym quoteright.mlym quotedblright.mlym";
name = dist;
},
{

glyphs = (
{
glyphname = .notdef;
layers = (
{
background = {
shapes = (
{
closed = 1;
nodes = (
(505,0,l),
(505,714,l),
(94,714,l),
(94,0,l)
);
},
{
closed = 1;
nodes = (
(145,663,l),
(454,663,l),
(454,51,l),
(145,51,l)
);
}
);
};
layerId = "2AD682F6-F6C7-4738-913E-50B961B61BC3";
shapes = (
{
closed = 1;
nodes = (
(505,0,l),
(505,714,l),
(94,714,l),
(94,0,l)
);
},
{
closed = 1;
nodes = (
(145,663,l),
(454,663,l),
(454,51,l),
(145,51,l)
);
}
);
width = 600;
}
);
},
{
glyphname = uni0D00;
layers = (
{
anchors = (
{
name = _b.uni0D00;
pos = (-278,-311);
}
);
background = {
shapes = (
{
closed = 1;
nodes = (
(-462,620,o),
(-396,552,o),
(-278,552,cs),
(-160,552,o),
(-93,620,o),
(-93,708,cs),
(-93,798,o),
(-163,864,o),
(-278,864,cs),
(-393,864,o),
(-462,797,o),
(-462,708,cs)
);
},
{
closed = 1;
nodes = (
(-336,738,o),
(-318,763,o),
(-278,763,cs),
(-241,763,o),
(-219,739,o),
(-219,709,cs),
(-219,681,o),
(-237,653,o),
(-278,653,cs),
(-319,653,o),
(-336,679,o),
(-336,708,cs)
);
}
);
};
layerId = "2AD682F6-F6C7-4738-913E-50B961B61BC3";
shapes = (
{
closed = 1;
nodes = (
(-462,620,o),
(-396,552,o),
(-278,552,cs),
(-160,552,o),
(-93,620,o),
(-93,708,cs),
(-93,798,o),
(-163,864,o),
(-278,864,cs),
(-393,864,o),
(-462,797,o),
(-462,708,cs)
);
},
{
closed = 1;
nodes = (
(-336,738,o),
(-318,763,o),
(-278,763,cs),
(-241,763,o),
(-219,739,o),
(-219,709,cs),
(-219,681,o),
(-237,653,o),
(-278,653,cs),
(-319,653,o),
(-336,679,o),
(-336,708,cs)
);
}
);
width = 0;
}
);
unicode = 3328;
},
{
glyphname = candrabindumlym;
layers = (
{
anchors = (
{
name = _b.uni0D00;
pos = (-278,-234);
}
);
background = {
shapes = (
{
closed = 1;
nodes = (
(-126,631,o),
(-67,699,o),
(-67,800,cs),
(-67,825,o),
(-71,847,o),
(-76,863,c),
(-180,843,l),
(-176,829,o),
(-175,819,o),
(-175,809,cs),
(-175,744,o),
(-224,727,o),
(-278,727,cs),
(-341,727,o),
(-382,746,o),
(-382,807,cs),
(-382,818,o),
(-381,829,o),
(-377,843,c),
(-481,864,l),
(-486,848,o),
(-490,827,o),
(-490,799,cs),
(-490,701,o),
(-430,631,o),
(-278,631,cs)
);
},
{
closed = 1;
nodes = (
(-227,748,o),
(-210,771,o),
(-210,804,cs),
(-210,838,o),
(-226,863,o),
(-279,863,cs),
(-331,863,o),
(-347,838,o),
(-347,807,cs),
(-347,771,o),
(-329,748,o),
(-279,748,cs)
);
}
);
};
layerId = "2AD682F6-F6C7-4738-913E-50B961B61BC3";
shapes = (
{
closed = 1;
nodes = (
(-126,631,o),
(-67,699,o),
(-67,800,cs),
(-67,825,o),
(-71,847,o),
(-76,863,c),
(-180,843,l),
(-176,829,o),
(-175,819,o),
(-175,809,cs),
(-175,744,o),
(-224,727,o),
(-278,727,cs),
(-341,727,o),
(-382,746,o),
(-382,807,cs),
(-382,818,o),
(-381,829,o),
(-377,843,c),
(-481,864,l),
(-486,848,o),
(-490,827,o),
(-490,799,cs),
(-490,701,o),
(-430,631,o),
(-278,631,cs)
);
},
{
closed = 1;
nodes = (
(-227,748,o),
(-210,771,o),
(-210,804,cs),
(-210,838,o),
(-226,863,o),
(-279,863,cs),
(-331,863,o),
(-347,838,o),
(-347,807,cs),
(-347,771,o),
(-329,748,o),
(-279,748,cs)
);
}
);
width = 0;
}
);
unicode = 3329;
},
{
glyphname = anusvaramlym;
lastChange = "2025-02-14 03:42:29 +0000";
layers = (
{
background = {
shapes = (
{
closed = 1;
nodes = (
(387,-12,o),
(472,65,o),
(472,185,cs),
(472,305,o),
(384,382,o),
(231,382,cs),
(83,382,o),
(-7,301,o),
(-7,185,cs),
(-7,69,o),
(76,-12,o),
(233,-12,cs)
);
},
{
closed = 1;
nodes = (
(272,258,o),
(302,233,o),
(302,185,cs),
(302,135,o),
(271,112,o),
(233,112,cs),
(192,112,o),
(163,139,o),
(163,184,cs),
(163,233,o),
(193,258,o),
(231,258,cs)
);
}
);
};
layerId = "2AD682F6-F6C7-4738-913E-50B961B61BC3";
shapes = (
{
closed = 1;
nodes = (
(10,216,o),
(-19,156,o),
(2,95,cs),
(25,27,o),
(106,-19,o),
(187,3,cs),
(234,16,o),
(258,77,o),
(228,143,cs),
(197,214,o),
(113,243,o),
(64,230,cs)
);
},
{
closed = 1;
nodes = (
(111,200,o),
(145,175,o),
(163,139,cs),
(175,113,o),
(185,68,o),
(156,56,cs),
(124,39,o),
(90,73,o),
(72,106,cs),
(56,134,o),
(53,175,o),
(81,187,cs)
);
}
);
width = 290;
}
);
unicode = 3330;
},
{
glyphname = visargamlym;
layers = (
{
background = {
shapes = (
{
closed = 1;
nodes = (
(28,359,o),
(87,297,o),
(192,297,cs),
(297,297,o),
(357,359,o),
(357,439,cs),
(357,521,o),
(295,581,o),
(192,581,cs),
(89,581,o),
(28,520,o),
(28,439,cs)
);
},
{
closed = 1;
nodes = (
(146,466,o),
(162,484,o),
(192,484,cs),
(220,484,o),
(239,467,o),
(239,440,cs),
(239,414,o),
(223,394,o),
(192,394,cs),
(161,394,o),
(146,413,o),
(146,439,cs)
);
},
{
closed = 1;
nodes = (
(28,49,o),
(87,-12,o),
(192,-12,cs),
(297,-12,o),
(357,50,o),
(357,130,cs),
(357,210,o),
(295,272,o),
(192,272,cs),
(89,272,o),
(28,210,o),
(28,130,cs)
);
},
{
closed = 1;
nodes = (
(146,156,o),
(162,175,o),
(192,175,cs),
(220,175,o),
(239,156,o),
(239,131,cs),
(239,103,o),
(223,85,o),
(192,85,cs),
(161,85,o),
(146,103,o),
(146,131,cs)
);
}
);
};
layerId = "2AD682F6-F6C7-4738-913E-50B961B61BC3";
shapes = (
{
closed = 1;
nodes = (
(28,359,o),
(87,297,o),
(192,297,cs),
(297,297,o),
(357,359,o),
(357,439,cs),
(357,521,o),
(295,581,o),
(192,581,cs),
(89,581,o),
(28,520,o),
(28,439,cs)
);
},
{
closed = 1;
nodes = (
(146,466,o),
(162,484,o),
(192,484,cs),
(220,484,o),
(239,467,o),
(239,440,cs),
(239,414,o),
(223,394,o),
(192,394,cs),
(161,394,o),
(146,413,o),
(146,439,cs)
);
},
{
closed = 1;
nodes = (
(28,49,o),
(87,-12,o),
(192,-12,cs),
(297,-12,o),
(357,50,o),
(357,130,cs),
(357,210,o),
(295,272,o),
(192,272,cs),
(89,272,o),
(28,210,o),
(28,130,cs)
);
},
{
closed = 1;
nodes = (
(146,156,o),
(162,175,o),
(192,175,cs),
(220,175,o),
(239,156,o),
(239,131,cs),
(239,103,o),
(223,85,o),
(192,85,cs),
(161,85,o),
(146,103,o),
(146,131,cs)
);
}
);
width = 385;
}
);
unicode = 3331;
},
{
glyphname = uni0D04;
layers = (
{
background = {
shapes = (
{
closed = 1;
nodes = (
(50,355,l),
(39,321,o),
(30,275,o),
(30,230,cs),
(30,85,o),
(103,-9,o),
(337,-9,cs),
(572,-9,o),
(645,85,o),
(645,230,cs),
(645,273,o),
(636,321,o),
(625,355,c),
(458,327,l),
(467,296,o),
(471,259,o),
(471,234,cs),
(471,154,o),
(422,118,o),
(337,118,cs),
(253,118,o),
(204,154,o),
(204,235,cs),
(204,261,o),
(208,296,o),
(217,327,c)
);
},
{
closed = 1;
nodes = (
(272,195,l),
(403,195,l),
(403,427,l),
(272,427,l)
);
}
);
};
layerId = "2AD682F6-F6C7-4738-913E-50B961B61BC3";
shapes = (
{
closed = 1;
nodes = (
(50,355,l),
(39,321,o),
(30,275,o),
(30,230,cs),
(30,85,o),
(103,-9,o),
(337,-9,cs),
(572,-9,o),
(645,85,o),
(645,230,cs),
(645,273,o),
(636,321,o),
(625,355,c),
(458,327,l),
(467,296,o),
(471,259,o),
(471,234,cs),
(471,154,o),
(422,118,o),
(337,118,cs),
(253,118,o),
(204,154,o),
(204,235,cs),
(204,261,o),
(208,296,o),
(217,327,c)
);
},
{
closed = 1;
nodes = (
(272,195,l),
(403,195,l),
(403,427,l),
(272,427,l)
);
}
);
width = 675;
}
);
unicode = 3332;
},
{
glyphname = amlym;
lastChange = "2025-02-12 17:03:46 +0000";
layers = (
{
anchors = (
{
name = b.uni0D00;
pos = (865,0);
}
);
background = {
shapes = (
{
closed = 1;
nodes = (
(121,581,o),
(34,417,o),
(34,284,cs),
(34,154,o),
(93,65,o),
(180,-12,c),
(316,68,l),
(255,141,o),
(223,201,o),
(223,281,cs),
(223,384,o),
(278,458,o),
(432,458,cs),
(480,458,o),
(515,452,o),
(559,441,c),
(636,434,o),
(670,412,o),
(670,372,cs),
(670,341,o),
(650,322,o),
(599,322,cs),
(577,322,l),
(577,196,l),
(614,196,ls),
(661,196,o),
(681,179,o),
(681,154,cs),
(681,124,o),
(657,113,o),
(614,113,cs),
(551,113,o),
(506,151,o),
(506,244,cs),
(506,359,o),
(584,431,o),
(678,449,c),
(706,456,o),
(735,461,o),
(765,461,cs),
(816,461,o),
(853,449,o),
(879,428,cs),
(927,389,o),
(937,322,o),
(937,234,cs),
(937,0,l),
(1124,0,l),
(1124,192,l),
(1039,480,l),
(970,543,o),
(901,581,o),
(762,581,cs),
(689,581,o),
(616,570,o),
(552,544,cs),
(534,537,o),
(518,518,o),
(502,509,cs),
(402,453,o),
(333,368,o),
(333,241,cs),
(333,99,o),
(414,-12,o),
(619,-12,cs),
(805,-12,o),
(860,63,o),
(860,139,cs),
(860,205,o),
(823,247,o),
(755,271,c),
(756,256,l),
(824,284,o),
(849,322,o),
(849,374,cs),
(849,448,o),
(769,495,o),
(683,519,cs),
(663,525,o),
(657,548,o),
(635,553,c),
(560,576,o),
(507,581,o),
(427,581,cs)
);
},
{
closed = 1;
nodes = (
(1609,-12,o),
(1701,77,o),
(1701,237,cs),
(1701,418,o),
(1567,581,o),
(1305,581,cs),
(1142,581,o),
(1054,517,o),
(991,450,c),
(1124,154,l),
(1124,238,ls),
(1124,307,o),
(1132,378,o),
(1182,416,cs),
(1208,436,o),
(1243,451,o),
(1307,451,cs),
(1425,451,o),
(1503,396,o),
(1514,329,c),
(1517,324,o),
(1511,310,o),
(1513,305,c),
(1516,285,o),
(1518,262,o),
(1518,242,cs),
(1518,153,o),
(1492,116,o),
(1442,116,cs),
(1405,116,o),
(1379,143,o),
(1379,205,cs),
(1379,265,o),
(1405,295,o),
(1453,295,cs),
(1506,295,o),
(1539,251,o),
(1549,203,c),
(1622,205,l),
(1614,305,o),
(1532,410,o),
(1407,410,cs),
(1275,410,o),
(1199,331,o),
(1199,205,cs),
(1199,89,o),
(1268,-12,o),
(1439,-12,cs)
);
}
);
};
layerId = "2AD682F6-F6C7-4738-913E-50B961B61BC3";
shapes = (
{
closed = 1;
nodes = (
(301,562,l),
(221,589,o),
(128,553,o),
(85,506,cs),
(-44,365,o),
(6,143,o),
(217,1,c),
(295,79,l),
(102,216,o),
(50,387,o),
(128,465,cs),
(180,517,o),
(232,531,o),
(295,506,c)
);
},
{
closed = 1;
nodes = (
(241,521,l),
(348,506,o),
(469,393,o),
(362,265,c),
(494,357,o),
(555,236,o),
(405,156,c),
(473,87,l),
(617,143,o),
(593,385,o),
(455,349,c),
(511,499,o),
(369,561,o),
(249,570,c)
);
},
{
closed = 1;
nodes = (
(718,149,o),
(817,350,o),
(907,336,cs),
(991,323,o),
(998,123,o),
(929,84,c),
(994,53,l),
(1089,153,o),
(1124,365,o),
(912,394,cs),
(772,413,o),
(689,247,o),
(624,111,c),
(694,40,l)
);
},
{
closed = 1;
nodes = (
(822,23,o),
(800,129,o),
(808,140,cs),
(820,157,o),
(839,150,o),
(925,81,c),
(965,122,l),
(937,140,o),
(846,237,o),
(759,167,cs),
(678,99,o),
(847,-88,o),
(1001,62,c),
(939,89,l)
);
},
{
closed = 1;
nodes = (
(529,617,o),
(718,356,o),
(624,111,c),
(694,38,l),
(800,485,o),
(509,649,o),
(290,522,cs),
(102,414,o),
(188,-5,o),
(485,92,c),
(418,161,l),
(271,94,o),
(225,407,o),
(327,477,cs)
);
}
);
width = 1078;
}
);
unicode = 3333;
},
{
glyphname = aamlym;
lastChange = "2025-02-11 16:33:59 +0000";
layers = (
{
anchors = (
{
name = b.uni0D00;
pos = (971,0);
}
);
background = {
shapes = (
{
closed = 1;
nodes = (
(134,581,o),
(47,417,o),
(47,284,cs),
(47,154,o),
(106,65,o),
(193,-12,c),
(329,68,l),
(268,141,o),
(236,201,o),
(236,281,cs),
(236,384,o),
(291,458,o),
(445,458,cs),
(493,458,o),
(528,452,o),
(572,441,c),
(649,434,o),
(683,412,o),
(683,372,cs),
(683,341,o),
(663,322,o),
(612,322,cs),
(590,322,l),
(590,196,l),
(627,196,ls),
(674,196,o),
(694,179,o),
(694,154,cs),
(694,124,o),
(670,113,o),
(627,113,cs),
(564,113,o),
(519,151,o),
(519,244,cs),
(519,359,o),
(597,431,o),
(691,449,c),
(719,456,o),
(748,461,o),
(778,461,cs),
(829,461,o),
(866,449,o),
(892,428,cs),
(940,389,o),
(950,322,o),
(950,234,cs),
(950,0,l),
(1137,0,l),
(1137,225,l),
(1052,480,l),
(983,543,o),
(914,581,o),
(775,581,cs),
(702,581,o),
(629,570,o),
(565,544,cs),
(547,537,o),
(531,518,o),
(515,509,cs),
(415,453,o),
(346,368,o),
(346,241,cs),
(346,99,o),
(427,-12,o),
(632,-12,cs),
(818,-12,o),
(873,63,o),
(873,139,cs),
(873,205,o),
(836,247,o),
(768,271,c),
(769,256,l),
(837,284,o),
(862,322,o),
(862,374,cs),
(862,448,o),
(782,495,o),
(696,519,cs),
(676,525,o),
(670,548,o),
(648,553,c),
(573,576,o),
(520,581,o),
(440,581,cs)
);
},
{
closed = 1;
nodes = (
(1153,581,o),
(1067,517,o),
(1004,450,c),
(1137,212,l),
(1137,238,ls),
(1137,312,o),
(1145,377,o),
(1194,416,cs),
(1220,436,o),
(1254,451,o),
(1310,451,cs),
(1401,451,o),
(1452,420,o),
(1488,372,c),
(1505,321,l),
(1513,294,o),
(1517,265,o),
(1517,233,cs),
(1517,141,o),
(1489,112,o),
(1442,112,cs),
(1403,112,o),
(1381,137,o),
(1381,184,cs),
(1381,243,o),
(1418,292,o),
(1519,292,cs),
(1545,292,o),
(1568,290,o),
(1590,286,cs),
(1626,280,l),
(1692,255,o),
(1728,200,o),
(1728,106,cs),
(1728,34,o),
(1698,-70,o),
(1537,-70,cs),
(1491,-70,o),
(1454,-66,o),
(1407,-52,c),
(1358,-173,l),
(1414,-192,o),
(1480,-201,o),
(1543,-201,cs),
(1823,-201,o),
(1906,-52,o),
(1906,104,cs),
(1906,263,o),
(1802,374,o),
(1626,404,c),
(1581,407,l),
(1557,410,o),
(1533,411,o),
(1508,411,cs),
(1315,411,o),
(1201,332,o),
(1201,189,cs),
(1201,67,o),
(1292,-12,o),
(1438,-12,cs),
(1608,-12,o),
(1689,63,o),
(1689,232,cs),
(1689,266,o),
(1685,297,o),
(1678,326,cs),
(1636,501,o),
(1494,581,o),
(1314,581,cs)
);
}
);
};
guides = (
{
angle = 45;
pos = (588,-255);
}
);
layerId = "2AD682F6-F6C7-4738-913E-50B961B61BC3";
shapes = (
{
closed = 1;
nodes = (
(301,562,l),
(221,589,o),
(117,556,o),
(74,509,cs),
(-55,368,o),
(22,130,o),
(184,-2,c),
(250,74,l),
(121,200,o),
(58,382,o),
(125,465,cs),
(171,522,o),
(232,531,o),
(295,506,c)
);
},
{
closed = 1;
nodes = (
(241,521,l),
(348,506,o),
(469,393,o),
(362,265,c),
(494,357,o),
(555,236,o),
(405,156,c),
(473,87,l),
(617,143,o),
(593,385,o),
(455,349,c),
(511,499,o),
(369,561,o),
(249,570,c)
);
},
{
closed = 1;
nodes = (
(718,149,o),
(817,350,o),
(907,336,cs),
(991,323,o),
(998,123,o),
(929,84,c),
(994,53,l),
(1089,153,o),
(1124,365,o),
(912,394,cs),
(772,413,o),
(689,247,o),
(624,111,c),
(694,40,l)
);
},
{
closed = 1;
nodes = (
(822,23,o),
(812,131,o),
(819,140,cs),
(832,158,o),
(865,165,o),
(923,80,c),
(976,133,l),
(975,133,o),
(965,142,o),
(956,150,cs),
(916,184,o),
(845,242,o),
(774,185,cs),
(693,117,o),
(847,-88,o),
(1001,62,c),
(939,89,l)
);
},
{
closed = 1;
nodes = (
(529,617,o),
(718,356,o),
(624,111,c),
(694,38,l),
(800,485,o),
(509,649,o),
(290,522,cs),
(102,414,o),
(188,-5,o),
(485,92,c),
(418,161,l),
(271,94,o),
(225,407,o),
(327,477,cs)
);
},
{
closed = 1;
nodes = (
(1016,-48,o),
(1028,-177,o),
(951,-254,cs),
(867,-338,o),
(714,-270,o),
(654,-185,c),
(544,-295,l),
(688,-366,o),
(942,-412,o),
(1034,-306,cs),
(1172,-147,o),
(1080,51,o),
(971,137,c),
(920,85,l)
);
}
);
width = 1113;
}
);
unicode = 3334;
},
{
glyphname = imlym;
lastChange = "2025-02-11 16:34:12 +0000";
layers = (
{
anchors = (
{
name = b.uni0D00;
pos = (590,0);
}
);
background = {
shapes = (
{
closed = 1;
nodes = (
(175,581,o),
(67,460,o),
(67,334,cs),
(67,205,o),
(155,138,o),
(274,138,cs),
(437,138,o),
(487,207,o),
(487,292,cs),
(487,372,o),
(428,433,o),
(305,433,cs),
(234,433,o),
(155,385,o),
(121,354,c),
(177,310,l),
(212,329,o),
(238,340,o),
(269,340,cs),
(301,340,o),
(320,326,o),
(320,294,cs),
(320,268,o),
(306,248,o),
(271,248,cs),
(239,248,o),
(217,271,o),
(217,318,cs),
(217,333,o),
(218,349,o),
(219,358,cs),
(221,373,o),
(220,386,o),
(228,399,cs),
(257,443,o),
(330,457,o),
(399,457,cs),
(454,457,o),
(487,444,o),
(510,427,cs),
(543,402,o),
(556,358,o),
(556,272,cs),
(556,161,l),
(740,161,l),
(740,328,ls),
(740,383,o),
(749,410,o),
(764,428,cs),
(779,445,o),
(799,452,o),
(823,452,cs),
(888,452,o),
(921,391,o),
(921,303,cs),
(921,248,o),
(908,202,o),
(874,172,cs),
(838,140,o),
(790,127,o),
(678,127,cs),
(341,127,ls),
(239,127,o),
(181,116,o),
(133,83,cs),
(95,57,o),
(72,16,o),
(72,-42,cs),
(72,-108,o),
(103,-151,o),
(150,-175,cs),
(199,-200,o),
(253,-206,o),
(343,-206,cs),
(1087,-206,l),
(1087,-77,l),
(356,-77,ls),
(305,-77,o),
(287,-73,o),
(274,-64,cs),
(265,-58,o),
(260,-49,o),
(260,-36,cs),
(260,-23,o),
(266,-14,o),
(279,-8,cs),
(292,-2,o),
(306,0,o),
(353,0,cs),
(703,0,ls),
(873,0,o),
(954,19,o),
(1017,71,cs),
(1076,120,o),
(1111,198,o),
(1111,312,cs),
(1111,461,o),
(1025,581,o),
(842,581,cs),
(747,581,o),
(672,551,o),
(622,494,c),
(679,488,l),
(623,538,o),
(558,581,o),
(406,581,cs)
);
}
);
};
layerId = "2AD682F6-F6C7-4738-913E-50B961B61BC3";
shapes = (
{
closed = 1;
nodes = (
(180,136,o),
(31,356,o),
(119,467,cs),
(259,638,o),
(493,354,o),
(478,85,c),
(566,-3,l),
(579,447,o),
(260,702,o),
(85,512,cs),
(-65,344,o),
(28,119,o),
(199,22,c),
(283,48,l)
);
},
{
closed = 1;
nodes = (
(568,64,o),
(548,404,o),
(661,432,cs),
(763,458,o),
(738,212,o),
(738,119,c),
(809,75,l),
(852,173,o),
(859,483,o),
(681,481,cs),
(513,481,o),
(483,276,o),
(478,85,c),
(566,-3,l)
);
},
{
closed = 1;
nodes = (
(181,33,l),
(355,-80,o),
(523,90,o),
(442,158,cs),
(370,216,o),
(293,156,o),
(255,127,cs),
(246,120,o),
(235,112,o),
(233,111,c),
(274,71,l),
(358,140,o),
(386,149,o),
(402,129,cs),
(412,116,o),
(349,-20,o),
(255,74,c)
);
},
{
closed = 1;
nodes = (
(740,242,l),
(738,115,o),
(700,46,o),
(667,13,cs),
(625,-29,o),
(522,-45,o),
(413,-63,cs),
(257,-88,o),
(96,-111,o),
(194,-211,cs),
(268,-286,o),
(576,-218,o),
(786,-170,cs),
(830,-160,o),
(871,-150,o),
(902,-144,c),
(822,-59,l),
(660,-138,o),
(375,-235,o),
(286,-165,cs),
(246,-133,o),
(319,-121,o),
(427,-105,cs),
(542,-88,o),
(693,-65,o),
(758,-7,cs),
(811,43,o),
(825,93,o),
(833,185,c)
);
}
);
width = 912;
}
);
unicode = 3335;
},
{
glyphname = iimlym;
lastChange = "2025-02-11 16:34:34 +0000";
layers = (
{
anchors = (
{
name = b.uni0D00;
pos = (994,0);
}
);
background = {
shapes = (
{
alignment = -1;
ref = imlym;
},
{
alignment = -1;
pos = (1111,0);
ref = aulengthmarkmlym;
}
);
};
layerId = "2AD682F6-F6C7-4738-913E-50B961B61BC3";
shapes = (
{
closed = 1;
nodes = (
(180,136,o),
(31,356,o),
(119,467,cs),
(259,638,o),
(493,354,o),
(478,85,c),
(566,-3,l),
(579,447,o),
(260,702,o),
(85,512,cs),
(-65,344,o),
(28,119,o),
(199,22,c),
(283,48,l)
);
},
{
closed = 1;
nodes = (
(568,64,o),
(548,404,o),
(661,432,cs),
(763,458,o),
(738,212,o),
(738,119,c),
(809,75,l),
(852,173,o),
(859,483,o),
(681,481,cs),
(513,481,o),
(483,276,o),
(478,85,c),
(566,-3,l)
);
},
{
closed = 1;
nodes = (
(181,33,l),
(355,-80,o),
(523,90,o),
(442,158,cs),
(370,216,o),
(293,156,o),
(255,127,cs),
(246,120,o),
(235,112,o),
(233,111,c),
(274,71,l),
(358,140,o),
(386,149,o),
(402,129,cs),
(412,116,o),
(349,-20,o),
(255,74,c)
);
},
{
closed = 1;
nodes = (
(740,242,l),
(738,115,o),
(700,46,o),
(667,13,cs),
(625,-29,o),
(522,-45,o),
(413,-63,cs),
(257,-88,o),
(96,-111,o),
(194,-211,cs),
(268,-286,o),
(576,-218,o),
(786,-170,cs),
(830,-160,o),
(871,-150,o),
(902,-144,c),
(822,-59,l),
(660,-138,o),
(375,-235,o),
(286,-165,cs),
(246,-133,o),
(319,-121,o),
(427,-105,cs),
(542,-88,o),
(693,-65,o),
(758,-7,cs),
(811,43,o),
(825,93,o),
(833,185,c)
);
},
{
closed = 1;
nodes = (
(962,238,l),
(903,385,o),
(1082,416,o),
(1142,264,c),
(1179,326,l),
(1066,499,o),
(906,463,o),
(892,308,c)
);
},
{
closed = 1;
nodes = (
(1150,278,l),
(1179,321,o),
(1193,342,o),
(1215,346,cs),
(1308,365,o),
(1309,75,o),
(1056,71,c),
(1125,1,l),
(1386,30,o),
(1403,387,o),
(1230,392,cs),
(1177,393,o),
(1137,363,o),
(1110,318,c)
);
}
);
width = 1353;
}
);
unicode = 3336;
},
{
glyphname = umlym;
lastChange = "2025-02-11 16:34:40 +0000";
layers = (
{
anchors = (
{
name = b.uni0D00;
pos = (401,0);
}
);
background = {
shapes = (
{
closed = 1;
nodes = (
(144,581,o),
(37,456,o),
(37,333,cs),
(37,205,o),
(125,138,o),
(244,138,cs),
(407,138,o),
(457,207,o),
(457,292,cs),
(457,372,o),
(398,433,o),
(275,433,cs),
(204,433,o),
(125,385,o),
(91,354,c),
(147,310,l),
(182,329,o),
(208,340,o),
(239,340,cs),
(271,340,o),
(290,326,o),
(290,294,cs),
(290,268,o),
(276,248,o),
(241,248,cs),
(209,248,o),
(187,271,o),
(187,318,cs),
(187,333,o),
(188,349,o),
(189,358,cs),
(191,373,o),
(183,385,o),
(193,398,cs),
(226,441,o),
(287,457,o),
(385,457,cs),
(503,457,o),
(574,396,o),
(574,296,cs),
(574,245,o),
(561,202,o),
(528,172,cs),
(492,140,o),
(447,127,o),
(321,127,cs),
(303,127,ls),
(209,127,o),
(151,116,o),
(103,83,cs),
(65,57,o),
(42,16,o),
(42,-42,cs),
(42,-108,o),
(73,-151,o),
(120,-175,cs),
(169,-200,o),
(223,-206,o),
(313,-206,cs),
(745,-206,l),
(745,-77,l),
(326,-77,ls),
(275,-77,o),
(257,-73,o),
(244,-64,cs),
(235,-58,o),
(230,-49,o),
(230,-36,cs),
(230,-23,o),
(236,-14,o),
(249,-8,cs),
(262,-2,o),
(276,0,o),
(323,0,cs),
(345,0,ls),
(520,0,o),
(608,22,o),
(672,74,cs),
(725,117,o),
(764,192,o),
(764,294,cs),
(764,449,o),
(656,581,o),
(394,581,cs)
);
}
);
};
layerId = "2AD682F6-F6C7-4738-913E-50B961B61BC3";
shapes = (
{
closed = 1;
nodes = (
(222,148,o),
(85,358,o),
(173,467,cs),
(312,640,o),
(676,399,o),
(559,105,c),
(660,99,l),
(761,451,o),
(307,696,o),
(139,511,cs),
(-11,346,o),
(125,86,o),
(266,19,c),
(323,63,l)
);
},
{
closed = 1;
nodes = (
(234,36,l),
(408,-74,o),
(572,96,o),
(493,160,cs),
(407,230,o),
(317,135,o),
(287,115,c),
(323,75,l),
(408,144,o),
(438,151,o),
(452,133,cs),
(462,120,o),
(398,-13,o),
(308,78,c)
);
},
{
closed = 1;
nodes = (
(581,247,l),
(579,120,o),
(542,49,o),
(510,19,cs),
(468,-23,o),
(360,-40,o),
(256,-57,cs),
(104,-82,o),
(-57,-106,o),
(39,-204,cs),
(115,-279,o),
(418,-210,o),
(630,-161,cs),
(673,-151,o),
(712,-142,o),
(742,-136,c),
(662,-54,l),
(502,-130,o),
(220,-230,o),
(131,-160,cs),
(91,-128,o),
(164,-116,o),
(272,-99,cs),
(374,-83,o),
(532,-60,o),
(599,0,cs),
(651,47,o),
(665,99,o),
(673,189,c)
);
}
);
width = 752;
}
);
unicode = 3337;
},
{
glyphname = uumlym;
lastChange = "2025-02-11 16:34:47 +0000";
layers = (
{
anchors = (
{
name = b.uni0D00;
pos = (833,0);
}
);
background = {
shapes = (
{
alignment = -1;
ref = umlym;
},
{
alignment = -1;
pos = (790,0);
ref = aulengthmarkmlym;
}
);
};
layerId = "2AD682F6-F6C7-4738-913E-50B961B61BC3";
shapes = (
{
closed = 1;
nodes = (
(222,148,o),
(85,358,o),
(173,467,cs),
(312,640,o),
(676,399,o),
(559,105,c),
(660,99,l),
(761,451,o),
(307,696,o),
(139,511,cs),
(-11,346,o),
(125,86,o),
(266,19,c),
(323,63,l)
);
},
{
closed = 1;
nodes = (
(234,36,l),
(408,-74,o),
(572,96,o),
(493,160,cs),
(407,230,o),
(317,135,o),
(287,115,c),
(323,75,l),
(408,144,o),
(438,151,o),
(452,133,cs),
(462,120,o),
(398,-13,o),
(308,78,c)
);
},
{
closed = 1;
nodes = (
(581,247,l),
(579,120,o),
(542,49,o),
(510,19,cs),
(468,-23,o),
(360,-40,o),
(256,-57,cs),
(104,-82,o),
(-57,-106,o),
(39,-204,cs),
(115,-279,o),
(418,-210,o),
(630,-161,cs),
(673,-151,o),
(712,-142,o),
(742,-136,c),
(662,-54,l),
(502,-130,o),
(220,-230,o),
(131,-160,cs),
(91,-128,o),
(164,-116,o),
(272,-99,cs),
(374,-83,o),
(532,-60,o),
(599,0,cs),
(651,47,o),
(665,99,o),
(673,189,c)
);
},
{
closed = 1;
nodes = (
(802,238,l),
(743,385,o),
(922,416,o),
(982,264,c),
(1019,326,l),
(906,499,o),
(746,463,o),
(732,308,c)
);
},
{
closed = 1;
nodes = (
(990,278,l),
(1019,321,o),
(1033,342,o),
(1055,346,cs),
(1148,365,o),
(1149,75,o),
(896,71,c),
(965,1,l),
(1226,30,o),
(1243,387,o),
(1070,392,cs),
(1017,393,o),
(977,363,o),
(950,318,c)
);
}
);
width = 1193;
}
);
unicode = 3338;
},
{
glyphname = rvocalicmlym;
lastChange = "2025-02-11 19:13:55 +0000";
layers = (
{
anchors = (
{
name = b.uni0D00;
pos = (534,0);
}
);
background = {
shapes = (
{
closed = 1;
nodes = (
(630,581,o),
(554,496,o),
(554,395,cs),
(554,271,o),
(634,221,o),
(771,221,cs),
(860,221,o),
(932,279,o),
(979,332,c),
(935,426,l),
(892,373,o),
(856,334,o),
(799,334,cs),
(764,334,o),
(734,349,o),
(734,399,cs),
(734,439,o),
(755,461,o),
(792,461,cs),
(834,461,o),
(866,420,o),
(866,345,cs),
(866,328,o),
(865,313,o),
(862,297,c),
(862,274,l),
(826,182,o),
(693,173,o),
(543,173,cs),
(524,173,ls),
(373,173,o),
(243,182,o),
(207,274,c),
(207,299,l),
(204,313,o),
(203,328,o),
(203,345,cs),
(203,420,o),
(235,461,o),
(278,461,cs),
(314,461,o),
(335,439,o),
(335,399,cs),
(335,349,o),
(305,334,o),
(270,334,cs),
(213,334,o),
(177,373,o),
(134,426,c),
(90,332,l),
(137,279,o),
(209,221,o),
(294,221,cs),
(434,221,o),
(515,271,o),
(515,395,cs),
(515,496,o),
(439,581,o),
(291,581,cs),
(126,581,o),
(34,485,o),
(34,339,cs),
(34,245,o),
(71,174,o),
(136,127,cs),
(205,77,o),
(302,61,o),
(415,61,cs),
(654,61,ls),
(767,61,o),
(864,77,o),
(933,127,cs),
(998,174,o),
(1035,245,o),
(1035,339,cs),
(1035,485,o),
(942,581,o),
(783,581,cs)
);
},
{
closed = 1;
nodes = (
(823,-261,o),
(962,-205,o),
(962,-59,cs),
(962,89,o),
(777,129,o),
(619,129,cs),
(450,129,ls),
(292,129,o),
(107,89,o),
(107,-59,cs),
(107,-205,o),
(247,-261,o),
(545,-261,cs)
);
},
{
closed = 1;
nodes = (
(370,-128,o),
(298,-105,o),
(298,-39,cs),
(298,29,o),
(388,45,o),
(520,45,cs),
(549,45,ls),
(681,45,o),
(771,29,o),
(771,-39,cs),
(771,-105,o),
(699,-128,o),
(536,-128,cs)
);
}
);
};
layerId = "2AD682F6-F6C7-4738-913E-50B961B61BC3";
shapes = (
{
closed = 1;
nodes = (
(809,340,l),
(1194,27,o),
(-75,-52,o),
(37,441,cs),
(48,485,o),
(53,513,o),
(105,541,c),
(147,494,l),
(11,277,o),
(247,174,o),
(415,157,cs),
(514,147,o),
(930,148,o),
(762,301,c)
);
},
{
closed = 1;
nodes = (
(300,407,o),
(281,512,o),
(56,495,c),
(180,668,o),
(407,396,o),
(325,328,cs),
(239,259,o),
(150,333,o),
(123,351,c),
(163,391,l),
(251,320,o),
(285,351,o),
(290,369,cs)
);
},
{
closed = 1;
nodes = (
(184,488,l),
(143,492,o),
(134,474,o),
(126,457,c),
(126,457,o),
(127,459,o),
(127,459,c),
(117,518,l)
);
},
{
closed = 1;
nodes = (
(744,221,l),
(710,212,o),
(644,223,o),
(608,252,cs),
(538,311,o),
(668,478,o),
(829,322,c),
(782,283,l),
(662,405,o),
(547,256,o),
(742,273,c)
);
},
{
closed = 1;
nodes = (
(1222,-136,o),
(517,-289,o),
(153,-137,cs),
(14,-79,o),
(-110,83,o),
(256,188,c),
(305,127,l),
(-8,48,o),
(125,-75,o),
(209,-104,cs),
(443,-185,o),
(1046,-141,o),
(610,126,c),
(692,136,l)
);
}
);
width = 897;
}
);
unicode = 3339;
},
{
glyphname = lvocalicmlym;
layers = (
{
anchors = (
{
name = b.uni0D00;
pos = (684,0);
}
);
background = {
shapes = (
{
closed = 1;
nodes = (
(202,581,o),
(33,460,o),
(33,244,cs),
(33,63,o),
(139,-12,o),
(278,-12,cs),
(432,-12,o),
(506,61,o),
(506,180,cs),
(506,285,o),
(444,359,o),
(316,359,cs),
(230,359,o),
(171,321,o),
(118,276,c),
(139,156,l),
(193,215,o),
(222,240,o),
(267,240,cs),
(303,240,o),
(325,216,o),
(325,173,cs),
(325,127,o),
(306,108,o),
(273,108,cs),
(235,108,o),
(202,135,o),
(202,240,cs),
(202,244,ls),
(202,380,o),
(301,453,o),
(418,453,cs),
(469,453,o),
(505,443,o),
(529,424,cs),
(562,397,o),
(574,359,o),
(574,273,cs),
(574,0,l),
(761,0,l),
(761,317,l),
(737,404,l),
(704,480,l),
(629,553,o),
(547,581,o),
(422,581,cs)
);
},
{
closed = 1;
nodes = (
(1246,-12,o),
(1338,77,o),
(1338,237,cs),
(1338,418,o),
(1204,581,o),
(940,581,cs),
(779,581,o),
(691,517,o),
(628,450,c),
(761,154,l),
(761,238,ls),
(761,307,o),
(769,378,o),
(819,416,cs),
(845,436,o),
(880,451,o),
(944,451,cs),
(1062,451,o),
(1140,396,o),
(1151,329,c),
(1154,324,o),
(1148,310,o),
(1150,305,c),
(1153,285,o),
(1155,262,o),
(1155,242,cs),
(1155,153,o),
(1129,116,o),
(1079,116,cs),
(1042,116,o),
(1016,143,o),
(1016,205,cs),
(1016,265,o),
(1042,295,o),
(1090,295,cs),
(1143,295,o),
(1176,251,o),
(1186,203,c),
(1259,205,l),
(1251,305,o),
(1169,410,o),
(1044,410,cs),
(912,410,o),
(836,331,o),
(836,205,cs),
(836,89,o),
(905,-12,o),
(1076,-12,cs)
);
}
);
};
layerId = "2AD682F6-F6C7-4738-913E-50B961B61BC3";
shapes = (
{
closed = 1;
nodes = (
(202,581,o),
(33,460,o),
(33,244,cs),
(33,63,o),
(139,-12,o),
(278,-12,cs),
(432,-12,o),
(506,61,o),
(506,180,cs),
(506,285,o),
(444,359,o),
(316,359,cs),
(230,359,o),
(171,321,o),
(118,276,c),
(139,156,l),
(193,215,o),
(222,240,o),
(267,240,cs),
(303,240,o),
(325,216,o),
(325,173,cs),
(325,127,o),
(306,108,o),
(273,108,cs),
(235,108,o),
(202,135,o),
(202,240,cs),
(202,244,ls),
(202,380,o),
(301,453,o),
(418,453,cs),
(469,453,o),
(505,443,o),
(529,424,cs),
(562,397,o),
(574,359,o),
(574,273,cs),
(574,0,l),
(761,0,l),
(761,317,l),
(737,404,l),
(704,480,l),
(629,553,o),
(547,581,o),
(422,581,cs)
);
},
{
closed = 1;
nodes = (
(1246,-12,o),
(1338,77,o),
(1338,237,cs),
(1338,418,o),
(1204,581,o),
(940,581,cs),
(779,581,o),
(691,517,o),
(628,450,c),
(761,154,l),
(761,238,ls),
(761,307,o),
(769,378,o),
(819,416,cs),
(845,436,o),
(880,451,o),
(944,451,cs),
(1062,451,o),
(1140,396,o),
(1151,329,c),
(1154,324,o),
(1148,310,o),
(1150,305,c),
(1153,285,o),
(1155,262,o),
(1155,242,cs),
(1155,153,o),
(1129,116,o),
(1079,116,cs),
(1042,116,o),
(1016,143,o),
(1016,205,cs),
(1016,265,o),
(1042,295,o),
(1090,295,cs),
(1143,295,o),
(1176,251,o),
(1186,203,c),
(1259,205,l),
(1251,305,o),
(1169,410,o),
(1044,410,cs),
(912,410,o),
(836,331,o),
(836,205,cs),
(836,89,o),
(905,-12,o),
(1076,-12,cs)
);
}
);
width = 1369;
}
);
unicode = 3340;
},
{
glyphname = emlym;
lastChange = "2025-02-11 17:46:39 +0000";
layers = (
{
anchors = (
{
name = b.uni0D00;
pos = (727,0);
}
);
background = {
shapes = (
{
closed = 1;
nodes = (
(133,372,o),
(27,296,o),
(27,170,cs),
(27,97,o),
(60,37,o),
(108,-13,c),
(252,45,l),
(228,83,o),
(212,119,o),
(212,160,cs),
(212,210,o),
(236,245,o),
(287,245,cs),
(339,245,o),
(360,205,o),
(360,163,cs),
(360,123,o),
(343,92,o),
(329,70,c),
(392,0,l),
(974,0,l),
(972,128,l),
(521,128,l),
(518,76,l),
(531,105,o),
(538,143,o),
(538,173,cs),
(538,268,o),
(464,372,o),
(285,372,cs)
);
},
{
closed = 1;
nodes = (
(746,581,o),
(619,389,o),
(619,148,cs),
(619,-108,o),
(716,-228,o),
(891,-228,cs),
(965,-228,o),
(1009,-215,o),
(1045,-185,cs),
(1080,-156,o),
(1105,-112,o),
(1105,-12,cs),
(1105,378,l),
(918,378,l),
(918,-56,ls),
(918,-81,o),
(915,-89,o),
(908,-95,cs),
(903,-100,o),
(895,-102,o),
(886,-102,cs),
(833,-102,o),
(810,-31,o),
(807,53,c),
(807,60,o),
(807,68,o),
(807,75,c),
(805,99,o),
(805,123,o),
(805,140,cs),
(805,325,o),
(873,453,o),
(1024,453,cs),
(1168,453,o),
(1225,332,o),
(1225,172,cs),
(1225,46,o),
(1191,-51,o),
(1125,-154,c),
(1278,-229,l),
(1359,-117,o),
(1415,1,o),
(1415,171,cs),
(1415,415,o),
(1293,581,o),
(1023,581,cs)
);
}
);
};
guides = (
{
angle = 45;
pos = (906,342);
}
);
layerId = "2AD682F6-F6C7-4738-913E-50B961B61BC3";
shapes = (
{
closed = 1;
nodes = (
(90,95,o),
(75,195,o),
(147,244,cs),
(192,276,o),
(327,260,o),
(314,111,c),
(409,68,l),
(512,365,o),
(207,404,o),
(91,306,cs),
(-62,176,o),
(18,57,o),
(97,-10,c),
(172,64,l)
);
},
{
closed = 1;
nodes = (
(975,78,l),
(411,78,l),
(415,127,o),
(413,179,o),
(405,231,c),
(317,158,l),
(314,109,o),
(310,54,o),
(293,1,c),
(994,0,l)
);
},
{
closed = 1;
nodes = (
(746,-86,o),
(550,322,o),
(733,462,cs),
(893,585,o),
(1183,377,o),
(1090,147,c),
(1188,51,l),
(1300,486,o),
(881,669,o),
(686,512,cs),
(428,304,o),
(643,-143,o),
(766,-244,c),
(840,-160,l)
);
},
{
closed = 1;
nodes = (
(761,-240,l),
(932,-386,o),
(1274,-237,o),
(907,347,c),
(806,246,l),
(1060,-22,o),
(1047,-295,o),
(835,-157,c)
);
}
);
width = 1455;
}
);
unicode = 3342;
},
{
glyphname = eemlym;
lastChange = "2025-02-11 17:50:21 +0000";
layers = (
{
anchors = (
{
name = b.uni0D00;
pos = (738,0);
}
);
background = {
shapes = (
{
closed = 1;
nodes = (
(135,372,o),
(29,296,o),
(29,170,cs),
(29,97,o),
(62,37,o),
(110,-13,c),
(254,45,l),
(230,83,o),
(214,119,o),
(214,160,cs),
(214,210,o),
(238,245,o),
(289,245,cs),
(341,245,o),
(362,205,o),
(362,163,cs),
(362,123,o),
(345,92,o),
(331,70,c),
(394,0,l),
(976,0,l),
(974,128,l),
(523,128,l),
(520,76,l),
(533,105,o),
(540,143,o),
(540,173,cs),
(540,268,o),
(466,372,o),
(287,372,cs)
);
},
{
closed = 1;
nodes = (
(772,581,o),
(621,399,o),
(621,148,cs),
(621,-108,o),
(718,-228,o),
(893,-228,cs),
(967,-228,o),
(1011,-215,o),
(1047,-185,cs),
(1082,-156,o),
(1107,-112,o),
(1107,-12,cs),
(1107,378,l),
(920,378,l),
(920,-56,ls),
(920,-81,o),
(917,-89,o),
(910,-95,cs),
(905,-100,o),
(898,-102,o),
(888,-102,cs),
(835,-102,o),
(812,-31,o),
(809,53,c),
(809,60,o),
(809,68,o),
(809,75,c),
(807,99,o),
(807,123,o),
(807,140,cs),
(807,315,o),
(880,453,o),
(1070,453,cs),
(1192,453,o),
(1248,399,o),
(1248,321,cs),
(1248,249,o),
(1208,219,o),
(1150,202,c),
(1150,76,l),
(1220,76,o),
(1258,37,o),
(1258,-17,cs),
(1258,-69,o),
(1235,-100,o),
(1175,-100,cs),
(1164,-100,o),
(1147,-99,o),
(1133,-95,c),
(1115,-220,l),
(1137,-225,o),
(1180,-228,o),
(1205,-228,cs),
(1352,-228,o),
(1446,-169,o),
(1446,-23,cs),
(1446,64,o),
(1404,122,o),
(1329,154,c),
(1326,139,l),
(1390,182,o),
(1436,236,o),
(1436,337,cs),
(1436,462,o),
(1341,581,o),
(1075,581,cs)
);
}
);
};
layerId = "2AD682F6-F6C7-4738-913E-50B961B61BC3";
shapes = (
{
closed = 1;
nodes = (
(90,95,o),
(75,195,o),
(147,244,cs),
(192,276,o),
(327,260,o),
(314,111,c),
(409,68,l),
(512,365,o),
(207,404,o),
(91,306,cs),
(-62,176,o),
(18,57,o),
(97,-10,c),
(172,64,l)
);
},
{
closed = 1;
nodes = (
(975,78,l),
(411,78,l),
(415,127,o),
(413,179,o),
(405,231,c),
(317,158,l),
(314,109,o),
(310,54,o),
(293,1,c),
(994,0,l)
);
},
{
closed = 1;
nodes = (
(943,555,l),
(851,581,o),
(754,566,o),
(686,512,cs),
(428,304,o),
(643,-143,o),
(766,-244,c),
(840,-160,l),
(746,-86,o),
(550,322,o),
(733,462,cs),
(788,504,o),
(857,508,o),
(923,484,c)
);
},
{
closed = 1;
nodes = (
(761,-240,l),
(932,-386,o),
(1274,-237,o),
(907,347,c),
(806,246,l),
(1060,-22,o),
(1047,-295,o),
(835,-157,c)
);
},
{
closed = 1;
nodes = (
(914,487,l),
(984,465,o),
(1176,337,o),
(1019,184,c),
(1179,323,o),
(1256,177,o),
(1087,87,c),
(1162,12,l),
(1327,73,o),
(1304,336,o),
(1150,302,c),
(1213,474,o),
(998,539,o),
(934,558,c)
);
}
);
width = 1476;
}
);
unicode = 3343;
},
{
glyphname = omlym;
lastChange = "2025-02-13 18:15:04 +0000";
layers = (
{
anchors = (
{
name = b.uni0D00;
pos = (458,0);
}
);
background = {
shapes = (
{
closed = 1;
nodes = (
(262,581,o),
(52,469,o),
(52,242,cs),
(52,63,o),
(158,-12,o),
(297,-12,cs),
(451,-12,o),
(525,61,o),
(525,180,cs),
(525,285,o),
(463,359,o),
(335,359,cs),
(249,359,o),
(190,321,o),
(137,276,c),
(158,156,l),
(212,215,o),
(241,240,o),
(286,240,cs),
(322,240,o),
(344,216,o),
(344,173,cs),
(344,128,o),
(325,108,o),
(292,108,cs),
(254,108,o),
(221,137,o),
(221,238,cs),
(221,254,ls),
(221,405,o),
(400,453,o),
(519,453,cs),
(615,453,o),
(669,439,o),
(669,393,cs),
(669,378,o),
(664,367,o),
(654,359,cs),
(637,346,o),
(617,343,o),
(569,343,cs),
(562,343,l),
(562,217,l),
(571,217,ls),
(618,217,o),
(639,214,o),
(657,204,cs),
(672,195,o),
(680,182,o),
(680,164,cs),
(680,129,o),
(657,116,o),
(610,116,cs),
(593,116,o),
(568,119,o),
(552,123,c),
(527,0,l),
(559,-7,o),
(596,-12,o),
(641,-12,cs),
(788,-12,o),
(866,45,o),
(866,148,cs),
(866,211,o),
(836,262,o),
(766,287,c),
(765,281,l),
(835,314,o),
(855,358,o),
(855,413,cs),
(855,502,o),
(779,581,o),
(534,581,cs)
);
}
);
};
layerId = "2AD682F6-F6C7-4738-913E-50B961B61BC3";
shapes = (
{
closed = 1;
nodes = (
(419,553,l),
(324,585,o),
(178,559,o),
(97,486,cs),
(-67,340,o),
(39,73,o),
(201,11,c),
(268,81,l),
(116,195,o),
(92,387,o),
(181,452,cs),
(240,495,o),
(345,503,o),
(410,471,c)
);
},
{
closed = 1;
nodes = (
(187,17,l),
(372,-57,o),
(526,120,o),
(453,211,cs),
(338,353,o),
(197,240,o),
(186,233,c),
(281,140,l),
(451,289,o),
(390,-28,o),
(241,102,c)
);
},
{
closed = 1;
nodes = (
(642,6,l),
(876,107,o),
(756,340,o),
(597,289,c),
(674,426,o),
(493,530,o),
(419,553,c),
(410,471,l),
(505,426,o),
(593,305,o),
(512,205,c),
(650,316,o),
(797,190,o),
(562,86,c)
);
}
);
width = 788;
}
);
unicode = 3346;
},
{
glyphname = oomlym;
lastChange = "2025-02-13 18:14:57 +0000";
layers = (
{
anchors = (
{
name = b.uni0D00;
pos = (766,0);
}
);
background = {
shapes = (
{
alignment = -1;
pos = (22,0);
ref = omlym;
},
{
alignment = -1;
pos = (900,0);
ref = aavowelsignmlym;
}
);
};
guides = (
{
pos = (518,30);
},
{
pos = (518,110);
},
{
angle = -44.8134;
pos = (422,249);
}
);
layerId = "2AD682F6-F6C7-4738-913E-50B961B61BC3";
shapes = (
{
closed = 1;
nodes = (
(858,326,l),
(1025,512,o),
(1246,110,o),
(951,81,c),
(1034,-3,l),
(1427,172,o),
(977,642,o),
(774,410,c)
);
},
{
closed = 1;
nodes = (
(419,553,l),
(324,585,o),
(178,559,o),
(97,486,cs),
(-67,340,o),
(39,73,o),
(201,11,c),
(268,81,l),
(116,195,o),
(92,387,o),
(181,452,cs),
(240,495,o),
(345,503,o),
(410,471,c)
);
},
{
closed = 1;
nodes = (
(187,17,l),
(372,-57,o),
(526,120,o),
(453,211,cs),
(338,353,o),
(197,240,o),
(186,233,c),
(281,140,l),
(451,289,o),
(390,-28,o),
(241,102,c)
);
},
{
closed = 1;
nodes = (
(642,6,l),
(876,107,o),
(756,340,o),
(597,289,c),
(674,426,o),
(493,530,o),
(419,553,c),
(410,471,l),
(505,426,o),
(593,305,o),
(512,205,c),
(650,316,o),
(797,190,o),
(562,86,c)
);
}
);
width = 1205;
}
);
unicode = 3347;
},
{
glyphname = aumlym;
lastChange = "2025-02-13 18:23:57 +0000";
layers = (
{
anchors = (
{
name = b.uni0D00;
pos = (1013,0);
}
);
background = {
shapes = (
{
alignment = -1;
pos = (137,0);
ref = omlym;
},
{
alignment = -1;
pos = (1012,0);
ref = aulengthmarkmlym;
}
);
};
guides = (
{
pos = (635,270);
},
{
pos = (635,350);
},
{
angle = -44.8134;
pos = (539,489);
}
);
layerId = "2AD682F6-F6C7-4738-913E-50B961B61BC3";
shapes = (
{
closed = 1;
nodes = (
(821,253,l),
(739,415,o),
(954,459,o),
(954,284,c),
(992,350,l),
(897,521,o),
(738,505,o),
(724,351,c)
);
},
{
closed = 1;
nodes = (
(963,300,l),
(1103,538,o),
(1314,139,o),
(872,81,c),
(958,-5,l),
(1465,110,o),
(1085,638,o),
(934,387,c)
);
},
{
closed = 1;
nodes = (
(419,553,l),
(324,585,o),
(178,559,o),
(97,486,cs),
(-67,340,o),
(39,73,o),
(201,11,c),
(268,81,l),
(116,195,o),
(92,387,o),
(181,452,cs),
(240,495,o),
(345,503,o),
(410,471,c)
);
},
{
closed = 1;
nodes = (
(187,17,l),
(372,-57,o),
(526,120,o),
(453,211,cs),
(338,353,o),
(197,240,o),
(186,233,c),
(281,140,l),
(451,289,o),
(390,-28,o),
(241,102,c)
);
},
{
closed = 1;
nodes = (
(642,6,l),
(876,107,o),
(756,340,o),
(597,289,c),
(674,426,o),
(493,530,o),
(419,553,c),
(410,471,l),
(505,426,o),
(593,305,o),
(512,205,c),
(650,316,o),
(797,190,o),
(562,86,c)
);
}
);
width = 1228;
}
);
unicode = 3348;
},
{
glyphname = kamlym;
lastChange = "2025-02-13 18:55:34 +0000";
layers = (
{
anchors = (
{
name = b.uni0D00;
pos = (758,0);
}
);
background = {
shapes = (
{
closed = 1;
nodes = (
(491,-12,o),
(542,3,o),
(610,46,c),
(538,157,l),
(501,127,o),
(467,115,o),
(428,115,cs),
(380,115,o),
(357,132,o),
(357,168,cs),
(357,187,o),
(365,201,o),
(379,211,cs),
(398,225,o),
(425,231,o),
(484,231,cs),
(1005,231,ls),
(1070,231,o),
(1105,228,o),
(1128,215,cs),
(1144,205,o),
(1155,191,o),
(1155,167,cs),
(1155,136,o),
(1136,116,o),
(1098,116,cs),
(1084,116,o),
(1069,117,o),
(1054,121,c),
(1025,-2,l),
(1054,-9,o),
(1089,-12,o),
(1120,-12,cs),
(1250,-12,o),
(1336,47,o),
(1336,167,cs),
(1336,243,o),
(1305,289,o),
(1256,317,cs),
(1196,352,o),
(1127,359,o),
(1008,359,cs),
(537,359,ls),
(399,359,o),
(322,349,o),
(261,312,cs),
(214,283,o),
(181,238,o),
(181,167,cs),
(181,53,o),
(263,-12,o),
(404,-12,cs)
);
},
{
closed = 1;
nodes = (
(564,581,o),
(465,473,o),
(465,287,cs),
(465,202,o),
(488,131,o),
(530,80,c),
(579,16,o),
(655,-12,o),
(762,-12,cs),
(957,-12,o),
(1056,94,o),
(1056,287,cs),
(1056,463,o),
(975,581,o),
(761,581,cs)
);
},
{
closed = 1;
nodes = (
(838,453,o),
(873,391,o),
(873,286,cs),
(873,177,o),
(837,116,o),
(761,116,cs),
(682,116,o),
(648,182,o),
(648,283,cs),
(648,391,o),
(682,453,o),
(761,453,cs)
);
}
);
};
guides = (
{
angle = 45;
pos = (292,225);
},
{
pos = (504,189);
},
{
pos = (502,132);
},
{
pos = (511,30);
},
{
pos = (511,110);
}
);
layerId = "2AD682F6-F6C7-4738-913E-50B961B61BC3";
shapes = (
{
closed = 1;
nodes = (
(205,384,o),
(185,461,o),
(243,496,cs),
(436,613,o),
(643,204,o),
(481,93,cs),
(416,49,o),
(268,93,o),
(260,197,c),
(195,132,l),
(317,3,o),
(439,14,o),
(503,48,cs),
(882,249,o),
(483,739,o),
(199,530,cs),
(133,481,o),
(70,389,o),
(154,253,c),
(239,339,l)
);
},
{
closed = 1;
nodes = (
(171,-36,o),
(-10,151,o),
(222,217,cs),
(363,257,o),
(558,287,o),
(589,291,cs),
(719,309,o),
(853,252,o),
(670,114,c),
(753,30,l),
(957,217,o),
(871,350,o),
(630,335,cs),
(576,332,o),
(15,257,o),
(15,106,cs),
(15,-29,o),
(267,-78,o),
(261,198,c),
(194,131,l)
);
}
);
width = 883;
}
);
unicode = 3349;
},
{
glyphname = khamlym;
lastChange = "2025-02-12 18:33:04 +0000";
layers = (
{
anchors = (
{
name = b.uni0D00;
pos = (612,0);
}
);
background = {
shapes = (
{
closed = 1;
nodes = (
(217,581,o),
(64,444,o),
(64,237,cs),
(64,63,o),
(170,-12,o),
(309,-12,cs),
(463,-12,o),
(537,61,o),
(537,180,cs),
(537,285,o),
(475,359,o),
(347,359,cs),
(261,359,o),
(202,321,o),
(149,276,c),
(170,156,l),
(224,215,o),
(253,240,o),
(299,240,cs),
(334,240,o),
(356,216,o),
(356,173,cs),
(356,127,o),
(337,108,o),
(304,108,cs),
(266,108,o),
(233,135,o),
(233,236,cs),
(233,243,ls),
(233,380,o),
(346,452,o),
(461,452,cs),
(584,452,o),
(647,386,o),
(647,281,cs),
(647,201,o),
(613,139,o),
(570,79,c),
(596,0,l),
(651,0,l),
(708,35,l),
(790,117,o),
(837,169,o),
(837,284,cs),
(837,426,o),
(746,581,o),
(473,581,cs)
);
},
{
closed = 1;
nodes = (
(950,569,l),
(950,128,l),
(727,128,l),
(641,0,l),
(1137,0,l),
(1137,569,l)
);
}
);
};
guides = (
{
pos = (530,30);
},
{
pos = (530,110);
},
{
angle = 135;
pos = (522,-141);
},
{
pos = (523,211);
},
{
pos = (521,154);
}
);
layerId = "2AD682F6-F6C7-4738-913E-50B961B61BC3";
shapes = (
{
closed = 1;
nodes = (
(86,203,o),
(71,377,o),
(158,466,cs),
(268,578,o),
(610,377,o),
(487,-1,c),
(606,61,l),
(719,424,o),
(297,714,o),
(96,496,cs),
(-60,327,o),
(33,81,o),
(185,14,c),
(248,79,l)
);
},
{
closed = 1;
nodes = (
(185,14,l),
(374,-57,o),
(504,133,o),
(441,211,cs),
(331,347,o),
(198,230,o),
(170,211,c),
(227,154,l),
(317,225,o),
(378,176,o),
(390,159,cs),
(420,116,o),
(335,16,o),
(237,87,c)
);
},
{
closed = 1;
nodes = (
(487,-1,l),
(791,-1,l),
(835,293,l),
(759,368,l),
(712,61,l),
(519,61,l)
);
}
);
width = 850;
}
);
unicode = 3350;
},
{
glyphname = gamlym;
lastChange = "2025-02-12 18:33:23 +0000";
layers = (
{
anchors = (
{
name = b.uni0D00;
pos = (532,0);
}
);
background = {
shapes = (
{
closed = 1;
nodes = (
(624,581,o),
(565,561,o),
(519,524,cs),
(462,478,o),
(437,406,o),
(437,303,cs),
(437,264,ls),
(437,204,o),
(432,161,o),
(407,137,cs),
(394,124,o),
(375,117,o),
(349,117,cs),
(294,117,o),
(245,154,o),
(245,273,cs),
(245,353,o),
(271,414,o),
(333,500,c),
(194,581,l),
(105,479,o),
(55,395,o),
(55,269,cs),
(55,103,o),
(162,-12,o),
(345,-12,cs),
(439,-12,o),
(502,7,o),
(548,44,cs),
(604,89,o),
(628,165,o),
(628,275,cs),
(628,305,ls),
(628,365,o),
(633,408,o),
(658,432,cs),
(671,445,o),
(690,452,o),
(716,452,cs),
(771,452,o),
(820,415,o),
(820,296,cs),
(820,216,o),
(794,155,o),
(732,69,c),
(871,-12,l),
(960,90,o),
(1010,174,o),
(1010,300,cs),
(1010,466,o),
(902,581,o),
(720,581,cs)
);
}
);
};
guides = (
{
angle = 135;
pos = (655,295);
},
{
pos = (503,0);
},
{
pos = (503,80);
}
);
layerId = "2AD682F6-F6C7-4738-913E-50B961B61BC3";
shapes = (
{
closed = 1;
nodes = (
(875,79,l),
(1182,117,o),
(970,583,o),
(719,316,cs),
(714,310,o),
(710,305,o),
(702,296,cs),
(681,271,o),
(642,226,o),
(576,156,cs),
(259,-182,o),
(-192,147,o),
(121,564,c),
(190,496,l),
(-4,227,o),
(195,37,o),
(368,99,cs),
(452,129,o),
(513,213,o),
(571,292,cs),
(591,319,o),
(612,346,o),
(630,368,cs),
(727,483,o),
(852,509,o),
(993,437,cs),
(1161,351,o),
(1185,72,o),
(952,2,c)
);
}
);
width = 1138;
}
);
unicode = 3351;
},
{
glyphname = ghamlym;
lastChange = "2025-02-13 13:52:07 +0000";
layers = (
{
anchors = (
{
name = b.uni0D00;
pos = (631,0);
}
);
background = {
shapes = (
{
closed = 1;
nodes = (
(-2,581,o),
(-108,505,o),
(-108,379,cs),
(-108,306,o),
(-75,246,o),
(-27,196,c),
(117,254,l),
(93,292,o),
(77,328,o),
(77,369,cs),
(77,419,o),
(101,454,o),
(152,454,cs),
(204,454,o),
(225,414,o),
(225,372,cs),
(225,332,o),
(208,301,o),
(194,279,c),
(257,209,l),
(607,209,l),
(597,335,l),
(386,335,l),
(383,285,l),
(396,314,o),
(403,352,o),
(403,382,cs),
(403,477,o),
(329,581,o),
(150,581,cs)
);
},
{
closed = 1;
nodes = (
(1156,569,l),
(1156,128,l),
(659,128,l),
(659,209,l),
(1058,209,l),
(1058,296,ls),
(1058,405,o),
(1030,469,o),
(977,516,cs),
(928,559,o),
(861,581,o),
(767,581,cs),
(679,581,o),
(610,560,o),
(559,517,cs),
(506,472,o),
(473,408,o),
(473,297,cs),
(473,0,l),
(1343,0,l),
(1343,569,l)
);
},
{
closed = 1;
nodes = (
(834,453,o),
(872,408,o),
(872,339,cs),
(872,335,l),
(659,335,l),
(659,339,ls),
(659,405,o),
(692,453,o),
(766,453,cs)
);
}
);
};
guides = (
{
pos = (492,137);
},
{
pos = (492,217);
},
{
angle = 45;
pos = (215,249);
}
);
layerId = "2AD682F6-F6C7-4738-913E-50B961B61BC3";
shapes = (
{
closed = 1;
nodes = (
(86,266,o),
(96,349,o),
(153,386,cs),
(257,453,o),
(427,349,o),
(343,155,c),
(440,197,l),
(544,418,o),
(255,534,o),
(105,432,cs),
(-7,356,o),
(-22,205,o),
(104,137,c),
(183,217,l)
);
},
{
closed = 1;
nodes = (
(767,0,l),
(1418,-1,l),
(1499,490,l),
(1410,579,l),
(1329,61,l),
(768,61,l)
);
},
{
closed = 1;
nodes = (
(1104,383,l),
(1034,549,o),
(766,622,o),
(654,525,cs),
(480,374,o),
(639,109,o),
(767,0,c),
(947,0,l),
(841,39,o),
(605,393,o),
(704,474,cs),
(783,539,o),
(916,475,o),
(988,349,c)
);
},
{
closed = 1;
nodes = (
(1064,429,l),
(371,221,l),
(343,155,l),
(1104,383,l)
);
}
);
width = 1514;
}
);
unicode = 3352;
},
{
glyphname = ngamlym;
lastChange = "2025-02-13 18:28:36 +0000";
layers = (
{
background = {
shapes = (
{
closed = 1;
nodes = (
(218,581,o),
(49,460,o),
(49,244,cs),
(49,63,o),
(155,-12,o),
(294,-12,cs),
(448,-12,o),
(522,61,o),
(522,180,cs),
(522,285,o),
(460,359,o),
(332,359,cs),
(246,359,o),
(187,321,o),
(134,276,c),
(155,156,l),
(209,215,o),
(238,240,o),
(283,240,cs),
(319,240,o),
(341,216,o),
(341,173,cs),
(341,127,o),
(322,108,o),
(289,108,cs),
(251,108,o),
(218,135,o),
(218,240,cs),
(218,244,ls),
(218,380,o),
(317,453,o),
(434,453,cs),
(485,453,o),
(521,443,o),
(545,424,cs),
(578,397,o),
(590,359,o),
(590,273,cs),
(590,0,l),
(777,0,l),
(777,239,l),
(746,390,l),
(720,480,l),
(645,553,o),
(563,581,o),
(438,581,cs)
);
},
{
closed = 1;
nodes = (
(775,581,o),
(649,488,o),
(606,326,c),
(601,241,l),
(601,70,l),
(777,70,l),
(777,187,ls),
(777,277,o),
(782,344,o),
(820,392,cs),
(850,430,o),
(891,453,o),
(951,453,cs),
(1008,453,o),
(1036,430,o),
(1036,397,cs),
(1036,381,o),
(1030,369,o),
(1020,361,cs),
(1004,348,o),
(981,343,o),
(938,343,cs),
(904,343,l),
(904,217,l),
(942,217,ls),
(985,217,o),
(1006,214,o),
(1024,204,cs),
(1039,195,o),
(1047,182,o),
(1047,164,cs),
(1047,129,o),
(1024,116,o),
(977,116,cs),
(952,116,o),
(929,120,o),
(907,126,c),
(884,2,l),
(916,-5,o),
(960,-12,o),
(1008,-12,cs),
(1155,-12,o),
(1233,49,o),
(1233,148,cs),
(1233,211,o),
(1202,262,o),
(1129,287,c),
(1130,282,l),
(1199,314,o),
(1222,358,o),
(1222,419,cs),
(1222,508,o),
(1145,581,o),
(969,581,cs)
);
}
);
};
guides = (
{
angle = 135;
pos = (602,91);
},
{
pos = (512,67);
},
{
pos = (512,147);
}
);
layerId = "2AD682F6-F6C7-4738-913E-50B961B61BC3";
shapes = (
{
closed = 1;
nodes = (
(422,525,l),
(318,594,o),
(184,591,o),
(97,497,cs),
(-63,323,o),
(35,77,o),
(192,11,c),
(257,79,l),
(97,201,o),
(82,379,o),
(167,465,cs),
(215,514,o),
(301,503,o),
(378,445,c)
);
},
{
closed = 1;
nodes = (
(186,14,l),
(377,-60,o),
(517,129,o),
(450,212,cs),
(337,352,o),
(193,225,o),
(171,211,c),
(231,150,l),
(320,223,o),
(377,178,o),
(391,158,cs),
(418,119,o),
(341,13,o),
(240,91,c)
);
},
{
closed = 1;
nodes = (
(679,483,l),
(835,457,o),
(841,324,o),
(773,229,c),
(915,344,o),
(989,160,o),
(829,81,c),
(883,14,l),
(1143,164,o),
(1017,355,o),
(858,313,c),
(977,479,o),
(775,540,o),
(687,548,c)
);
},
{
closed = 1;
nodes = (
(372,449,l),
(462,392,o),
(509,269,o),
(546,147,c),
(626,67,l),
(584,143,o),
(518,509,o),
(679,483,c),
(687,548,l),
(517,555,o),
(502,356,o),
(509,355,c),
(534,274,o),
(548,431,o),
(416,529,c)
);
}
);
width = 1047;
}
);
unicode = 3353;
},
{
glyphname = camlym;
lastChange = "2025-02-13 17:57:53 +0000";
layers = (
{
anchors = (
{
name = b.uni0D00;
pos = (630,0);
}
);
background = {
shapes = (
{
closed = 1;
nodes = (
(915,569,l),
(915,128,l),
(668,128,l),
(694,102,l),
(726,138,o),
(744,179,o),
(744,226,cs),
(744,297,o),
(695,400,o),
(504,400,cs),
(339,400,o),
(258,331,o),
(258,212,cs),
(258,201,o),
(259,175,o),
(262,158,c),
(445,173,l),
(444,182,o),
(443,189,o),
(443,199,cs),
(443,246,o),
(464,273,o),
(503,273,cs),
(549,273,o),
(566,242,o),
(566,203,cs),
(566,161,o),
(546,128,o),
(508,100,c),
(595,128,l),
(124,128,l),
(124,0,l),
(1102,0,l),
(1102,569,l)
);
}
);
};
guides = (
{
angle = 135;
pos = (152,217);
},
{
angle = 45;
pos = (67,202);
},
{
pos = (629,350);
},
{
pos = (989,275);
}
);
layerId = "2AD682F6-F6C7-4738-913E-50B961B61BC3";
shapes = (
{
closed = 1;
nodes = (
(-74,61,l),
(-104,0,l),
(877,-1,l),
(958,490,l),
(869,579,l),
(788,61,l)
);
},
{
closed = 1;
nodes = (
(95,275,l),
(228,428,o),
(482,337,o),
(280,61,c),
(353,61,l),
(710,275,o),
(280,558,o),
(19,350,c)
);
},
{
closed = 1;
nodes = (
(336,0,l),
(353,214,l),
(336,86,o),
(202,57,o),
(-74,61,c),
(-135,0,l)
);
}
);
width = 962;
}
);
unicode = 3354;
},
{
glyphname = chamlym;
lastChange = "2025-02-13 18:03:46 +0000";
layers = (
{
anchors = (
{
name = b.uni0D00;
pos = (1021,0);
}
);
background = {
shapes = (
{
closed = 1;
nodes = (
(490,400,o),
(409,331,o),
(409,212,cs),
(409,201,o),
(410,175,o),
(413,158,c),
(596,173,l),
(595,182,o),
(594,189,o),
(594,199,cs),
(594,246,o),
(615,273,o),
(654,273,cs),
(700,273,o),
(717,242,o),
(717,203,cs),
(717,161,o),
(697,128,o),
(659,100,c),
(746,128,l),
(275,128,l),
(275,0,l),
(1170,0,l),
(1066,128,l),
(819,128,l),
(845,102,l),
(877,138,o),
(895,179,o),
(895,226,cs),
(895,297,o),
(846,400,o),
(655,400,cs)
);
},
{
closed = 1;
nodes = (
(1061,581,o),
(964,426,o),
(964,284,cs),
(964,197,o),
(995,134,o),
(1063,65,c),
(1100,0,l),
(1175,0,l),
(1234,84,l),
(1185,146,o),
(1154,203,o),
(1154,281,cs),
(1154,388,o),
(1224,451,o),
(1358,451,cs),
(1484,451,o),
(1558,396,o),
(1569,329,c),
(1572,324,o),
(1566,310,o),
(1568,305,c),
(1571,285,o),
(1573,262,o),
(1573,242,cs),
(1573,153,o),
(1547,116,o),
(1497,116,cs),
(1460,116,o),
(1434,143,o),
(1434,205,cs),
(1434,265,o),
(1460,295,o),
(1508,295,cs),
(1561,295,o),
(1594,251,o),
(1604,203,c),
(1677,205,l),
(1669,305,o),
(1587,410,o),
(1462,410,cs),
(1330,410,o),
(1254,331,o),
(1254,205,cs),
(1254,89,o),
(1323,-12,o),
(1494,-12,cs),
(1664,-12,o),
(1756,77,o),
(1756,237,cs),
(1756,418,o),
(1627,581,o),
(1344,581,cs)
);
}
);
};
layerId = "2AD682F6-F6C7-4738-913E-50B961B61BC3";
shapes = (
{
closed = 1;
nodes = (
(1295,11,l),
(1706,192,o),
(1186,766,o),
(856,512,cs),
(698,390,o),
(728,97,o),
(910,-4,c),
(1005,-4,l),
(873,81,o),
(796,379,o),
(909,465,cs),
(1105,615,o),
(1525,217,o),
(1230,79,c)
);
},
{
closed = 1;
nodes = (
(1150,43,o),
(1068,118,o),
(1096,158,cs),
(1110,178,o),
(1167,223,o),
(1256,150,c),
(1316,211,l),
(1294,225,o),
(1150,352,o),
(1037,212,cs),
(970,129,o),
(1110,-60,o),
(1301,14,c),
(1247,88,l)
);
},
{
closed = 1;
nodes = (
(245,273,l),
(378,426,o),
(509,330,o),
(503,211,c),
(503,58,l),
(860,272,o),
(430,555,o),
(169,347,c)
);
},
{
closed = 1;
nodes = (
(503,0,l),
(503,211,l),
(486,83,o),
(352,54,o),
(76,58,c),
(15,0,l)
);
},
{
closed = 1;
nodes = (
(914,58,l),
(76,58,l),
(46,-3,l),
(915,-4,l)
);
}
);
width = 1461;
}
);
unicode = 3355;
},
{
glyphname = jamlym;
lastChange = "2025-02-13 13:14:18 +0000";
layers = (
{
anchors = (
{
name = b.uni0D00;
pos = (604,0);
}
);
background = {
shapes = (
{
closed = 1;
nodes = (
(209,581,o),
(105,511,o),
(105,396,cs),
(105,293,o),
(180,247,o),
(289,247,cs),
(428,247,o),
(468,307,o),
(468,369,cs),
(468,447,o),
(406,480,o),
(318,480,cs),
(261,480,o),
(213,467,o),
(165,439,c),
(215,407,l),
(238,417,o),
(260,420,o),
(281,420,cs),
(309,420,o),
(326,405,o),
(326,380,cs),
(326,361,o),
(315,344,o),
(286,344,cs),
(263,344,o),
(244,356,o),
(244,393,cs),
(244,408,o),
(247,422,o),
(255,433,cs),
(257,437,o),
(259,445,o),
(263,448,cs),
(288,463,o),
(338,472,o),
(398,472,cs),
(451,472,o),
(485,459,o),
(509,439,cs),
(545,409,o),
(552,364,o),
(552,296,cs),
(552,269,l),
(718,269,l),
(718,333,ls),
(718,387,o),
(728,415,o),
(743,432,cs),
(758,448,o),
(779,455,o),
(813,455,cs),
(882,455,o),
(920,415,o),
(920,357,cs),
(920,309,o),
(902,281,o),
(860,264,cs),
(818,247,o),
(780,244,o),
(682,244,cs),
(339,244,ls),
(250,244,o),
(193,240,o),
(149,212,cs),
(119,193,o),
(99,164,o),
(99,118,cs),
(99,20,o),
(182,-12,o),
(290,-12,cs),
(389,-12,o),
(493,2,o),
(625,44,cs),
(717,73,o),
(766,105,o),
(797,128,c),
(796,105,l),
(830,134,o),
(855,149,o),
(885,149,cs),
(921,149,o),
(929,133,o),
(929,118,cs),
(929,100,o),
(915,89,o),
(885,89,cs),
(851,89,o),
(838,108,o),
(838,134,cs),
(838,174,o),
(878,207,o),
(910,222,c),
(766,231,l),
(730,212,o),
(698,176,o),
(698,122,cs),
(698,53,o),
(742,-12,o),
(892,-12,cs),
(1011,-12,o),
(1074,31,o),
(1074,113,cs),
(1074,212,o),
(985,237,o),
(904,237,cs),
(855,237,o),
(743,177,o),
(698,158,c),
(632,152,o),
(557,138,o),
(482,121,cs),
(401,103,o),
(344,97,o),
(304,97,cs),
(272,97,o),
(258,104,o),
(258,118,cs),
(258,124,o),
(261,129,o),
(266,132,cs),
(272,136,o),
(282,137,o),
(300,137,cs),
(466,137,ls),
(504,137,o),
(549,138,o),
(601,142,cs),
(763,153,l),
(990,181,l),
(1064,218,o),
(1100,278,o),
(1100,370,cs),
(1100,474,o),
(1024,581,o),
(834,581,cs),
(745,581,o),
(674,560,o),
(617,507,c),
(644,515,l),
(593,549,o),
(532,581,o),
(397,581,cs)
);
}
);
};
guides = (
{
angle = 45;
pos = (488,-282);
},
{
pos = (513,-162);
},
{
pos = (513,-82);
}
);
layerId = "2AD682F6-F6C7-4738-913E-50B961B61BC3";
shapes = (
{
closed = 1;
nodes = (
(102,252,o),
(93,406,o),
(158,472,cs),
(248,564,o),
(452,471,o),
(464,183,c),
(544,202,l),
(583,460,o),
(253,684,o),
(85,502,cs),
(-54,349,o),
(36,148,o),
(175,96,c),
(232,155,l)
);
},
{
closed = 1;
nodes = (
(159,101,l),
(317,37,o),
(453,189,o),
(391,267,cs),
(293,388,o),
(172,291,o),
(163,286,c),
(187,262,l),
(243,206,l),
(388,333,o),
(337,62,o),
(209,173,c)
);
},
{
closed = 1;
nodes = (
(858,252,l),
(874,331,o),
(865,509,o),
(659,509,cs),
(531,509,o),
(464,353,o),
(464,183,c),
(531,112,l),
(540,103,l),
(541,148,o),
(589,446,o),
(664,455,cs),
(746,465,o),
(745,326,o),
(741,260,c)
);
},
{
closed = 1;
nodes = (
(729,110,o),
(538,74,o),
(369,42,cs),
(220,14,o),
(85,-11,o),
(103,-105,cs),
(132,-256,o),
(428,-276,o),
(704,-38,c),
(682,35,l),
(625,24,o),
(579,-13,o),
(534,-49,cs),
(478,-96,o),
(422,-132,o),
(356,-141,cs),
(224,-159,o),
(170,-77,o),
(308,-50,cs),
(477,-17,o),
(827,62,o),
(858,256,c),
(741,263,l)
);
},
{
closed = 1;
nodes = (
(782,30,o),
(829,-71,o),
(813,-93,cs),
(798,-115,o),
(760,-145,o),
(689,-81,c),
(608,-162,l),
(616,-165,o),
(779,-262,o),
(876,-141,cs),
(939,-64,o),
(801,89,o),
(644,24,c),
(694,-48,l)
);
}
);
width = 907;
}
);
unicode = 3356;
},
{
glyphname = jhamlym;
lastChange = "2025-02-13 09:37:47 +0000";
layers = (
{
anchors = (
{
name = b.uni0D00;
pos = (960,0);
}
);
background = {
shapes = (
{
closed = 1;
nodes = (
(692,581,o),
(624,564,o),
(549,528,c),
(516,497,l),
(409,439,o),
(342,354,o),
(342,229,cs),
(342,73,o),
(434,-12,o),
(599,-12,cs),
(765,-12,o),
(855,63,o),
(855,226,cs),
(855,364,o),
(792,442,o),
(689,498,c),
(655,532,l),
(584,566,o),
(512,581,o),
(421,581,cs),
(131,581,o),
(44,417,o),
(44,284,cs),
(44,154,o),
(103,65,o),
(190,-12,c),
(326,68,l),
(265,141,o),
(233,201,o),
(233,281,cs),
(233,384,o),
(288,457,o),
(436,457,cs),
(464,457,o),
(491,453,o),
(516,445,cs),
(546,435,l),
(617,402,o),
(668,325,o),
(668,230,cs),
(668,141,o),
(635,116,o),
(598,116,cs),
(562,116,o),
(529,144,o),
(529,230,cs),
(529,322,o),
(581,399,o),
(657,434,c),
(689,444,ls),
(717,453,o),
(748,457,o),
(781,457,cs),
(826,457,o),
(862,445,o),
(886,424,cs),
(923,393,o),
(939,336,o),
(939,260,cs),
(939,256,ls),
(939,162,o),
(961,89,o),
(1017,43,cs),
(1063,6,o),
(1122,-12,o),
(1192,-12,cs),
(1284,-12,o),
(1345,12,o),
(1400,68,c),
(1384,63,l),
(1444,11,o),
(1500,-12,o),
(1589,-12,cs),
(1770,-12,o),
(1876,108,o),
(1876,270,cs),
(1876,395,o),
(1826,479,o),
(1737,581,c),
(1598,500,l),
(1660,414,o),
(1686,353,o),
(1686,274,cs),
(1686,158,o),
(1626,117,o),
(1568,117,cs),
(1541,117,o),
(1523,127,o),
(1511,141,cs),
(1493,161,o),
(1486,189,o),
(1486,241,cs),
(1486,569,l),
(1299,569,l),
(1299,256,ls),
(1299,194,o),
(1295,161,o),
(1275,140,cs),
(1259,124,o),
(1242,117,o),
(1214,117,cs),
(1187,117,o),
(1171,126,o),
(1158,138,cs),
(1134,162,o),
(1129,201,o),
(1129,270,cs),
(1129,286,ls),
(1129,401,o),
(1092,476,o),
(1017,525,cs),
(960,562,o),
(889,581,o),
(792,581,cs)
);
}
);
};
layerId = "2AD682F6-F6C7-4738-913E-50B961B61BC3";
shapes = (
{
closed = 1;
nodes = (
(182,135,o),
(91,366,o),
(164,456,cs),
(298,617,o),
(716,412,o),
(539,150,c),
(644,77,l),
(872,357,o),
(347,768,o),
(88,484,cs),
(-61,318,o),
(39,70,o),
(197,-13,c),
(289,79,l)
);
},
{
closed = 1;
nodes = (
(461,229,o),
(529,497,o),
(704,456,cs),
(785,437,o),
(828,232,o),
(777,116,c),
(883,12,l),
(909,216,o),
(926,486,o),
(719,516,cs),
(533,544,o),
(460,425,o),
(373,297,c),
(447,189,l)
);
},
{
closed = 1;
nodes = (
(377,303,l),
(323,226,o),
(306,42,o),
(427,3,cs),
(513,-25,o),
(593,20,o),
(652,89,c),
(546,161,l),
(496,80,o),
(423,102,o),
(456,215,c)
);
},
{
closed = 1;
nodes = (
(859,34,l),
(868,26,l),
(885,27,l),
(886,53,o),
(974,428,o),
(1058,452,cs),
(1116,468,o),
(1123,379,o),
(1115,271,cs),
(1110,200,o),
(1068,59,o),
(1273,5,c),
(1271,73,l),
(1232,104,o),
(1239,142,o),
(1247,182,cs),
(1250,196,o),
(1253,211,o),
(1254,224,cs),
(1258,262,o),
(1261,300,o),
(1256,332,cs),
(1246,396,o),
(1228,531,o),
(1048,502,cs),
(922,482,o),
(874,358,o),
(814,206,cs),
(804,181,o),
(795,159,o),
(786,136,cs),
(783,129,o),
(779,121,o),
(777,116,c),
(852,41,l)
);
},
{
closed = 1;
nodes = (
(1243,14,l),
(1393,-41,o),
(1532,26,o),
(1532,275,c),
(1411,397,l),
(1409,80,o),
(1346,12,o),
(1241,95,c)
);
}
);
width = 1547;
}
);
unicode = 3357;
},
{
glyphname = nyamlym;
lastChange = "2025-02-13 11:41:45 +0000";
layers = (
{
anchors = (
{
name = b.uni0D00;
pos = (981,0);
}
);
background = {
shapes = (
{
closed = 1;
nodes = (
(333,581,o),
(164,460,o),
(164,244,cs),
(164,63,o),
(270,-12,o),
(409,-12,cs),
(563,-12,o),
(637,61,o),
(637,180,cs),
(637,285,o),
(575,359,o),
(447,359,cs),
(361,359,o),
(302,321,o),
(249,276,c),
(270,156,l),
(324,215,o),
(353,240,o),
(398,240,cs),
(434,240,o),
(456,216,o),
(456,173,cs),
(456,127,o),
(437,108,o),
(404,108,cs),
(366,108,o),
(333,135,o),
(333,240,cs),
(333,244,ls),
(333,380,o),
(432,453,o),
(549,453,cs),
(600,453,o),
(636,443,o),
(660,424,cs),
(693,397,o),
(705,359,o),
(705,273,cs),
(705,0,l),
(892,0,l),
(892,239,l),
(862,397,l),
(835,480,l),
(760,553,o),
(678,581,o),
(553,581,cs)
);
},
{
closed = 1;
nodes = (
(898,581,o),
(823,528,o),
(763,466,c),
(725,232,l),
(725,20,l),
(892,20,l),
(892,254,ls),
(892,348,o),
(906,395,o),
(942,425,cs),
(966,445,o),
(1000,457,o),
(1057,457,cs),
(1074,457,o),
(1125,454,o),
(1152,445,cs),
(1182,435,l),
(1253,402,o),
(1304,325,o),
(1304,230,cs),
(1304,141,o),
(1271,116,o),
(1234,116,cs),
(1198,116,o),
(1165,144,o),
(1165,230,cs),
(1165,322,o),
(1219,399,o),
(1295,434,c),
(1327,444,ls),
(1355,453,o),
(1386,457,o),
(1423,457,cs),
(1550,457,o),
(1608,391,o),
(1608,281,cs),
(1608,201,o),
(1574,138,o),
(1515,68,c),
(1650,-12,l),
(1738,65,o),
(1797,154,o),
(1797,284,cs),
(1797,426,o),
(1714,581,o),
(1434,581,cs),
(1342,581,o),
(1262,564,o),
(1187,528,c),
(1154,498,l),
(1047,440,o),
(978,354,o),
(978,229,cs),
(978,73,o),
(1070,-12,o),
(1235,-12,cs),
(1402,-12,o),
(1491,63,o),
(1491,226,cs),
(1491,364,o),
(1428,442,o),
(1325,498,c),
(1294,532,l),
(1223,566,o),
(1154,581,o),
(1064,581,cs)
);
}
);
};
guides = (
{
angle = 135;
pos = (618,-217);
},
{
pos = (492,5);
},
{
pos = (492,85);
}
);
layerId = "2AD682F6-F6C7-4738-913E-50B961B61BC3";
shapes = (
{
closed = 1;
nodes = (
(97,201,o),
(82,379,o),
(167,465,cs),
(277,577,o),
(545,465,o),
(558,111,c),
(614,162,l),
(686,433,o),
(301,718,o),
(97,497,cs),
(-63,323,o),
(35,77,o),
(192,11,c),
(257,79,l)
);
},
{
closed = 1;
nodes = (
(186,14,l),
(377,-60,o),
(517,129,o),
(450,212,cs),
(337,352,o),
(193,225,o),
(171,211,c),
(231,150,l),
(320,223,o),
(377,178,o),
(391,158,cs),
(418,119,o),
(341,13,o),
(240,91,c)
);
},
{
closed = 1;
nodes = (
(638,62,o),
(636,133,o),
(635,161,cs),
(632,290,o),
(629,375,o),
(718,447,cs),
(851,555,o),
(1127,419,o),
(948,153,c),
(1048,84,l),
(1263,357,o),
(897,738,o),
(654,488,cs),
(566,397,o),
(582,329,o),
(573,236,cs),
(566,172,o),
(589,197,o),
(558,111,c),
(638,31,l)
);
},
{
closed = 1;
nodes = (
(867,265,o),
(981,475,o),
(1150,449,cs),
(1293,427,o),
(1246,181,o),
(1189,118,c),
(1280,27,l),
(1440,154,o),
(1394,494,o),
(1153,510,cs),
(973,522,o),
(869,411,o),
(777,288,c),
(851,202,l)
);
},
{
closed = 1;
nodes = (
(783,297,l),
(692,173,o),
(721,55,o),
(834,7,cs),
(914,-27,o),
(991,18,o),
(1051,88,c),
(952,161,l),
(901,83,o),
(823,105,o),
(856,218,c)
);
}
);
width = 1389;
}
);
unicode = 3358;
},
{
glyphname = ttamlym;
lastChange = "2025-02-13 17:43:36 +0000";
layers = (
{
anchors = (
{
name = b.uni0D00;
pos = (328,0);
}
);
background = {
shapes = (
{
closed = 1;
nodes = (
(122,581,o),
(31,503,o),
(31,398,cs),
(31,341,o),
(50,302,o),
(83,275,cs),
(133,234,o),
(204,223,o),
(307,223,cs),
(330,223,ls),
(382,223,o),
(405,220,o),
(421,205,cs),
(428,198,o),
(433,188,o),
(433,175,cs),
(433,140,o),
(404,117,o),
(317,117,cs),
(237,117,o),
(178,131,o),
(88,177,c),
(17,59,l),
(103,15,o),
(206,-12,o),
(334,-12,cs),
(537,-12,o),
(625,64,o),
(625,172,cs),
(625,230,o),
(605,272,o),
(569,301,cs),
(524,337,o),
(466,353,o),
(351,353,cs),
(332,353,ls),
(284,353,o),
(255,356,o),
(240,366,cs),
(230,373,o),
(223,384,o),
(223,399,cs),
(223,430,o),
(250,452,o),
(328,452,cs),
(418,452,o),
(483,430,o),
(560,396,c),
(633,509,l),
(565,545,o),
(457,581,o),
(317,581,cs)
);
}
);
};
guides = (
{
pos = (629,119);
},
{
pos = (989,44);
},
{
angle = 45;
pos = (480,489);
}
);
layerId = "2AD682F6-F6C7-4738-913E-50B961B61BC3";
shapes = (
{
closed = 1;
nodes = (
(179,368,l),
(-9,504,o),
(296,609,o),
(471,337,c),
(553,419,l),
(345,774,o),
(-149,468,o),
(69,302,c)
);
},
{
closed = 1;
nodes = (
(31,44,l),
(138,-33,o),
(357,-35,o),
(447,58,cs),
(467,81,o),
(479,99,o),
(486,115,c),
(397,131,l),
(392,118,o),
(386,111,o),
(384,109,cs),
(314,30,o),
(176,62,o),
(110,123,c)
);
},
{
closed = 1;
nodes = (
(64,307,l),
(106,271,o),
(179,254,o),
(245,239,cs),
(342,217,o),
(421,198,o),
(395,127,c),
(484,111,l),
(523,221,o),
(405,269,o),
(293,315,cs),
(248,333,o),
(206,350,o),
(171,373,c)
);
}
);
width = 568;
}
);
unicode = 3359;
},
{
glyphname = tthamlym;
lastChange = "2025-02-13 17:25:37 +0000";
layers = (
{
anchors = (
{
name = b.uni0D00;
pos = (398,0);
}
);
background = {
shapes = (
{
closed = 1;
nodes = (
(182,581,o),
(58,464,o),
(58,287,cs),
(58,122,o),
(164,-12,o),
(398,-12,cs),
(615,-12,o),
(738,106,o),
(738,284,cs),
(738,462,o),
(616,581,o),
(396,581,cs)
);
},
{
closed = 1;
nodes = (
(300,118,o),
(247,183,o),
(247,286,cs),
(247,391,o),
(302,451,o),
(398,451,cs),
(499,451,o),
(549,385,o),
(549,286,cs),
(549,186,o),
(500,118,o),
(398,118,cs)
);
}
);
};
layerId = "2AD682F6-F6C7-4738-913E-50B961B61BC3";
shapes = (
{
closed = 1;
nodes = (
(52,528,o),
(-19,382,o),
(32,236,cs),
(88,71,o),
(283,-39,o),
(477,15,cs),
(591,46,o),
(649,192,o),
(578,351,cs),
(502,522,o),
(299,592,o),
(182,562,cs)
);
},
{
closed = 1;
nodes = (
(289,551,o),
(403,466,o),
(461,348,cs),
(504,260,o),
(537,111,o),
(442,66,cs),
(333,15,o),
(218,124,o),
(156,235,cs),
(104,329,o),
(92,472,o),
(188,510,cs)
);
}
);
width = 624;
}
);
unicode = 3360;
},
{
glyphname = ddamlym;
lastChange = "2025-02-13 14:19:13 +0000";
layers = (
{
anchors = (
{
name = b.uni0D00;
pos = (715,0);
}
);
background = {
shapes = (
{
closed = 1;
nodes = (
(785,-12,o),
(846,12,o),
(902,68,c),
(886,63,l),
(946,11,o),
(1002,-12,o),
(1091,-12,cs),
(1272,-12,o),
(1378,108,o),
(1378,270,cs),
(1378,395,o),
(1328,479,o),
(1239,581,c),
(1100,500,l),
(1162,414,o),
(1188,353,o),
(1188,274,cs),
(1188,158,o),
(1128,117,o),
(1070,117,cs),
(1043,117,o),
(1025,127,o),
(1013,141,cs),
(995,161,o),
(988,189,o),
(988,241,cs),
(988,569,l),
(801,569,l),
(801,256,ls),
(801,194,o),
(797,161,o),
(776,140,cs),
(760,124,o),
(742,117,o),
(714,117,cs),
(686,117,o),
(669,126,o),
(656,138,cs),
(631,162,o),
(626,201,o),
(626,276,cs),
(626,291,ls),
(626,409,o),
(601,480,o),
(545,525,cs),
(499,562,o),
(438,581,o),
(343,581,cs),
(160,581,o),
(53,466,o),
(53,300,cs),
(53,174,o),
(103,90,o),
(192,-12,c),
(331,69,l),
(269,155,o),
(243,216,o),
(243,296,cs),
(243,415,o),
(292,452,o),
(347,452,cs),
(373,452,o),
(392,445,o),
(405,432,cs),
(430,408,o),
(435,365,o),
(435,305,cs),
(435,266,ls),
(435,158,o),
(458,89,o),
(515,43,cs),
(561,6,o),
(621,-12,o),
(692,-12,cs)
);
}
);
};
layerId = "2AD682F6-F6C7-4738-913E-50B961B61BC3";
shapes = (
{
closed = 1;
nodes = (
(440,504,l),
(336,604,o),
(191,595,o),
(99,502,cs),
(-88,316,o),
(74,73,o),
(234,-5,c),
(317,77,l),
(226,133,o),
(30,352,o),
(140,460,cs),
(207,526,o),
(291,495,o),
(360,420,c)
);
},
{
closed = 1;
nodes = (
(795,417,l),
(842,278,o),
(920,26,o),
(1106,54,cs),
(1346,89,o),
(1367,435,o),
(1175,515,c),
(1093,432,l),
(1207,362,o),
(1216,117,o),
(1103,117,cs),
(1005,117,o),
(929,340,o),
(899,450,cs),
(893,473,o),
(889,490,o),
(884,504,c)
);
},
{
closed = 1;
nodes = (
(719,5,l),
(867,28,o),
(967,179,o),
(884,504,c),
(795,416,l),
(861,165,o),
(784,65,o),
(692,75,c)
);
},
{
closed = 1;
nodes = (
(360,420,l),
(456,293,o),
(386,-28,o),
(719,5,c),
(692,75,l),
(512,109,o),
(559,380,o),
(440,504,c)
);
}
);
width = 1319;
}
);
unicode = 3361;
},
{
glyphname = ddhamlym;
lastChange = "2025-02-13 14:23:00 +0000";
layers = (
{
anchors = (
{
name = b.uni0D00;
pos = (789,0);
}
);
background = {
shapes = (
{
closed = 1;
nodes = (
(784,-12,o),
(845,12,o),
(901,68,c),
(987,241,l),
(987,569,l),
(800,569,l),
(800,256,ls),
(800,194,o),
(796,161,o),
(775,140,cs),
(759,124,o),
(741,117,o),
(713,117,cs),
(685,117,o),
(668,126,o),
(655,138,cs),
(630,162,o),
(625,201,o),
(625,276,cs),
(625,291,ls),
(625,409,o),
(600,480,o),
(544,525,cs),
(498,562,o),
(437,581,o),
(342,581,cs),
(159,581,o),
(52,466,o),
(52,300,cs),
(52,174,o),
(102,90,o),
(191,-12,c),
(330,69,l),
(268,155,o),
(242,216,o),
(242,296,cs),
(242,415,o),
(291,452,o),
(346,452,cs),
(372,452,o),
(391,445,o),
(404,432,cs),
(429,408,o),
(434,365,o),
(434,305,cs),
(434,266,ls),
(434,158,o),
(457,89,o),
(514,43,cs),
(560,6,o),
(620,-12,o),
(691,-12,cs)
);
},
{
closed = 1;
nodes = (
(1129,581,o),
(1055,508,o),
(1055,389,cs),
(1055,284,o),
(1117,210,o),
(1245,210,cs),
(1331,210,o),
(1390,248,o),
(1443,293,c),
(1422,413,l),
(1368,354,o),
(1339,329,o),
(1294,329,cs),
(1258,329,o),
(1236,353,o),
(1236,396,cs),
(1236,442,o),
(1255,461,o),
(1288,461,cs),
(1326,461,o),
(1359,434,o),
(1359,329,cs),
(1359,325,ls),
(1359,189,o),
(1260,116,o),
(1143,116,cs),
(1092,116,o),
(1056,126,o),
(1032,145,cs),
(999,172,o),
(987,210,o),
(987,296,cs),
(987,549,l),
(810,549,l),
(810,330,l),
(857,89,l),
(932,16,o),
(1014,-12,o),
(1139,-12,cs),
(1359,-12,o),
(1528,109,o),
(1528,325,cs),
(1528,506,o),
(1422,581,o),
(1283,581,cs)
);
}
);
};
layerId = "2AD682F6-F6C7-4738-913E-50B961B61BC3";
shapes = (
{
closed = 1;
nodes = (
(440,504,l),
(336,604,o),
(191,595,o),
(99,502,cs),
(-88,316,o),
(74,73,o),
(234,-5,c),
(317,77,l),
(226,133,o),
(30,352,o),
(140,460,cs),
(207,526,o),
(291,495,o),
(360,420,c)
);
},
{
closed = 1;
nodes = (
(795,417,l),
(842,278,o),
(918,53,o),
(1106,54,cs),
(1408,55,o),
(1486,458,o),
(1255,554,c),
(1180,484,l),
(1373,380,o),
(1260,116,o),
(1103,117,cs),
(1005,118,o),
(929,340,o),
(899,450,cs),
(893,473,o),
(889,490,o),
(884,504,c)
);
},
{
closed = 1;
nodes = (
(719,5,l),
(867,28,o),
(967,179,o),
(884,504,c),
(795,416,l),
(861,165,o),
(784,65,o),
(692,75,c)
);
},
{
closed = 1;
nodes = (
(360,420,l),
(456,293,o),
(386,-28,o),
(719,5,c),
(692,75,l),
(512,109,o),
(559,380,o),
(440,504,c)
);
},
{
closed = 1;
nodes = (
(1255,554,l),
(1060,627,o),
(895,456,o),
(973,357,cs),
(1081,219,o),
(1216,338,o),
(1244,357,c),
(1187,414,l),
(1097,343,o),
(1036,392,o),
(1024,409,cs),
(994,452,o),
(1075,545,o),
(1180,484,c)
);
}
);
width = 1388;
}
);
unicode = 3362;
},
{
glyphname = nnamlym;
lastChange = "2025-02-13 13:59:00 +0000";
layers = (
{
anchors = (
{
name = b.uni0D00;
pos = (835,0);
}
);
background = {
shapes = (
{
closed = 1;
nodes = (
(259,581,o),
(90,460,o),
(90,245,cs),
(90,63,o),
(196,-12,o),
(335,-12,cs),
(489,-12,o),
(563,61,o),
(563,179,cs),
(563,285,o),
(501,359,o),
(373,359,cs),
(287,359,o),
(228,321,o),
(175,276,c),
(196,156,l),
(250,215,o),
(279,240,o),
(324,240,cs),
(360,240,o),
(382,216,o),
(382,173,cs),
(382,127,o),
(363,108,o),
(330,108,cs),
(292,108,o),
(259,135,o),
(259,240,cs),
(259,244,ls),
(259,380,o),
(358,453,o),
(475,453,cs),
(526,453,o),
(562,443,o),
(586,424,cs),
(619,397,o),
(631,359,o),
(631,273,cs),
(631,0,l),
(818,0,l),
(818,305,ls),
(818,369,o),
(826,405,o),
(846,427,cs),
(861,443,o),
(881,452,o),
(909,452,cs),
(938,452,o),
(959,444,o),
(973,429,cs),
(993,408,o),
(1001,373,o),
(1001,313,cs),
(1001,0,l),
(1188,0,l),
(1188,328,ls),
(1188,380,o),
(1195,408,o),
(1213,428,cs),
(1225,442,o),
(1243,452,o),
(1270,452,cs),
(1328,452,o),
(1388,411,o),
(1388,295,cs),
(1388,216,o),
(1362,155,o),
(1300,69,c),
(1439,-12,l),
(1528,90,o),
(1578,174,o),
(1578,299,cs),
(1578,461,o),
(1472,581,o),
(1291,581,cs),
(1202,581,o),
(1146,558,o),
(1086,506,c),
(1102,499,l),
(1043,561,o),
(987,581,o),
(909,581,cs),
(817,581,o),
(760,553,o),
(712,502,c),
(761,480,l),
(686,553,o),
(604,581,o),
(479,581,cs)
);
}
);
};
layerId = "2AD682F6-F6C7-4738-913E-50B961B61BC3";
shapes = (
{
closed = 1;
nodes = (
(125,157,o),
(69,359,o),
(162,456,cs),
(294,594,o),
(514,381,o),
(527,113,c),
(611,28,l),
(653,572,o),
(277,679,o),
(109,496,cs),
(-37,337,o),
(-9,107,o),
(167,15,c),
(253,78,l)
);
},
{
closed = 1;
nodes = (
(616,85,o),
(624,430,o),
(735,444,cs),
(823,455,o),
(848,215,o),
(825,107,c),
(905,25,l),
(980,381,o),
(908,527,o),
(730,527,cs),
(591,527,o),
(533,295,o),
(527,113,c),
(611,28,l)
);
},
{
closed = 1;
nodes = (
(932,155,o),
(964,396,o),
(1059,363,cs),
(1135,337,o),
(1145,140,o),
(1042,73,c),
(1119,-5,l),
(1263,98,o),
(1268,387,o),
(1062,419,cs),
(945,437,o),
(908,332,o),
(868,217,cs),
(855,180,o),
(841,140,o),
(825,106,c),
(905,25,l)
);
},
{
closed = 1;
nodes = (
(167,15,l),
(362,-58,o),
(527,113,o),
(449,212,cs),
(341,350,o),
(206,231,o),
(178,212,c),
(235,155,l),
(325,226,o),
(386,177,o),
(398,160,cs),
(428,117,o),
(347,24,o),
(242,85,c)
);
}
);
width = 1237;
}
);
unicode = 3363;
},
{
glyphname = tamlym;
lastChange = "2025-02-13 10:57:15 +0000";
layers = (
{
anchors = (
{
name = b.uni0D00;
pos = (610,0);
}
);
background = {
shapes = (
{
closed = 1;
nodes = (
(774,-12,o),
(863,63,o),
(863,226,cs),
(863,364,o),
(800,442,o),
(697,498,c),
(663,532,l),
(592,566,o),
(520,581,o),
(429,581,cs),
(139,581,o),
(52,417,o),
(52,284,cs),
(52,154,o),
(111,65,o),
(198,-12,c),
(334,68,l),
(273,141,o),
(241,201,o),
(241,281,cs),
(241,384,o),
(296,457,o),
(444,457,cs),
(472,457,o),
(499,453,o),
(524,445,cs),
(554,435,l),
(625,402,o),
(676,325,o),
(676,230,cs),
(676,141,o),
(643,116,o),
(606,116,cs),
(570,116,o),
(537,144,o),
(537,230,cs),
(537,322,o),
(591,399,o),
(667,434,c),
(699,444,ls),
(727,453,o),
(758,457,o),
(795,457,cs),
(922,457,o),
(980,391,o),
(980,281,cs),
(980,201,o),
(946,138,o),
(887,68,c),
(1022,-12,l),
(1110,65,o),
(1169,154,o),
(1169,284,cs),
(1169,426,o),
(1086,581,o),
(806,581,cs),
(714,581,o),
(634,564,o),
(559,528,c),
(526,498,l),
(419,440,o),
(350,354,o),
(350,229,cs),
(350,73,o),
(442,-12,o),
(607,-12,cs)
);
}
);
};
layerId = "2AD682F6-F6C7-4738-913E-50B961B61BC3";
shapes = (
{
closed = 1;
nodes = (
(159,141,o),
(80,349,o),
(157,443,cs),
(290,603,o),
(719,422,o),
(536,150,c),
(630,86,l),
(836,354,o),
(343,765,o),
(85,482,cs),
(-56,326,o),
(34,78,o),
(184,-7,c),
(270,79,l)
);
},
{
closed = 1;
nodes = (
(454,276,o),
(566,464,o),
(735,447,cs),
(854,435,o),
(836,181,o),
(777,115,c),
(864,28,l),
(1016,154,o),
(973,490,o),
(737,506,cs),
(560,518,o),
(458,409,o),
(365,285,c),
(432,207,l)
);
},
{
closed = 1;
nodes = (
(369,290,l),
(283,169,o),
(312,40,o),
(420,5,cs),
(500,-21,o),
(572,18,o),
(633,89,c),
(538,154,l),
(486,79,o),
(402,102,o),
(435,215,c)
);
}
);
width = 968;
}
);
unicode = 3364;
},
{
glyphname = thamlym;
lastChange = "2025-02-13 13:38:42 +0000";
layers = (
{
anchors = (
{
name = b.uni0D00;
pos = (349,0);
}
);
background = {
shapes = (
{
closed = 1;
nodes = (
(-101,569,l),
(-101,0,l),
(266,0,l),
(266,128,l),
(85,128,l),
(85,569,l)
);
},
{
alignment = -1;
pos = (-156,0);
ref = thapart;
}
);
};
guides = (
{
angle = 135;
pos = (122,480);
},
{
pos = (492,501);
},
{
pos = (492,581);
}
);
layerId = "2AD682F6-F6C7-4738-913E-50B961B61BC3";
shapes = (
{
closed = 1;
nodes = (
(388,231,o),
(313,388,o),
(390,464,cs),
(527,601,o),
(818,303,o),
(713,61,c),
(808,0,l),
(998,466,o),
(510,690,o),
(343,511,cs),
(193,349,o),
(293,171,o),
(380,73,c),
(464,158,l)
);
},
{
closed = 1;
nodes = (
(198,62,l),
(101,501,l),
(20,581,l),
(109,-1,l),
(808,0,l),
(808,62,l)
);
}
);
width = 864;
}
);
unicode = 3365;
},
{
glyphname = damlym;
lastChange = "2025-02-13 16:51:57 +0000";
layers = (
{
anchors = (
{
name = b.uni0D00;
pos = (393,0);
}
);
background = {
shapes = (
{
closed = 1;
nodes = (
(189,581,o),
(57,442,o),
(57,224,cs),
(57,152,o),
(73,63,o),
(98,-4,c),
(274,29,l),
(256,85,o),
(247,151,o),
(247,212,cs),
(247,359,o),
(321,453,o),
(454,453,cs),
(513,453,o),
(541,431,o),
(541,396,cs),
(541,380,o),
(535,369,o),
(525,361,cs),
(509,348,o),
(486,343,o),
(444,343,cs),
(396,343,l),
(396,217,l),
(447,217,ls),
(490,217,o),
(511,215,o),
(529,204,cs),
(544,195,o),
(552,182,o),
(552,164,cs),
(552,129,o),
(530,116,o),
(479,116,cs),
(450,116,o),
(426,119,o),
(394,126,c),
(371,2,l),
(410,-5,o),
(457,-12,o),
(509,-12,cs),
(660,-12,o),
(738,44,o),
(738,148,cs),
(738,208,o),
(708,262,o),
(638,287,c),
(639,282,l),
(705,315,o),
(727,358,o),
(727,420,cs),
(727,508,o),
(654,581,o),
(460,581,cs)
);
}
);
};
guides = (
{
pos = (509,189);
},
{
pos = (507,149);
},
{
pos = (502,226);
},
{
pos = (502,306);
},
{
angle = 45;
pos = (338,189);
}
);
layerId = "2AD682F6-F6C7-4738-913E-50B961B61BC3";
shapes = (
{
closed = 1;
nodes = (
(304,80,l),
(161,178,o),
(32,381,o),
(153,474,cs),
(289,578,o),
(475,350,o),
(375,226,c),
(526,348,o),
(623,152,o),
(406,103,c),
(487,22,l),
(769,125,o),
(627,363,o),
(461,310,c),
(604,547,o),
(225,641,o),
(94,508,cs),
(-99,312,o),
(109,59,o),
(224,0,c)
);
}
);
width = 663;
}
);
unicode = 3366;
},
{
glyphname = dhamlym;
lastChange = "2025-02-13 06:18:34 +0000";
layers = (
{
anchors = (
{
name = b.uni0D00;
pos = (606,0);
}
);
background = {
shapes = (
{
closed = 1;
nodes = (
(991,-12,o),
(1093,113,o),
(1093,272,cs),
(1093,395,o),
(1049,479,o),
(955,581,c),
(814,500,l),
(878,411,o),
(903,351,o),
(903,271,cs),
(903,160,o),
(841,117,o),
(784,117,cs),
(753,117,o),
(735,129,o),
(723,142,cs),
(704,163,o),
(700,199,o),
(700,249,cs),
(700,569,l),
(513,569,l),
(513,242,ls),
(513,189,o),
(506,161,o),
(488,141,cs),
(476,127,o),
(457,117,o),
(429,117,cs),
(370,117,o),
(309,158,o),
(309,274,cs),
(309,353,o),
(335,414,o),
(397,500,c),
(258,581,l),
(169,479,o),
(119,395,o),
(119,270,cs),
(119,108,o),
(225,-12,o),
(408,-12,cs),
(499,-12,o),
(555,11,o),
(615,63,c),
(599,59,l),
(659,9,o),
(713,-12,o),
(799,-12,cs)
);
}
);
};
guides = (
{
angle = 135;
pos = (178,470);
},
{
pos = (751,488);
},
{
pos = (751,568);
}
);
layerId = "2AD682F6-F6C7-4738-913E-50B961B61BC3";
shapes = (
{
closed = 1;
nodes = (
(445,417,l),
(492,278,o),
(570,26,o),
(756,54,cs),
(996,89,o),
(1017,435,o),
(825,515,c),
(743,432,l),
(857,362,o),
(866,117,o),
(753,117,cs),
(655,117,o),
(579,340,o),
(549,450,cs),
(543,473,o),
(539,490,o),
(534,504,c)
);
},
{
closed = 1;
nodes = (
(445,416,l),
(588,-129,o),
(59,40,o),
(165,487,c),
(78,574,l),
(-236,-33,o),
(741,-302,o),
(534,504,c)
);
}
);
width = 969;
}
);
unicode = 3367;
},
{
glyphname = namlym;
lastChange = "2025-02-13 06:18:52 +0000";
layers = (
{
anchors = (
{
name = b.uni0D00;
pos = (563,0);
}
);
background = {
shapes = (
{
closed = 1;
nodes = (
(178,581,o),
(76,456,o),
(76,297,cs),
(76,174,o),
(120,90,o),
(214,-12,c),
(355,69,l),
(291,158,o),
(266,218,o),
(266,298,cs),
(266,409,o),
(328,452,o),
(385,452,cs),
(416,452,o),
(434,440,o),
(446,427,cs),
(465,406,o),
(469,370,o),
(469,320,cs),
(469,0,l),
(656,0,l),
(656,327,ls),
(656,380,o),
(663,408,o),
(681,428,cs),
(693,442,o),
(712,452,o),
(740,452,cs),
(799,452,o),
(860,411,o),
(860,295,cs),
(860,216,o),
(834,155,o),
(772,69,c),
(911,-12,l),
(1000,90,o),
(1050,174,o),
(1050,299,cs),
(1050,461,o),
(944,581,o),
(761,581,cs),
(670,581,o),
(614,558,o),
(554,506,c),
(570,510,l),
(510,560,o),
(456,581,o),
(370,581,cs)
);
}
);
};
guides = (
{
pos = (535,32);
},
{
pos = (535,112);
},
{
angle = 135;
pos = (534,59);
}
);
layerId = "2AD682F6-F6C7-4738-913E-50B961B61BC3";
shapes = (
{
closed = 1;
nodes = (
(226,133,o),
(30,352,o),
(140,460,cs),
(275,593,o),
(481,332,o),
(481,112,c),
(561,32,l),
(603,565,o),
(266,670,o),
(99,502,cs),
(-88,316,o),
(74,73,o),
(234,-5,c),
(317,77,l)
);
},
{
closed = 1;
nodes = (
(553,40,l),
(561,32,l),
(564,84,o),
(595,430,o),
(697,447,cs),
(844,473,o),
(846,209,o),
(774,115,c),
(857,32,l),
(1004,165,o),
(963,497,o),
(715,506,cs),
(541,512,o),
(497,304,o),
(481,112,c)
);
}
);
width = 957;
}
);
unicode = 3368;
},
{
glyphname = nnnamlym;
layers = (
{
anchors = (
{
name = b.uni0D00;
pos = (595,0);
}
);
background = {
shapes = (
{
closed = 1;
nodes = (
(202,581,o),
(33,460,o),
(33,244,cs),
(33,63,o),
(139,-12,o),
(278,-12,cs),
(432,-12,o),
(506,61,o),
(506,180,cs),
(506,285,o),
(444,359,o),
(316,359,cs),
(230,359,o),
(171,321,o),
(118,276,c),
(139,156,l),
(193,215,o),
(222,240,o),
(267,240,cs),
(303,240,o),
(325,216,o),
(325,173,cs),
(325,127,o),
(306,108,o),
(273,108,cs),
(235,108,o),
(202,135,o),
(202,240,cs),
(202,244,ls),
(202,380,o),
(301,453,o),
(418,453,cs),
(469,453,o),
(505,443,o),
(529,424,cs),
(562,397,o),
(574,359,o),
(574,273,cs),
(574,0,l),
(761,0,l),
(761,327,ls),
(761,380,o),
(768,408,o),
(786,428,cs),
(798,442,o),
(817,452,o),
(845,452,cs),
(904,452,o),
(965,411,o),
(965,295,cs),
(965,216,o),
(939,155,o),
(877,69,c),
(1016,-12,l),
(1105,90,o),
(1155,174,o),
(1155,299,cs),
(1155,461,o),
(1049,581,o),
(866,581,cs),
(775,581,o),
(715,559,o),
(654,505,c),
(704,480,l),
(629,553,o),
(547,581,o),
(422,581,cs)
);
}
);
};
layerId = "2AD682F6-F6C7-4738-913E-50B961B61BC3";
shapes = (
{
closed = 1;
nodes = (
(202,581,o),
(33,460,o),
(33,244,cs),
(33,63,o),
(139,-12,o),
(278,-12,cs),
(432,-12,o),
(506,61,o),
(506,180,cs),
(506,285,o),
(444,359,o),
(316,359,cs),
(230,359,o),
(171,321,o),
(118,276,c),
(139,156,l),
(193,215,o),
(222,240,o),
(267,240,cs),
(303,240,o),
(325,216,o),
(325,173,cs),
(325,127,o),
(306,108,o),
(273,108,cs),
(235,108,o),
(202,135,o),
(202,240,cs),
(202,244,ls),
(202,380,o),
(301,453,o),
(418,453,cs),
(469,453,o),
(505,443,o),
(529,424,cs),
(562,397,o),
(574,359,o),
(574,273,cs),
(574,0,l),
(761,0,l),
(761,327,ls),
(761,380,o),
(768,408,o),
(786,428,cs),
(798,442,o),
(817,452,o),
(845,452,cs),
(904,452,o),
(965,411,o),
(965,295,cs),
(965,216,o),
(939,155,o),
(877,69,c),
(1016,-12,l),
(1105,90,o),
(1155,174,o),
(1155,299,cs),
(1155,461,o),
(1049,581,o),
(866,581,cs),
(775,581,o),
(715,559,o),
(654,505,c),
(704,480,l),
(629,553,o),
(547,581,o),
(422,581,cs)
);
}
);
width = 1190;
}
);
unicode = 3369;
},
{
glyphname = pamlym;
lastChange = "2025-02-13 13:39:16 +0000";
layers = (
{
anchors = (
{
name = b.uni0D00;
pos = (911,0);
}
);
background = {
shapes = (
{
closed = 1;
nodes = (
(537,372,o),
(431,296,o),
(431,170,cs),
(431,97,o),
(464,37,o),
(512,-13,c),
(656,45,l),
(632,83,o),
(616,119,o),
(616,160,cs),
(616,210,o),
(640,245,o),
(691,245,cs),
(743,245,o),
(764,205,o),
(764,163,cs),
(764,123,o),
(747,92,o),
(733,70,c),
(796,0,l),
(1364,0,l),
(1364,569,l),
(1177,569,l),
(1177,128,l),
(925,128,l),
(922,76,l),
(935,105,o),
(942,143,o),
(942,173,cs),
(942,268,o),
(868,372,o),
(689,372,cs)
);
}
);
};
guides = (
{
pos = (84,0);
},
{
pos = (84,80);
},
{
angle = 45;
pos = (260,63);
}
);
layerId = "2AD682F6-F6C7-4738-913E-50B961B61BC3";
shapes = (
{
closed = 1;
nodes = (
(466,61,l),
(436,0,l),
(1087,-1,l),
(1168,490,l),
(1079,579,l),
(998,61,l)
);
},
{
closed = 1;
nodes = (
(106,144,o),
(118,250,o),
(192,298,cs),
(325,384,o),
(544,250,o),
(436,0,c),
(561,54,l),
(695,339,o),
(323,488,o),
(130,357,cs),
(-14,259,o),
(-39,52,o),
(149,-2,c),
(231,80,l)
);
}
);
width = 1183;
}
);
unicode = 3370;
},
{
glyphname = phamlym;
lastChange = "2025-02-13 13:40:08 +0000";
layers = (
{
anchors = (
{
name = b.uni0D00;
pos = (642,0);
}
);
background = {
shapes = (
{
closed = 1;
nodes = (
(133,372,o),
(27,296,o),
(27,170,cs),
(27,97,o),
(60,37,o),
(108,-13,c),
(252,45,l),
(228,83,o),
(212,119,o),
(212,160,cs),
(212,210,o),
(236,245,o),
(287,245,cs),
(339,245,o),
(360,205,o),
(360,163,cs),
(360,123,o),
(343,92,o),
(329,70,c),
(392,0,l),
(774,0,l),
(773,128,l),
(521,128,l),
(518,76,l),
(531,105,o),
(538,143,o),
(538,173,cs),
(538,268,o),
(464,372,o),
(285,372,cs)
);
},
{
alignment = -1;
pos = (274,0);
ref = thapart;
}
);
};
layerId = "2AD682F6-F6C7-4738-913E-50B961B61BC3";
shapes = (
{
closed = 1;
nodes = (
(1233,61,l),
(466,61,l),
(436,0,l),
(1233,-1,l)
);
},
{
closed = 1;
nodes = (
(106,144,o),
(118,250,o),
(192,298,cs),
(325,384,o),
(544,250,o),
(436,0,c),
(561,54,l),
(695,339,o),
(323,488,o),
(130,357,cs),
(-14,259,o),
(-39,52,o),
(149,-2,c),
(231,80,l)
);
},
{
closed = 1;
nodes = (
(818,231,o),
(743,388,o),
(820,464,cs),
(957,601,o),
(1248,303,o),
(1143,61,c),
(1233,-1,l),
(1423,465,o),
(940,690,o),
(773,511,cs),
(623,349,o),
(723,171,o),
(810,73,c),
(894,158,l)
);
}
);
width = 1292;
}
);
unicode = 3371;
},
{
glyphname = bamlym;
lastChange = "2025-02-13 16:51:21 +0000";
layers = (
{
anchors = (
{
name = b.uni0D00;
pos = (768,0);
}
);
background = {
shapes = (
{
closed = 1;
nodes = (
(210,581,o),
(41,460,o),
(41,244,cs),
(41,63,o),
(147,-12,o),
(286,-12,cs),
(440,-12,o),
(514,61,o),
(514,180,cs),
(514,285,o),
(452,359,o),
(324,359,cs),
(238,359,o),
(179,321,o),
(126,276,c),
(147,156,l),
(201,215,o),
(230,240,o),
(275,240,cs),
(311,240,o),
(333,216,o),
(333,173,cs),
(333,127,o),
(314,108,o),
(281,108,cs),
(243,108,o),
(210,135,o),
(210,240,cs),
(210,244,ls),
(210,380,o),
(309,453,o),
(426,453,cs),
(477,453,o),
(513,443,o),
(537,424,cs),
(570,397,o),
(582,359,o),
(582,273,cs),
(582,0,l),
(769,0,l),
(769,317,l),
(745,404,l),
(712,480,l),
(637,553,o),
(555,581,o),
(430,581,cs)
);
},
{
closed = 1;
nodes = (
(1286,569,l),
(1286,128,l),
(1061,128,l),
(1099,104,l),
(1146,166,o),
(1163,223,o),
(1163,299,cs),
(1163,459,o),
(1057,581,o),
(874,581,cs),
(783,581,o),
(723,559,o),
(662,505,c),
(645,424,l),
(603,232,l),
(603,10,l),
(769,10,l),
(769,327,ls),
(769,380,o),
(776,408,o),
(794,428,cs),
(806,442,o),
(825,452,o),
(853,452,cs),
(912,452,o),
(973,411,o),
(973,295,cs),
(973,217,o),
(948,157,o),
(888,65,c),
(936,0,l),
(1473,0,l),
(1473,569,l)
);
}
);
};
layerId = "2AD682F6-F6C7-4738-913E-50B961B61BC3";
shapes = (
{
closed = 1;
nodes = (
(116,195,o),
(106,375,o),
(181,454,cs),
(288,561,o),
(527,452,o),
(541,114,c),
(635,136,l),
(681,440,o),
(293,702,o),
(96,489,cs),
(-67,309,o),
(39,73,o),
(201,12,c),
(269,81,l)
);
},
{
closed = 1;
nodes = (
(188,17,l),
(373,-57,o),
(528,121,o),
(455,212,cs),
(340,354,o),
(198,240,o),
(187,234,c),
(216,206,l),
(282,141,l),
(452,290,o),
(392,-28,o),
(242,102,c)
);
},
{
closed = 1;
nodes = (
(904,61,l),
(1212,521,o),
(540,714,o),
(541,114,c),
(620,30,l),
(630,20,l),
(630,617,o),
(1033,489,o),
(785,-1,c)
);
},
{
closed = 1;
nodes = (
(785,-1,l),
(1165,-1,l),
(1213,288,l),
(1133,368,l),
(1086,61,l),
(818,61,l)
);
}
);
width = 1228;
}
);
unicode = 3372;
},
{
glyphname = bhamlym;
lastChange = "2025-02-13 17:49:39 +0000";
layers = (
{
anchors = (
{
name = b.uni0D00;
pos = (445,0);
}
);
background = {
shapes = (
{
closed = 1;
nodes = (
(221,581,o),
(92,445,o),
(92,224,cs),
(92,152,o),
(108,63,o),
(133,-4,c),
(309,29,l),
(291,85,o),
(282,151,o),
(282,212,cs),
(282,367,o),
(358,455,o),
(525,455,cs),
(593,455,o),
(636,446,o),
(636,424,cs),
(636,415,o),
(631,404,o),
(599,404,cs),
(574,404,ls),
(500,404,o),
(446,396,o),
(406,365,cs),
(380,345,o),
(363,316,o),
(363,275,cs),
(363,239,o),
(374,213,o),
(394,193,cs),
(428,160,o),
(477,149,o),
(580,149,cs),
(604,149,ls),
(627,149,o),
(638,144,o),
(638,131,cs),
(638,115,o),
(620,110,o),
(563,110,cs),
(504,110,o),
(463,116,o),
(407,135,c),
(353,22,l),
(424,-3,o),
(478,-12,o),
(581,-12,cs),
(745,-12,o),
(808,50,o),
(808,129,cs),
(808,175,o),
(789,206,o),
(761,225,cs),
(725,250,o),
(681,256,o),
(616,256,cs),
(585,256,ls),
(554,256,o),
(533,259,o),
(533,276,cs),
(533,284,o),
(537,288,o),
(542,291,cs),
(549,295,o),
(559,297,o),
(584,297,cs),
(626,297,ls),
(695,297,o),
(737,301,o),
(771,327,cs),
(795,346,o),
(809,376,o),
(809,420,cs),
(809,527,o),
(704,581,o),
(522,581,cs)
);
}
);
};
layerId = "2AD682F6-F6C7-4738-913E-50B961B61BC3";
shapes = (
{
closed = 1;
nodes = (
(311,80,l),
(102,174,o),
(48,395,o),
(182,483,cs),
(295,557,o),
(427,430,o),
(347,308,cs),
(323,271,o),
(381,199,o),
(498,262,cs),
(570,301,o),
(657,160,o),
(455,103,c),
(538,20,l),
(857,147,o),
(647,378,o),
(509,315,cs),
(460,292,o),
(346,267,o),
(412,329,cs),
(597,503,o),
(288,644,o),
(132,525,cs),
(-36,396,o),
(-38,124,o),
(228,-3,c)
);
}
);
width = 721;
}
);
unicode = 3373;
},
{
glyphname = mamlym;
lastChange = "2025-02-12 08:05:08 +0000";
layers = (
{
anchors = (
{
name = b.uni0D00;
pos = (451,0);
}
);
background = {
shapes = (
{
closed = 1;
nodes = (
(332,581,o),
(244,558,o),
(182,510,cs),
(113,457,o),
(75,384,o),
(75,242,cs),
(75,0,l),
(828,0,l),
(828,245,ls),
(828,390,o),
(792,454,o),
(724,507,cs),
(658,558,o),
(562,581,o),
(439,581,cs)
);
},
{
closed = 1;
nodes = (
(391,448,o),
(403,421,o),
(403,387,cs),
(403,269,o),
(312,166,o),
(203,68,c),
(261,68,l),
(261,246,ls),
(261,337,o),
(271,379,o),
(291,410,cs),
(307,434,o),
(327,448,o),
(357,448,cs)
);
},
{
closed = 1;
nodes = (
(587,412,o),
(571,443,o),
(543,470,c),
(542,459,l),
(614,427,o),
(642,371,o),
(642,240,cs),
(642,127,l),
(538,127,ls),
(504,127,o),
(474,127,o),
(445,122,c),
(462,120,l),
(536,194,o),
(587,271,o),
(587,363,cs)
);
}
);
};
guides = (
{
pos = (410,238);
},
{
pos = (408,181);
},
{
pos = (498,313);
},
{
pos = (498,393);
},
{
angle = 135;
pos = (468,266);
}
);
layerId = "2AD682F6-F6C7-4738-913E-50B961B61BC3";
shapes = (
{
closed = 1;
nodes = (
(79,335,o),
(99,423,o),
(137,464,cs),
(235,569,o),
(362,463,o),
(377,366,cs),
(402,192,o),
(133,48,o),
(56,-1,c),
(524,-1,l),
(568,180,l),
(502,245,l),
(456,61,l),
(262,61,l),
(351,119,o),
(528,198,o),
(502,389,cs),
(474,581,o),
(205,621,o),
(88,508,cs),
(6,429,o),
(-16,283,o),
(71,149,c),
(156,234,l)
);
}
);
width = 583;
}
);
unicode = 3374;
},
{
glyphname = yamlym;
lastChange = "2025-02-13 13:16:36 +0000";
layers = (
{
anchors = (
{
name = b.uni0D00;
pos = (629,0);
}
);
background = {
shapes = (
{
closed = 1;
nodes = (
(1105,-12,o),
(1189,160,o),
(1189,317,cs),
(1189,408,o),
(1158,492,o),
(1088,579,c),
(941,499,l),
(988,430,o),
(998,372,o),
(998,322,cs),
(998,185,o),
(915,111,o),
(791,111,cs),
(764,111,o),
(739,116,o),
(716,121,cs),
(699,125,o),
(683,124,o),
(669,131,cs),
(601,168,o),
(556,248,o),
(556,336,cs),
(556,422,o),
(590,453,o),
(633,453,cs),
(673,453,o),
(709,420,o),
(709,338,cs),
(709,244,o),
(662,167,o),
(595,133,cs),
(584,128,o),
(568,127,o),
(556,123,cs),
(530,115,o),
(501,111,o),
(471,111,cs),
(329,111,o),
(250,209,o),
(250,335,cs),
(250,410,o),
(286,453,o),
(337,453,cs),
(371,453,o),
(396,439,o),
(424,396,c),
(564,459,l),
(513,548,o),
(433,581,o),
(337,581,cs),
(156,581,o),
(63,473,o),
(63,334,cs),
(63,128,o),
(195,-12,o),
(465,-12,cs),
(541,-12,o),
(619,4,o),
(688,35,cs),
(701,41,o),
(713,51,o),
(725,58,cs),
(825,114,o),
(896,204,o),
(896,334,cs),
(896,494,o),
(797,581,o),
(632,581,cs),
(543,581,o),
(471,554,o),
(430,499,c),
(412,477,l),
(386,439,o),
(369,392,o),
(369,338,cs),
(369,202,o),
(443,109,o),
(546,52,c),
(560,45,o),
(574,34,o),
(588,28,cs),
(651,1,o),
(722,-12,o),
(791,-12,cs)
);
}
);
};
guides = (
{
pos = (524,189);
},
{
pos = (522,132);
},
{
angle = 135;
pos = (914,382);
},
{
pos = (556,368);
},
{
pos = (916,293);
}
);
layerId = "2AD682F6-F6C7-4738-913E-50B961B61BC3";
shapes = (
{
closed = 1;
nodes = (
(876,553,o),
(674,38,o),
(408,54,cs),
(190,66,o),
(44,364,o),
(143,462,cs),
(220,537,o),
(329,444,o),
(433,295,cs),
(683,-65,o),
(1002,-106,o),
(1002,293,c),
(926,368,l),
(912,-67,o),
(723,33,o),
(494,398,cs),
(402,547,o),
(208,643,o),
(82,498,cs),
(-111,273,o),
(146,-32,o),
(447,1,cs),
(725,30,o),
(899,406,o),
(758,474,cs),
(649,527,o),
(539,461,o),
(499,425,c),
(573,352,l)
);
}
);
width = 1017;
}
);
unicode = 3375;
},
{
glyphname = ramlym;
lastChange = "2025-02-13 05:46:57 +0000";
layers = (
{
anchors = (
{
name = b.uni0D00;
pos = (502,0);
}
);
background = {
shapes = (
{
closed = 1;
nodes = (
(206,581,o),
(107,426,o),
(107,284,cs),
(107,154,o),
(166,65,o),
(253,-12,c),
(392,69,l),
(332,139,o),
(299,201,o),
(299,281,cs),
(299,388,o),
(369,451,o),
(503,451,cs),
(629,451,o),
(703,396,o),
(714,329,c),
(717,324,o),
(711,310,o),
(713,305,c),
(716,285,o),
(718,262,o),
(718,242,cs),
(718,153,o),
(692,116,o),
(642,116,cs),
(605,116,o),
(579,143,o),
(579,205,cs),
(579,265,o),
(605,295,o),
(653,295,cs),
(706,295,o),
(739,251,o),
(749,203,c),
(822,205,l),
(814,305,o),
(732,410,o),
(607,410,cs),
(475,410,o),
(399,331,o),
(399,205,cs),
(399,89,o),
(468,-12,o),
(639,-12,cs),
(809,-12,o),
(901,77,o),
(901,237,cs),
(901,418,o),
(772,581,o),
(489,581,cs)
);
}
);
};
guides = (
{
pos = (561,-1);
},
{
pos = (561,79);
},
{
angle = 45;
pos = (404,44);
}
);
layerId = "2AD682F6-F6C7-4738-913E-50B961B61BC3";
shapes = (
{
closed = 1;
nodes = (
(554,11,l),
(965,192,o),
(445,766,o),
(115,512,cs),
(-43,390,o),
(-6,97,o),
(176,-4,c),
(259,79,l),
(127,164,o),
(55,379,o),
(168,465,cs),
(364,615,o),
(784,217,o),
(489,79,c)
);
},
{
closed = 1;
nodes = (
(409,43,o),
(327,118,o),
(355,158,cs),
(369,178,o),
(426,223,o),
(515,150,c),
(575,211,l),
(553,225,o),
(409,352,o),
(296,212,cs),
(229,129,o),
(369,-60,o),
(560,14,c),
(506,88,l)
);
}
);
width = 720;
}
);
unicode = 3376;
},
{
glyphname = rramlym;
lastChange = "2025-02-12 09:40:15 +0000";
layers = (
{
anchors = (
{
name = b.uni0D00;
pos = (467,0);
}
);
background = {
shapes = (
{
closed = 1;
nodes = (
(202,581,o),
(113,417,o),
(113,284,cs),
(113,154,o),
(172,65,o),
(259,-12,c),
(398,69,l),
(338,139,o),
(305,201,o),
(305,281,cs),
(305,392,o),
(374,451,o),
(468,451,cs),
(569,451,o),
(630,386,o),
(630,281,cs),
(630,201,o),
(596,139,o),
(537,69,c),
(675,-12,l),
(763,65,o),
(822,154,o),
(822,284,cs),
(822,426,o),
(732,581,o),
(467,581,cs)
);
}
);
};
guides = (
{
angle = 45;
pos = (365,149);
},
{
pos = (502,37);
},
{
pos = (502,117);
},
{
angle = 135;
pos = (455,136);
}
);
layerId = "2AD682F6-F6C7-4738-913E-50B961B61BC3";
shapes = (
{
closed = 1;
nodes = (
(182,151,o),
(19,358,o),
(130,467,cs),
(247,582,o),
(523,367,o),
(475,118,c),
(555,37,l),
(706,451,o),
(267,684,o),
(90,511,cs),
(-64,361,o),
(32,118,o),
(217,1,c),
(295,79,l)
);
}
);
width = 600;
}
);
unicode = 3377;
},
{
glyphname = lamlym;
lastChange = "2025-02-13 13:39:23 +0000";
layers = (
{
anchors = (
{
name = b.uni0D00;
pos = (504,0);
}
);
background = {
shapes = (
{
closed = 1;
nodes = (
(750,569,l),
(750,128,l),
(253,128,l),
(253,209,l),
(652,209,l),
(652,296,ls),
(652,405,o),
(624,469,o),
(571,516,cs),
(522,559,o),
(455,581,o),
(361,581,cs),
(273,581,o),
(204,560,o),
(153,517,cs),
(100,472,o),
(67,408,o),
(67,297,cs),
(67,0,l),
(937,0,l),
(937,569,l)
);
},
{
closed = 1;
nodes = (
(428,453,o),
(466,408,o),
(466,339,cs),
(466,335,l),
(253,335,l),
(253,339,ls),
(253,405,o),
(286,453,o),
(360,453,cs)
);
}
);
};
guides = (
{
pos = (-147,251);
},
{
pos = (-147,331);
},
{
angle = 135;
pos = (265,215);
}
);
layerId = "2AD682F6-F6C7-4738-913E-50B961B61BC3";
shapes = (
{
closed = 1;
nodes = (
(205,0,l),
(856,-1,l),
(937,490,l),
(848,579,l),
(767,61,l),
(206,61,l)
);
},
{
closed = 1;
nodes = (
(535,403,l),
(434,557,o),
(204,622,o),
(92,525,cs),
(-82,374,o),
(77,109,o),
(205,0,c),
(385,0,l),
(279,39,o),
(43,393,o),
(142,474,cs),
(221,539,o),
(354,475,o),
(426,349,c)
);
},
{
closed = 1;
nodes = (
(495,449,l),
(164,331,l),
(247,248,l),
(535,403,l)
);
}
);
width = 952;
}
);
unicode = 3378;
},
{
glyphname = llamlym;
lastChange = "2025-02-13 20:40:45 +0000";
layers = (
{
anchors = (
{
name = b.uni0D00;
pos = (374,0);
}
);
background = {
shapes = (
{
closed = 1;
nodes = (
(512,457,o),
(555,431,o),
(555,393,cs),
(555,377,o),
(550,368,o),
(540,360,cs),
(528,351,o),
(506,348,o),
(477,348,cs),
(467,348,l),
(467,326,l),
(505,250,l),
(656,266,o),
(741,318,o),
(741,411,cs),
(741,518,o),
(637,581,o),
(402,581,cs),
(110,581,o),
(-2,458,o),
(-2,331,cs),
(-2,205,o),
(86,138,o),
(205,138,cs),
(368,138,o),
(418,205,o),
(418,292,cs),
(418,372,o),
(358,432,o),
(245,432,cs),
(164,432,o),
(86,385,o),
(52,354,c),
(108,310,l),
(143,329,o),
(169,340,o),
(200,340,cs),
(232,340,o),
(251,326,o),
(251,294,cs),
(251,268,o),
(237,248,o),
(202,248,cs),
(170,248,o),
(148,271,o),
(148,318,cs),
(148,333,o),
(149,349,o),
(150,358,cs),
(152,373,o),
(150,383,o),
(161,395,cs),
(196,436,o),
(262,457,o),
(388,457,cs)
);
},
{
closed = 1;
nodes = (
(752,232,o),
(709,291,o),
(589,315,cs),
(467,340,l),
(467,224,l),
(482,224,ls),
(512,224,o),
(531,222,o),
(545,214,cs),
(558,206,o),
(566,194,o),
(566,176,cs),
(566,160,o),
(560,148,o),
(550,141,cs),
(535,130,o),
(512,127,o),
(465,127,cs),
(272,127,ls),
(170,127,o),
(112,116,o),
(64,83,cs),
(26,57,o),
(3,16,o),
(3,-42,cs),
(3,-108,o),
(34,-151,o),
(81,-175,cs),
(130,-200,o),
(184,-206,o),
(274,-206,cs),
(739,-206,l),
(739,-77,l),
(287,-77,ls),
(236,-77,o),
(218,-73,o),
(205,-64,cs),
(196,-58,o),
(191,-49,o),
(191,-36,cs),
(191,-23,o),
(197,-14,o),
(210,-8,cs),
(223,-2,o),
(237,0,o),
(284,0,cs),
(483,0,ls),
(594,0,o),
(656,8,o),
(700,45,cs),
(731,71,o),
(752,110,o),
(752,163,cs)
);
}
);
};
guides = (
{
pos = (534,-21);
},
{
pos = (894,-96);
},
{
angle = 135;
pos = (729,-50);
}
);
layerId = "2AD682F6-F6C7-4738-913E-50B961B61BC3";
shapes = (
{
closed = 1;
nodes = (
(437,564,l),
(355,592,o),
(228,566,o),
(158,502,cs),
(8,364,o),
(112,145,o),
(251,92,c),
(309,152,l),
(178,250,o),
(158,401,o),
(225,468,cs),
(270,513,o),
(378,520,o),
(434,492,c)
);
},
{
closed = 1;
nodes = (
(240,97,l),
(399,33,o),
(532,186,o),
(469,264,cs),
(370,387,o),
(248,289,o),
(239,283,c),
(321,203,l),
(467,332,o),
(415,58,o),
(286,170,c)
);
},
{
closed = 1;
nodes = (
(434,492,l),
(516,454,o),
(597,351,o),
(523,260,c),
(653,365,o),
(729,200,o),
(578,123,c),
(625,65,l),
(858,202,o),
(738,377,o),
(595,332,c),
(685,492,o),
(497,543,o),
(437,564,c)
);
},
{
closed = 1;
nodes = (
(693,120,o),
(452,74,o),
(283,42,cs),
(134,14,o),
(-1,-11,o),
(17,-105,cs),
(46,-256,o),
(556,-305,o),
(775,-96,c),
(700,-21,l),
(593,-92,o),
(373,-135,o),
(270,-141,cs),
(137,-149,o),
(84,-77,o),
(222,-50,cs),
(391,-17,o),
(721,28,o),
(752,222,c),
(705,273,l)
);
}
);
width = 790;
}
);
unicode = 3379;
},
{
glyphname = lllamlym;
lastChange = "2025-02-13 17:31:56 +0000";
layers = (
{
anchors = (
{
name = b.uni0D00;
pos = (537,0);
}
);
background = {
shapes = (
{
closed = 1;
nodes = (
(430,302,o),
(519,227,o),
(519,158,cs),
(519,137,o),
(503,117,o),
(460,117,cs),
(418,117,o),
(386,121,o),
(344,140,c),
(291,22,l),
(359,-3,o),
(419,-12,o),
(494,-12,cs),
(653,-12,o),
(697,62,o),
(697,142,cs),
(697,255,o),
(610,322,o),
(610,410,cs),
(610,437,o),
(626,462,o),
(659,462,cs),
(693,462,o),
(710,436,o),
(710,400,cs),
(710,317,o),
(660,270,o),
(559,270,cs),
(532,270,ls),
(432,270,o),
(369,321,o),
(369,412,cs),
(369,446,o),
(377,476,o),
(395,509,c),
(246,581,l),
(203,523,o),
(181,462,o),
(181,404,cs),
(181,250,o),
(307,157,o),
(513,157,cs),
(584,157,ls),
(793,157,o),
(894,251,o),
(894,387,cs),
(894,486,o),
(831,581,o),
(649,581,cs),
(502,581,o),
(430,510,o),
(430,413,cs)
);
}
);
};
guides = (
{
angle = 45;
pos = (279,539);
},
{
pos = (784,498);
},
{
pos = (784,578);
}
);
layerId = "2AD682F6-F6C7-4738-913E-50B961B61BC3";
shapes = (
{
closed = 1;
nodes = (
(247,351,o),
(322,284,o),
(436,240,cs),
(553,194,o),
(906,192,o),
(925,406,cs),
(933,498,o),
(823,590,o),
(703,550,cs),
(634,527,o),
(595,441,o),
(551,347,cs),
(484,203,o),
(395,-30,o),
(102,129,c),
(15,42,l),
(422,-126,o),
(541,150,o),
(615,305,cs),
(654,386,o),
(687,454,o),
(732,458,cs),
(830,465,o),
(849,229,o),
(535,279,cs),
(457,292,o),
(312,466,o),
(329,597,c),
(228,496,l)
);
}
);
width = 940;
}
);
unicode = 3380;
},
{
glyphname = vamlym;
lastChange = "2025-02-13 13:15:52 +0000";
layers = (
{
anchors = (
{
name = b.uni0D00;
pos = (566,0);
}
);
background = {
shapes = (
{
closed = 1;
nodes = (
(142,581,o),
(53,417,o),
(53,284,cs),
(53,154,o),
(112,65,o),
(199,-12,c),
(338,69,l),
(278,139,o),
(245,200,o),
(245,281,cs),
(245,390,o),
(314,452,o),
(408,452,cs),
(509,452,o),
(570,386,o),
(570,281,cs),
(570,201,o),
(536,139,o),
(489,84,c),
(549,0,l),
(1060,0,l),
(1060,569,l),
(873,569,l),
(873,128,l),
(676,128,l),
(629,35,l),
(711,117,o),
(760,169,o),
(760,284,cs),
(760,426,o),
(667,581,o),
(407,581,cs)
);
}
);
};
guides = (
{
pos = (513,288);
},
{
pos = (513,368);
},
{
angle = 135;
pos = (705,403);
}
);
layerId = "2AD682F6-F6C7-4738-913E-50B961B61BC3";
shapes = (
{
closed = 1;
nodes = (
(197,147,o),
(31,360,o),
(141,468,cs),
(255,581,o),
(589,356,o),
(468,-1,c),
(566,-1,l),
(745,441,o),
(271,688,o),
(94,514,cs),
(-65,359,o),
(35,114,o),
(225,-3,c),
(307,79,l)
);
},
{
closed = 1;
nodes = (
(494,-1,l),
(772,-1,l),
(820,288,l),
(740,368,l),
(693,61,l),
(494,61,l)
);
}
);
width = 831;
}
);
unicode = 3381;
},
{
glyphname = shamlym;
lastChange = "2025-02-12 18:20:13 +0000";
layers = (
{
anchors = (
{
name = b.uni0D00;
pos = (689,0);
}
);
background = {
shapes = (
{
closed = 1;
nodes = (
(748,581,o),
(663,559,o),
(595,507,cs),
(532,459,o),
(496,384,o),
(496,265,cs),
(496,249,ls),
(496,183,o),
(488,154,o),
(470,136,cs),
(457,123,o),
(439,117,o),
(415,117,cs),
(359,117,o),
(312,155,o),
(312,273,cs),
(312,353,o),
(338,414,o),
(400,500,c),
(261,581,l),
(172,479,o),
(122,395,o),
(122,269,cs),
(122,103,o),
(229,-12,o),
(408,-12,cs),
(496,-12,o),
(564,6,o),
(609,43,cs),
(661,86,o),
(687,152,o),
(687,250,cs),
(687,256,ls),
(687,330,o),
(699,385,o),
(742,418,cs),
(769,439,o),
(806,451,o),
(868,451,cs),
(988,451,o),
(1062,396,o),
(1073,329,c),
(1076,324,o),
(1070,310,o),
(1072,305,c),
(1075,285,o),
(1077,262,o),
(1077,242,cs),
(1077,153,o),
(1051,116,o),
(1001,116,cs),
(964,116,o),
(938,143,o),
(938,205,cs),
(938,265,o),
(964,295,o),
(1012,295,cs),
(1065,295,o),
(1098,251,o),
(1108,203,c),
(1181,205,l),
(1173,305,o),
(1091,410,o),
(966,410,cs),
(834,410,o),
(758,331,o),
(758,205,cs),
(758,89,o),
(827,-12,o),
(998,-12,cs),
(1168,-12,o),
(1260,77,o),
(1260,237,cs),
(1260,418,o),
(1131,581,o),
(859,581,cs)
);
}
);
};
guides = (
{
pos = (588,107);
},
{
pos = (586,50);
},
{
pos = (620,569);
},
{
pos = (980,494);
},
{
pos = (151,569);
},
{
angle = 45;
pos = (936,197);
},
{
angle = 135;
pos = (255,459);
}
);
layerId = "2AD682F6-F6C7-4738-913E-50B961B61BC3";
shapes = (
{
closed = 1;
nodes = (
(202,496,l),
(23,254,o),
(180,52,o),
(351,93,cs),
(439,114,o),
(497,193,o),
(558,273,cs),
(654,402,o),
(752,534,o),
(969,454,cs),
(1184,374,o),
(1209,-13,o),
(870,0,cs),
(765,4,o),
(714,140,o),
(748,202,cs),
(804,299,o),
(957,260,o),
(1011,215,c),
(936,140,l),
(762,267,o),
(794,-30,o),
(954,69,cs),
(1228,239,o),
(846,477,o),
(704,286,cs),
(273,-295,o),
(-208,188,o),
(128,569,c)
);
}
);
width = 1143;
}
);
unicode = 3382;
},
{
glyphname = ssamlym;
lastChange = "2025-02-13 17:40:28 +0000";
layers = (
{
anchors = (
{
name = b.uni0D00;
pos = (691,0);
}
);
background = {
shapes = (
{
closed = 1;
nodes = (
(149,372,o),
(43,296,o),
(43,170,cs),
(43,97,o),
(76,37,o),
(124,-13,c),
(268,45,l),
(244,83,o),
(228,119,o),
(228,160,cs),
(228,210,o),
(252,245,o),
(303,245,cs),
(355,245,o),
(376,205,o),
(376,163,cs),
(376,123,o),
(359,92,o),
(345,70,c),
(408,0,l),
(808,0,l),
(806,128,l),
(537,128,l),
(534,76,l),
(547,105,o),
(554,143,o),
(554,173,cs),
(554,268,o),
(480,372,o),
(301,372,cs)
);
},
{
closed = 1;
nodes = (
(1311,0,l),
(1311,569,l),
(1128,569,l),
(1080,477,o),
(1005,344,o),
(859,344,cs),
(784,344,ls),
(709,344,o),
(694,376,o),
(694,408,cs),
(694,438,o),
(710,454,o),
(733,454,cs),
(747,454,o),
(755,449,o),
(761,440,cs),
(768,430,o),
(770,413,o),
(770,387,cs),
(770,0,l)
);
},
{
closed = 1;
nodes = (
(596,581,o),
(523,499,o),
(523,410,cs),
(523,312,o),
(586,221,o),
(800,221,cs),
(886,221,ls),
(969,221,o),
(1080,261,o),
(1139,364,c),
(1138,379,l),
(1134,363,o),
(1128,303,o),
(1128,252,cs),
(1128,128,l),
(953,128,l),
(953,369,ls),
(953,450,o),
(932,504,o),
(889,537,cs),
(853,566,o),
(803,581,o),
(735,581,cs)
);
}
);
};
guides = (
{
pos = (625,150);
},
{
pos = (985,75);
},
{
angle = 135;
pos = (869,187);
}
);
layerId = "2AD682F6-F6C7-4738-913E-50B961B61BC3";
shapes = (
{
closed = 1;
nodes = (
(467,62,l),
(436,-1,l),
(1249,-2,l),
(1312,372,l),
(1214,470,l),
(1150,62,l)
);
},
{
closed = 1;
nodes = (
(115,143,o),
(129,251,o),
(200,297,cs),
(335,384,o),
(545,243,o),
(434,-5,c),
(571,54,l),
(706,343,o),
(325,489,o),
(132,358,cs),
(-16,257,o),
(-41,50,o),
(156,-4,c),
(240,80,l)
);
},
{
closed = 1;
nodes = (
(1217,468,l),
(1169,382,o),
(1097,317,o),
(1054,310,cs),
(745,261,o),
(770,493,o),
(858,487,cs),
(908,482,o),
(978,353,o),
(989,322,c),
(1057,348,l),
(1037,400,o),
(974,553,o),
(889,581,cs),
(766,622,o),
(652,528,o),
(660,436,cs),
(679,222,o),
(1037,222,o),
(1156,269,cs),
(1224,295,o),
(1275,323,o),
(1311,373,c)
);
},
{
closed = 1;
nodes = (
(1031,229,o),
(989,159,o),
(891,151,c),
(969,72,l),
(1035,101,o),
(1121,212,o),
(1055,351,c),
(988,325,l)
);
}
);
width = 1327;
}
);
unicode = 3383;
},
{
glyphname = samlym;
lastChange = "2025-02-13 07:02:31 +0000";
layers = (
{
anchors = (
{
name = b.uni0D00;
pos = (712,0);
}
);
background = {
shapes = (
{
closed = 1;
nodes = (
(643,581,o),
(582,557,o),
(526,501,c),
(542,506,l),
(482,558,o),
(426,581,o),
(337,581,cs),
(156,581,o),
(50,461,o),
(50,299,cs),
(50,174,o),
(100,90,o),
(189,-12,c),
(328,69,l),
(266,155,o),
(240,216,o),
(240,295,cs),
(240,411,o),
(300,452,o),
(358,452,cs),
(385,452,o),
(403,442,o),
(415,428,cs),
(433,408,o),
(440,380,o),
(440,328,cs),
(440,0,l),
(627,0,l),
(627,313,ls),
(627,375,o),
(631,408,o),
(652,429,cs),
(668,445,o),
(686,452,o),
(714,452,cs),
(742,452,o),
(759,443,o),
(772,431,cs),
(797,407,o),
(802,368,o),
(802,293,cs),
(802,278,ls),
(802,160,o),
(827,89,o),
(883,44,cs),
(929,7,o),
(990,-12,o),
(1085,-12,cs),
(1268,-12,o),
(1375,103,o),
(1375,269,cs),
(1375,395,o),
(1325,479,o),
(1236,581,c),
(1097,500,l),
(1159,414,o),
(1185,353,o),
(1185,273,cs),
(1185,154,o),
(1136,117,o),
(1081,117,cs),
(1055,117,o),
(1036,124,o),
(1023,137,cs),
(998,161,o),
(993,204,o),
(993,264,cs),
(993,303,ls),
(993,411,o),
(970,480,o),
(913,526,cs),
(867,563,o),
(807,581,o),
(736,581,cs)
);
}
);
};
layerId = "2AD682F6-F6C7-4738-913E-50B961B61BC3";
shapes = (
{
closed = 1;
nodes = (
(176,171,o),
(33,408,o),
(174,480,cs),
(301,545,o),
(474,339,o),
(481,113,c),
(570,24,l),
(622,481,o),
(329,690,o),
(116,517,cs),
(-85,353,o),
(44,87,o),
(240,-8,c),
(326,77,l)
);
},
{
closed = 1;
nodes = (
(562,31,l),
(571,32,l),
(573,61,o),
(603,433,o),
(710,447,cs),
(781,456,o),
(828,375,o),
(820,267,cs),
(815,198,o),
(783,67,o),
(958,6,c),
(957,85,l),
(930,104,o),
(933,161,o),
(939,220,cs),
(943,258,o),
(946,296,o),
(941,328,cs),
(931,392,o),
(877,507,o),
(707,507,cs),
(563,507,o),
(481,321,o),
(481,113,c),
(555,38,l)
);
},
{
closed = 1;
nodes = (
(948,9,l),
(1105,-35,o),
(1217,33,o),
(1217,273,c),
(1116,375,l),
(1112,90,o),
(1049,23,o),
(947,92,c)
);
}
);
width = 1232;
}
);
unicode = 3384;
},
{
glyphname = hamlym;
lastChange = "2025-02-13 13:44:19 +0000";
layers = (
{
anchors = (
{
name = b.uni0D00;
pos = (695,0);
}
);
background = {
shapes = (
{
closed = 1;
nodes = (
(144,372,o),
(38,296,o),
(38,170,cs),
(38,97,o),
(71,37,o),
(119,-13,c),
(263,45,l),
(239,83,o),
(223,119,o),
(223,160,cs),
(223,210,o),
(247,245,o),
(298,245,cs),
(350,245,o),
(371,205,o),
(371,163,cs),
(371,123,o),
(354,92,o),
(340,70,c),
(403,0,l),
(803,0,l),
(801,128,l),
(532,128,l),
(529,76,l),
(542,105,o),
(549,143,o),
(549,173,cs),
(549,268,o),
(475,372,o),
(296,372,cs)
);
},
{
closed = 1;
nodes = (
(724,581,o),
(637,417,o),
(637,284,cs),
(637,196,o),
(668,134,o),
(736,65,c),
(770,0,l),
(848,0,l),
(907,84,l),
(858,146,o),
(827,203,o),
(827,281,cs),
(827,392,o),
(896,451,o),
(990,451,cs),
(1091,451,o),
(1152,386,o),
(1152,281,cs),
(1152,201,o),
(1118,139,o),
(1059,69,c),
(1197,-12,l),
(1290,72,o),
(1344,157,o),
(1344,284,cs),
(1344,426,o),
(1254,581,o),
(989,581,cs)
);
}
);
};
layerId = "2AD682F6-F6C7-4738-913E-50B961B61BC3";
shapes = (
{
closed = 1;
nodes = (
(906,61,l),
(466,61,l),
(436,0,l),
(987,-1,l)
);
},
{
closed = 1;
nodes = (
(106,144,o),
(118,250,o),
(192,298,cs),
(325,384,o),
(544,250,o),
(436,0,c),
(561,54,l),
(695,339,o),
(323,488,o),
(130,357,cs),
(-14,259,o),
(-39,52,o),
(149,-2,c),
(231,80,l)
);
},
{
closed = 1;
nodes = (
(918,71,o),
(711,349,o),
(822,458,cs),
(939,573,o),
(1215,358,o),
(1167,109,c),
(1247,28,l),
(1398,442,o),
(959,675,o),
(782,502,cs),
(628,352,o),
(702,135,o),
(898,-1,c),
(987,-1,l)
);
}
);
width = 1293;
}
);
unicode = 3385;
},
{
glyphname = tttamlym;
layers = (
{
anchors = (
{
name = b.uni0D00;
pos = (398,0);
}
);
background = {
shapes = (
{
closed = 1;
nodes = (
(223,128,l),
(374,514,l),
(194,574,l),
(14,105,l),
(99,0,l),
(346,0,l),
(346,-202,l),
(533,-202,l),
(533,0,l),
(776,0,l),
(776,128,l)
);
}
);
};
layerId = "2AD682F6-F6C7-4738-913E-50B961B61BC3";
shapes = (
{
closed = 1;
nodes = (
(223,128,l),
(374,514,l),
(194,574,l),
(14,105,l),
(99,0,l),
(346,0,l),
(346,-202,l),
(533,-202,l),
(533,0,l),
(776,0,l),
(776,128,l)
);
}
);
width = 796;
}
);
unicode = 3386;
},
{
glyphname = uni0D3B;
layers = (
{
anchors = (
{
name = _b.uni0D00;
pos = (-279,0);
},
{
name = _b.uni0D3B;
pos = (-447,0);
}
);
background = {
shapes = (
{
closed = 1;
nodes = (
(-337,603,l),
(-219,603,l),
(-219,864,l),
(-337,864,l)
);
}
);
};
layerId = "2AD682F6-F6C7-4738-913E-50B961B61BC3";
shapes = (
{
closed = 1;
nodes = (
(-337,603,l),
(-219,603,l),
(-219,864,l),
(-337,864,l)
);
}
);
width = 0;
}
);
unicode = 3387;
},
{
glyphname = uni0D3C;
layers = (
{
background = {
shapes = (
{
closed = 1;
nodes = (
(-310,652,o),
(-251,593,o),
(-146,593,cs),
(-41,593,o),
(19,652,o),
(19,728,cs),
(19,807,o),
(-43,864,o),
(-146,864,cs),
(-249,864,o),
(-310,806,o),
(-310,728,cs)
);
},
{
closed = 1;
nodes = (
(-192,754,o),
(-176,771,o),
(-146,771,cs),
(-118,771,o),
(-99,755,o),
(-99,729,cs),
(-99,705,o),
(-115,685,o),
(-146,685,cs),
(-177,685,o),
(-192,704,o),
(-192,728,cs)
);
}
);
};
layerId = "2AD682F6-F6C7-4738-913E-50B961B61BC3";
shapes = (
{
closed = 1;
nodes = (
(-310,652,o),
(-251,593,o),
(-146,593,cs),
(-41,593,o),
(19,652,o),
(19,728,cs),
(19,807,o),
(-43,864,o),
(-146,864,cs),
(-249,864,o),
(-310,806,o),
(-310,728,cs)
);
},
{
closed = 1;
nodes = (
(-192,754,o),
(-176,771,o),
(-146,771,cs),
(-118,771,o),
(-99,755,o),
(-99,729,cs),
(-99,705,o),
(-115,685,o),
(-146,685,cs),
(-177,685,o),
(-192,704,o),
(-192,728,cs)
);
}
);
width = 0;
}
);
unicode = 3388;
},
{
glyphname = avagrahamlym;
layers = (
{
background = {
shapes = (
{
closed = 1;
nodes = (
(337,805,o),
(280,782,o),
(242,740,cs),
(193,685,o),
(180,612,o),
(180,487,cs),
(180,5,ls),
(180,-63,o),
(178,-88,o),
(162,-104,cs),
(154,-112,o),
(143,-116,o),
(131,-116,cs),
(102,-116,o),
(89,-99,o),
(76,-49,c),
(-84,-82,l),
(-54,-166,o),
(-8,-244,o),
(131,-244,cs),
(212,-244,o),
(269,-221,o),
(307,-179,cs),
(356,-124,o),
(369,-51,o),
(369,74,cs),
(369,556,ls),
(369,624,o),
(371,649,o),
(387,665,cs),
(395,673,o),
(406,677,o),
(418,677,cs),
(447,677,o),
(460,660,o),
(473,610,c),
(633,643,l),
(603,727,o),
(557,805,o),
(418,805,cs)
);
}
);
};
layerId = "2AD682F6-F6C7-4738-913E-50B961B61BC3";
shapes = (
{
closed = 1;
nodes = (
(337,805,o),
(280,782,o),
(242,740,cs),
(193,685,o),
(180,612,o),
(180,487,cs),
(180,5,ls),
(180,-63,o),
(178,-88,o),
(162,-104,cs),
(154,-112,o),
(143,-116,o),
(131,-116,cs),
(102,-116,o),
(89,-99,o),
(76,-49,c),
(-84,-82,l),
(-54,-166,o),
(-8,-244,o),
(131,-244,cs),
(212,-244,o),
(269,-221,o),
(307,-179,c),
(356,-124,o),
(369,-51,o),
(369,74,cs),
(369,556,ls),
(369,624,o),
(371,649,o),
(387,665,cs),
(395,673,o),
(406,677,o),
(418,677,cs),
(447,677,o),
(460,660,o),
(473,610,c),
(633,643,l),
(603,727,o),
(557,805,o),
(418,805,cs)
);
}
);
width = 549;
}
);
unicode = 3389;
},
{
glyphname = aavowelsignmlym;
lastChange = "2025-02-12 18:07:15 +0000";
layers = (
{
background = {
shapes = (
{
closed = 1;
nodes = (
(620,437,o),
(560,581,o),
(344,581,cs),
(154,581,o),
(93,480,o),
(61,384,c),
(254,351,l),
(267,409,o),
(289,453,o),
(340,453,cs),
(402,453,o),
(428,387,o),
(428,284,cs),
(428,180,o),
(402,116,o),
(338,116,cs),
(284,116,o),
(266,158,o),
(251,218,c),
(59,186,l),
(82,93,o),
(131,-12,o),
(334,-12,cs),
(561,-12,o),
(620,129,o),
(620,287,cs)
);
}
);
};
guides = (
{
pos = (510,0);
},
{
pos = (510,80);
},
{
angle = 135;
pos = (117,160);
}
);
layerId = "2AD682F6-F6C7-4738-913E-50B961B61BC3";
shapes = (
{
closed = 1;
nodes = (
(99,326,l),
(266,512,o),
(487,110,o),
(192,81,c),
(275,-3,l),
(668,172,o),
(218,642,o),
(15,410,c)
);
}
);
width = 446;
}
);
unicode = 3390;
},
{
glyphname = ivowelsignmlym;
lastChange = "2025-02-12 18:11:27 +0000";
layers = (
{
background = {
shapes = (
{
closed = 1;
nodes = (
(-170,853,o),
(-266,794,o),
(-266,674,cs),
(-266,653,o),
(-263,634,o),
(-257,618,c),
(-75,639,l),
(-78,648,o),
(-80,660,o),
(-80,670,cs),
(-80,706,o),
(-55,725,o),
(-25,725,cs),
(-2,725,o),
(13,717,o),
(25,704,cs),
(47,678,o),
(53,641,o),
(53,528,cs),
(53,0,l),
(240,0,l),
(240,544,ls),
(240,684,o),
(209,765,o),
(132,814,cs),
(93,839,o),
(42,853,o),
(-23,853,cs)
);
}
);
};
guides = (
{
pos = (479,2);
},
{
pos = (479,82);
},
{
angle = 135;
pos = (284,183);
},
{
pos = (544,821);
},
{
pos = (542,764);
}
);
layerId = "2AD682F6-F6C7-4738-913E-50B961B61BC3";
shapes = (
{
closed = 1;
nodes = (
(-350,810,l),
(-312,838,o),
(-262,851,o),
(-221,851,cs),
(61,851,o),
(190,520,o),
(204,70,c),
(133,0,l),
(96,422,o),
(-38,895,o),
(-296,756,c)
);
}
);
width = 224;
}
);
unicode = 3391;
},
{
glyphname = iivowelsignmlym;
lastChange = "2025-02-12 18:17:17 +0000";
layers = (
{
background = {
shapes = (
{
closed = 1;
nodes = (
(-250,853,o),
(-313,793,o),
(-313,710,cs),
(-313,624,o),
(-256,576,o),
(-146,576,cs),
(-30,576,o),
(19,639,o),
(19,707,cs),
(19,732,o),
(9,767,o),
(-2,779,c),
(-159,797,l),
(-127,778,o),
(-105,755,o),
(-105,722,cs),
(-105,701,o),
(-114,681,o),
(-142,681,cs),
(-166,681,o),
(-176,697,o),
(-176,711,cs),
(-176,744,o),
(-146,754,o),
(-114,754,cs),
(-73,754,o),
(-40,749,o),
(-18,742,c),
(39,717,o),
(55,646,o),
(55,511,cs),
(55,0,l),
(242,0,l),
(242,503,ls),
(242,653,o),
(205,747,o),
(107,806,cs),
(54,838,o),
(-13,853,o),
(-99,853,cs)
);
}
);
};
guides = (
{
pos = (479,665);
},
{
pos = (479,745);
},
{
angle = 135;
pos = (335,246);
}
);
layerId = "2AD682F6-F6C7-4738-913E-50B961B61BC3";
shapes = (
{
closed = 1;
nodes = (
(-84,665,l),
(-151,592,o),
(-359,582,o),
(-391,699,cs),
(-419,800,o),
(-297,851,o),
(-223,851,cs),
(87,851,o),
(194,463,o),
(204,70,c),
(133,0,l),
(99,294,o),
(20,823,o),
(-231,779,cs),
(-404,749,o),
(-312,600,o),
(-164,745,c)
);
}
);
width = 269;
}
);
unicode = 3392;
},
{
glyphname = uvowelsignmlym;
lastChange = "2025-02-12 18:06:47 +0000";
layers = (
{
background = {
shapes = (
{
closed = 1;
nodes = (
(398,-241,o),
(479,-167,o),
(479,-55,cs),
(479,61,o),
(393,135,o),
(251,135,cs),
(108,135,o),
(26,58,o),
(26,-53,cs),
(26,-163,o),
(105,-241,o),
(252,-241,cs)
);
},
{
closed = 1;
nodes = (
(212,-120,o),
(187,-94,o),
(187,-52,cs),
(187,-8,o),
(214,17,o),
(251,17,cs),
(293,17,o),
(318,-9,o),
(318,-52,cs),
(318,-98,o),
(291,-120,o),
(253,-120,cs)
);
},
{
closed = 1;
nodes = (
(162,581,o),
(126,575,o),
(88,567,c),
(113,445,l),
(133,450,o),
(147,451,o),
(163,451,cs),
(212,451,o),
(224,411,o),
(224,369,cs),
(224,298,o),
(206,215,o),
(176,119,c),
(348,104,l),
(386,209,o),
(413,295,o),
(413,401,cs),
(413,498,o),
(358,581,o),
(218,581,cs)
);
}
);
};
guides = (
{
pos = (546,58);
},
{
pos = (544,1);
},
{
angle = 45;
pos = (333,-12);
},
{
pos = (540,-92);
},
{
pos = (540,-12);
}
);
layerId = "2AD682F6-F6C7-4738-913E-50B961B61BC3";
shapes = (
{
closed = 1;
nodes = (
(109,326,l),
(284,487,o),
(378,183,o),
(159,58,c),
(224,1,l),
(609,288,o),
(226,639,o),
(25,410,c)
);
},
{
closed = 1;
nodes = (
(159,58,l),
(-190,-158,o),
(184,-357,o),
(340,-254,cs),
(434,-191,o),
(437,-62,o),
(277,-10,c),
(194,-93,l),
(346,-98,o),
(335,-186,o),
(291,-215,cs),
(215,-266,o),
(74,-103,o),
(224,1,c)
);
}
);
width = 428;
}
);
unicode = 3393;
},
{
glyphname = uuvowelsignmlym;
layers = (
{
background = {
shapes = (
{
closed = 1;
nodes = (
(339,-241,o),
(420,-167,o),
(420,-55,cs),
(420,61,o),
(334,135,o),
(192,135,cs),
(49,135,o),
(-33,58,o),
(-33,-53,cs),
(-33,-163,o),
(46,-241,o),
(193,-241,cs)
);
},
{
closed = 1;
nodes = (
(251,36,o),
(296,7,o),
(296,-53,cs),
(296,-114,o),
(250,-143,o),
(194,-143,cs),
(138,-143,o),
(91,-113,o),
(91,-53,cs),
(91,5,o),
(140,36,o),
(192,36,cs)
);
},
{
closed = 1;
nodes = (
(280,-103,o),
(310,-44,o),
(310,15,cs),
(310,44,o),
(299,70,o),
(269,102,c),
(220,74,l),
(240,64,o),
(252,48,o),
(252,33,cs),
(252,4,o),
(230,-15,o),
(196,-15,cs),
(161,-15,o),
(140,1,o),
(140,33,cs),
(140,51,o),
(152,69,o),
(174,81,c),
(125,102,l),
(96,68,o),
(81,40,o),
(81,16,cs),
(81,-55,o),
(119,-103,o),
(195,-103,cs)
);
},
{
closed = 1;
nodes = (
(103,581,o),
(67,575,o),
(29,567,c),
(54,445,l),
(74,450,o),
(88,451,o),
(104,451,cs),
(153,451,o),
(165,411,o),
(165,369,cs),
(165,298,o),
(147,215,o),
(117,119,c),
(289,104,l),
(327,209,o),
(354,295,o),
(354,401,cs),
(354,498,o),
(299,581,o),
(159,581,cs)
);
}
);
};
layerId = "2AD682F6-F6C7-4738-913E-50B961B61BC3";
shapes = (
{
closed = 1;
nodes = (
(339,-241,o),
(420,-167,o),
(420,-55,cs),
(420,61,o),
(334,135,o),
(192,135,cs),
(49,135,o),
(-33,58,o),
(-33,-53,cs),
(-33,-163,o),
(46,-241,o),
(193,-241,cs)
);
},
{
closed = 1;
nodes = (
(251,36,o),
(296,7,o),
(296,-53,cs),
(296,-114,o),
(250,-143,o),
(194,-143,cs),
(138,-143,o),
(91,-113,o),
(91,-53,cs),
(91,5,o),
(140,36,o),
(192,36,cs)
);
},
{
closed = 1;
nodes = (
(280,-103,o),
(310,-44,o),
(310,15,cs),
(310,44,o),
(299,70,o),
(269,102,c),
(220,74,l),
(240,64,o),
(252,48,o),
(252,33,cs),
(252,4,o),
(230,-15,o),
(196,-15,cs),
(161,-15,o),
(140,1,o),
(140,33,cs),
(140,51,o),
(152,69,o),
(174,81,c),
(125,102,l),
(96,68,o),
(81,40,o),
(81,16,cs),
(81,-55,o),
(119,-103,o),
(195,-103,cs)
);
},
{
closed = 1;
nodes = (
(103,581,o),
(67,575,o),
(29,567,c),
(54,445,l),
(74,450,o),
(88,451,o),
(104,451,cs),
(153,451,o),
(165,411,o),
(165,369,cs),
(165,298,o),
(147,215,o),
(117,119,c),
(289,104,l),
(327,209,o),
(354,295,o),
(354,401,cs),
(354,498,o),
(299,581,o),
(159,581,cs)
);
}
);
width = 412;
}
);
unicode = 3394;
},
{
glyphname = rvocalicvowelsignmlym;
lastChange = "2025-02-12 18:08:25 +0000";
layers = (
{
background = {
shapes = (
{
closed = 1;
nodes = (
(113,-337,o),
(231,-275,o),
(231,-117,cs),
(231,-48,o),
(218,5,o),
(173,122,cs),
(144,199,o),
(128,257,o),
(128,322,cs),
(128,401,o),
(152,472,o),
(207,569,c),
(18,569,l),
(-24,497,o),
(-59,412,o),
(-59,309,cs),
(-59,228,o),
(-36,152,o),
(1,62,cs),
(42,-36,o),
(52,-92,o),
(52,-120,cs),
(52,-189,o),
(23,-211,o),
(-28,-211,cs),
(-59,-211,o),
(-81,-201,o),
(-81,-174,cs),
(-81,-151,o),
(-65,-138,o),
(-29,-138,cs),
(11,-138,o),
(37,-149,o),
(70,-172,c),
(113,-77,l),
(53,-34,o),
(9,-19,o),
(-60,-19,cs),
(-182,-19,o),
(-254,-83,o),
(-254,-173,cs),
(-254,-284,o),
(-173,-337,o),
(-28,-337,cs)
);
}
);
};
guides = (
{
pos = (465,261);
},
{
pos = (465,341);
},
{
angle = 45;
pos = (49,-20);
},
{
pos = (471,-82);
},
{
pos = (469,-139);
}
);
layerId = "2AD682F6-F6C7-4738-913E-50B961B61BC3";
shapes = (
{
closed = 1;
nodes = (
(-115,-19,o),
(-223,1,o),
(-274,-102,cs),
(-305,-163,o),
(-209,-254,o),
(-107,-263,c),
(43,-269,o),
(270,-150,o),
(170,433,c),
(81,344,l),
(119,53,o),
(36,-212,o),
(-108,-203,c),
(-172,-196,o),
(-216,-148,o),
(-205,-126,cs),
(-181,-79,o),
(-124,-127,o),
(-116,-144,c),
(-55,-82,l)
);
}
);
width = 210;
}
);
unicode = 3395;
},
{
glyphname = rrvocalicvowelsignmlym;
layers = (
{
background = {
shapes = (
{
closed = 1;
nodes = (
(240,-337,o),
(324,-242,o),
(324,-116,cs),
(324,-45,o),
(309,15,o),
(272,114,cs),
(240,199,o),
(224,257,o),
(224,322,cs),
(224,401,o),
(248,472,o),
(303,569,c),
(114,569,l),
(72,497,o),
(37,412,o),
(37,309,cs),
(37,228,o),
(60,152,o),
(99,58,cs),
(135,-28,o),
(141,-68,o),
(141,-110,cs),
(141,-187,o),
(92,-214,o),
(-23,-214,cs),
(-131,-214,o),
(-172,-196,o),
(-172,-159,cs),
(-172,-144,o),
(-166,-130,o),
(-145,-130,cs),
(-131,-130,o),
(-119,-138,o),
(-119,-164,cs),
(-119,-178,l),
(-25,-178,l),
(-25,-163,ls),
(-25,-147,o),
(-21,-130,o),
(-1,-130,cs),
(16,-130,o),
(22,-146,o),
(22,-164,cs),
(22,-178,l),
(121,-178,l),
(121,-151,ls),
(121,-102,o),
(111,-22,o),
(7,-22,cs),
(-33,-22,o),
(-61,-42,o),
(-84,-69,c),
(-65,-68,l),
(-90,-37,o),
(-121,-22,o),
(-168,-22,cs),
(-248,-22,o),
(-305,-77,o),
(-305,-159,cs),
(-305,-273,o),
(-208,-337,o),
(-24,-337,cs)
);
}
);
};
layerId = "2AD682F6-F6C7-4738-913E-50B961B61BC3";
shapes = (
{
closed = 1;
nodes = (
(240,-337,o),
(324,-242,o),
(324,-116,cs),
(324,-45,o),
(309,15,o),
(272,114,cs),
(240,199,o),
(224,257,o),
(224,322,cs),
(224,401,o),
(248,472,o),
(303,569,c),
(114,569,l),
(72,497,o),
(37,412,o),
(37,309,cs),
(37,228,o),
(60,152,o),
(99,58,cs),
(135,-28,o),
(141,-68,o),
(141,-110,cs),
(141,-187,o),
(92,-214,o),
(-23,-214,cs),
(-131,-214,o),
(-172,-196,o),
(-172,-159,cs),
(-172,-144,o),
(-166,-130,o),
(-145,-130,cs),
(-131,-130,o),
(-119,-138,o),
(-119,-164,cs),
(-119,-178,l),
(-25,-178,l),
(-25,-163,ls),
(-25,-147,o),
(-21,-130,o),
(-1,-130,cs),
(16,-130,o),
(22,-146,o),
(22,-164,cs),
(22,-178,l),
(121,-178,l),
(121,-151,ls),
(121,-102,o),
(111,-22,o),
(7,-22,cs),
(-33,-22,o),
(-61,-42,o),
(-84,-69,c),
(-65,-68,l),
(-90,-37,o),
(-121,-22,o),
(-168,-22,cs),
(-248,-22,o),
(-305,-77,o),
(-305,-159,cs),
(-305,-273,o),
(-208,-337,o),
(-24,-337,cs)
);
}
);
width = 326;
}
);
unicode = 3396;
},
{
glyphname = evowelsignmlym;
lastChange = "2025-02-11 18:41:26 +0000";
layers = (
{
background = {
shapes = (
{
closed = 1;
nodes = (
(432,-12,o),
(506,61,o),
(506,179,cs),
(506,285,o),
(444,359,o),
(316,359,cs),
(227,359,o),
(171,321,o),
(118,276,c),
(139,156,l),
(193,215,o),
(222,240,o),
(267,240,cs),
(303,240,o),
(325,216,o),
(325,173,cs),
(325,127,o),
(306,108,o),
(273,108,cs),
(235,108,o),
(202,135,o),
(202,244,cs),
(202,369,o),
(292,452,o),
(426,452,cs),
(553,452,o),
(611,386,o),
(611,281,cs),
(611,201,o),
(577,139,o),
(518,69,c),
(656,-12,l),
(744,65,o),
(803,154,o),
(803,284,cs),
(803,426,o),
(715,581,o),
(441,581,cs),
(177,581,o),
(33,438,o),
(33,245,cs),
(33,62,o),
(139,-12,o),
(278,-12,cs)
);
}
);
};
guides = (
{
angle = 135;
pos = (538,119);
}
);
layerId = "2AD682F6-F6C7-4738-913E-50B961B61BC3";
shapes = (
{
closed = 1;
nodes = (
(156,81,o),
(53,364,o),
(132,463,cs),
(256,616,o),
(592,380,o),
(547,110,c),
(651,6,l),
(705,463,o),
(254,696,o),
(82,509,cs),
(-65,348,o),
(56,152,o),
(189,43,c),
(299,91,l)
);
},
{
closed = 1;
nodes = (
(172,59,c),
(326,-92,o),
(514,129,o),
(426,202,cs),
(336,274,o),
(239,192,o),
(217,178,c),
(261,134,l),
(348,206,o),
(368,165,o),
(377,148,c),
(383,132,o),
(395,108,o)
);
}
);
width = 670;
}
);
unicode = 3398;
},
{
glyphname = eevowelsignmlym;
lastChange = "2025-02-11 18:47:52 +0000";
layers = (
{
background = {
shapes = (
{
closed = 1;
nodes = (
(585,-12,o),
(649,59,o),
(649,135,cs),
(649,237,o),
(580,279,o),
(463,279,cs),
(325,279,o),
(283,223,o),
(283,144,cs),
(283,122,o),
(292,98,o),
(300,83,c),
(452,62,l),
(428,85,o),
(418,108,o),
(418,132,cs),
(418,161,o),
(433,174,o),
(458,174,cs),
(483,174,o),
(494,160,o),
(494,141,cs),
(494,123,o),
(476,96,o),
(432,96,cs),
(409,96,o),
(386,98,o),
(373,100,cs),
(260,114,o),
(218,183,o),
(218,287,cs),
(218,385,o),
(274,460,o),
(379,471,cs),
(397,473,o),
(420,473,o),
(439,473,cs),
(479,473,o),
(501,456,o),
(501,429,cs),
(501,408,o),
(488,396,o),
(463,396,cs),
(436,396,o),
(424,409,o),
(424,438,cs),
(424,467,o),
(442,492,o),
(464,511,c),
(312,495,l),
(300,479,o),
(289,448,o),
(289,424,cs),
(289,351,o),
(326,291,o),
(468,291,cs),
(589,291,o),
(656,332,o),
(656,431,cs),
(656,508,o),
(597,581,o),
(413,581,cs),
(192,581,o),
(32,489,o),
(32,288,cs),
(32,73,o),
(186,-12,o),
(409,-12,cs)
);
}
);
};
layerId = "2AD682F6-F6C7-4738-913E-50B961B61BC3";
shapes = (
{
closed = 1;
nodes = (
(383,132,o),
(395,108,o),
(172,59,c),
(326,-92,o),
(514,129,o),
(426,202,cs),
(336,274,o),
(239,192,o),
(217,178,c),
(261,134,l),
(348,206,o),
(368,165,o),
(377,148,c)
);
},
{
closed = 1;
nodes = (
(50,466,l),
(-44,315,o),
(68,143,o),
(189,43,c),
(299,91,l),
(167,82,o),
(52,335,o),
(99,450,c)
);
},
{
closed = 1;
nodes = (
(280,322,o),
(250,295,o),
(163,367,c),
(119,323,l),
(141,309,o),
(238,227,o),
(328,299,cs),
(416,372,o),
(173,646,o),
(50,466,c),
(277,485,o),
(295,379,o),
(285,341,cs)
);
},
{
closed = 1;
nodes = (
(96,461,o),
(129,469,o),
(157,465,c),
(76,487,l),
(50,465,l),
(89,419,l)
);
}
);
width = 689;
}
);
unicode = 3399;
},
{
glyphname = viramamlym;
lastChange = "2025-02-13 05:21:49 +0000";
layers = (
{
anchors = (
{
name = _virama;
pos = (-361,752);
}
);
background = {
shapes = (
{
closed = 1;
nodes = (
(36,599,o),
(97,667,o),
(97,768,cs),
(97,796,o),
(91,823,o),
(84,840,c),
(-72,812,l),
(-69,801,o),
(-67,787,o),
(-67,774,cs),
(-67,731,o),
(-95,718,o),
(-131,718,cs),
(-166,718,o),
(-191,732,o),
(-191,774,cs),
(-191,787,o),
(-189,801,o),
(-185,812,c),
(-346,840,l),
(-354,822,o),
(-361,796,o),
(-361,768,cs),
(-361,667,o),
(-297,599,o),
(-133,599,cs)
);
}
);
};
guides = (
{
pos = (511,700);
},
{
pos = (511,780);
},
{
angle = 135;
pos = (9,885);
}
);
layerId = "2AD682F6-F6C7-4738-913E-50B961B61BC3";
shapes = (
{
closed = 1;
nodes = (
(-317,700,l),
(-231,654,o),
(13,626,o),
(74,820,c),
(-6,900,l),
(19,791,o),
(-80,674,o),
(-237,780,c)
);
}
);
width = 0;
}
);
unicode = 3405;
},
{
glyphname = rephmlym;
layers = (
{
anchors = (
{
name = _b.uni0D00;
pos = (-279,0);
},
{
name = b.uni0D3B;
pos = (-180,0);
}
);
background = {
shapes = (
{
closed = 1;
nodes = (
(-377,843,l),
(-368,637,l),
(-190,637,l),
(-180,843,l)
);
}
);
};
layerId = "2AD682F6-F6C7-4738-913E-50B961B61BC3";
shapes = (
{
closed = 1;
nodes = (
(-377,843,l),
(-368,637,l),
(-190,637,l),
(-180,843,l)
);
}
);
width = 0;
}
);
unicode = 3406;
},
{
glyphname = uni0D4F;
layers = (
{
background = {
shapes = (
{
closed = 1;
nodes = (
(453,581,o),
(284,460,o),
(284,244,cs),
(284,63,o),
(390,-12,o),
(529,-12,cs),
(683,-12,o),
(757,61,o),
(757,180,cs),
(757,285,o),
(695,359,o),
(567,359,cs),
(481,359,o),
(422,321,o),
(369,276,c),
(390,156,l),
(444,215,o),
(473,240,o),
(518,240,cs),
(554,240,o),
(576,216,o),
(576,173,cs),
(576,127,o),
(557,108,o),
(524,108,cs),
(486,108,o),
(453,135,o),
(453,240,cs),
(453,244,ls),
(453,380,o),
(552,453,o),
(669,453,cs),
(720,453,o),
(756,443,o),
(780,424,cs),
(813,397,o),
(825,359,o),
(825,273,cs),
(825,0,l),
(1012,0,l),
(1012,327,ls),
(1012,380,o),
(1019,408,o),
(1037,428,cs),
(1049,442,o),
(1068,452,o),
(1096,452,cs),
(1155,452,o),
(1208,383,o),
(1208,244,cs),
(1208,33,o),
(1123,-116,o),
(711,-116,cs),
(295,-116,o),
(212,27,o),
(212,234,cs),
(212,319,o),
(230,412,o),
(275,500,c),
(126,564,l),
(71,460,o),
(39,336,o),
(39,234,cs),
(39,-28,o),
(191,-252,o),
(712,-252,cs),
(1194,-252,o),
(1398,-77,o),
(1398,241,cs),
(1398,431,o),
(1314,581,o),
(1117,581,cs),
(1026,581,o),
(966,559,o),
(905,505,c),
(955,480,l),
(880,553,o),
(798,581,o),
(673,581,cs)
);
}
);
};
layerId = "2AD682F6-F6C7-4738-913E-50B961B61BC3";
shapes = (
{
closed = 1;
nodes = (
(453,581,o),
(284,460,o),
(284,244,cs),
(284,63,o),
(390,-12,o),
(529,-12,cs),
(683,-12,o),
(757,61,o),
(757,180,cs),
(757,285,o),
(695,359,o),
(567,359,cs),
(481,359,o),
(422,321,o),
(369,276,c),
(390,156,l),
(444,215,o),
(473,240,o),
(518,240,cs),
(554,240,o),
(576,216,o),
(576,173,cs),
(576,127,o),
(557,108,o),
(524,108,cs),
(486,108,o),
(453,135,o),
(453,240,cs),
(453,244,ls),
(453,380,o),
(552,453,o),
(669,453,cs),
(720,453,o),
(756,443,o),
(780,424,cs),
(813,397,o),
(825,359,o),
(825,273,cs),
(825,0,l),
(1012,0,l),
(1012,327,ls),
(1012,380,o),
(1019,408,o),
(1037,428,cs),
(1049,442,o),
(1068,452,o),
(1096,452,cs),
(1155,452,o),
(1208,383,o),
(1208,244,cs),
(1208,33,o),
(1123,-116,o),
(711,-116,cs),
(295,-116,o),
(212,27,o),
(212,234,cs),
(212,319,o),
(230,412,o),
(275,500,c),
(126,564,l),
(71,460,o),
(39,336,o),
(39,234,cs),
(39,-28,o),
(191,-252,o),
(712,-252,cs),
(1194,-252,o),
(1398,-77,o),
(1398,241,cs),
(1398,431,o),
(1314,581,o),
(1117,581,cs),
(1026,581,o),
(966,559,o),
(905,505,c),
(955,480,l),
(880,553,o),
(798,581,o),
(673,581,cs)
);
}
);
width = 1433;
}
);
unicode = 3407;
},
{
glyphname = machillumlym;
layers = (
{
anchors = (
{
name = b.uni0D00;
pos = (528,0);
},
{
name = virama;
pos = (501,709);
}
);
background = {
shapes = (
{
closed = 1;
nodes = (
(191,803,o),
(139,795,o),
(101,783,c),
(131,667,l),
(149,672,o),
(173,676,o),
(193,676,cs),
(210,676,o),
(220,673,o),
(229,666,cs),
(238,659,o),
(245,643,o),
(245,609,cs),
(245,521,ls),
(245,395,o),
(293,285,o),
(404,208,c),
(449,183,l),
(489,142,o),
(531,110,o),
(605,59,c),
(631,114,l),
(603,118,o),
(548,120,o),
(491,120,cs),
(471,120,ls),
(450,120,o),
(405,119,o),
(373,113,c),
(358,85,l),
(420,117,o),
(493,166,o),
(532,198,c),
(568,210,l),
(623,254,o),
(661,308,o),
(661,384,cs),
(661,515,o),
(541,580,o),
(398,580,cs),
(303,580,o),
(218,555,o),
(159,510,cs),
(90,457,o),
(51,384,o),
(51,242,cs),
(51,0,l),
(695,0,l),
(749,111,l),
(666,170,o),
(601,224,o),
(551,270,c),
(509,296,l),
(437,356,o),
(421,423,o),
(421,478,cs),
(421,619,ls),
(421,693,o),
(404,747,o),
(356,777,cs),
(330,793,o),
(297,803,o),
(245,803,cs)
);
},
{
closed = 1;
nodes = (
(237,246,ls),
(237,337,o),
(247,380,o),
(267,410,cs),
(288,441,o),
(332,462,o),
(381,462,cs),
(439,462,o),
(482,436,o),
(482,380,cs),
(482,352,o),
(469,324,o),
(449,296,c),
(404,273,l),
(350,220,o),
(261,139,o),
(175,90,c),
(237,68,l)
);
}
);
};
layerId = "2AD682F6-F6C7-4738-913E-50B961B61BC3";
shapes = (
{
closed = 1;
nodes = (
(191,803,o),
(139,795,o),
(101,783,c),
(131,667,l),
(149,672,o),
(173,676,o),
(193,676,cs),
(210,676,o),
(220,673,o),
(229,666,cs),
(238,659,o),
(245,643,o),
(245,609,cs),
(245,521,ls),
(245,395,o),
(293,285,o),
(404,208,c),
(449,183,l),
(489,142,o),
(531,110,o),
(605,59,c),
(631,114,l),
(603,118,o),
(548,120,o),
(491,120,cs),
(471,120,ls),
(450,120,o),
(405,119,o),
(373,113,c),
(358,85,l),
(420,117,o),
(493,166,o),
(532,198,c),
(568,210,l),
(623,254,o),
(661,308,o),
(661,384,cs),
(661,515,o),
(541,580,o),
(398,580,cs),
(303,580,o),
(218,555,o),
(159,510,cs),
(90,457,o),
(51,384,o),
(51,242,cs),
(51,0,l),
(695,0,l),
(749,111,l),
(666,170,o),
(601,224,o),
(551,270,c),
(509,296,l),
(437,356,o),
(421,423,o),
(421,478,cs),
(421,619,ls),
(421,693,o),
(404,747,o),
(356,777,cs),
(330,793,o),
(297,803,o),
(245,803,cs)
);
},
{
closed = 1;
nodes = (
(237,246,ls),
(237,337,o),
(247,380,o),
(267,410,cs),
(288,441,o),
(332,462,o),
(381,462,cs),
(439,462,o),
(482,436,o),
(482,380,cs),
(482,352,o),
(469,324,o),
(449,296,c),
(404,273,l),
(350,220,o),
(261,139,o),
(175,90,c),
(237,68,l)
);
}
);
width = 757;
}
);
unicode = 3412;
},
{
glyphname = yachillumlym;
layers = (
{
anchors = (
{
name = b.uni0D00;
pos = (593,0);
},
{
name = virama;
pos = (1080,709);
}
);
background = {
shapes = (
{
closed = 1;
nodes = (
(1088,-12,o),
(1155,155,o),
(1155,258,cs),
(1155,355,o),
(1117,433,o),
(1039,532,cs),
(983,603,o),
(973,619,o),
(973,646,cs),
(973,667,o),
(988,678,o),
(1011,678,cs),
(1036,678,o),
(1063,671,o),
(1080,665,c),
(1110,785,l),
(1075,795,o),
(1029,803,o),
(966,803,cs),
(853,803,o),
(787,745,o),
(787,662,cs),
(787,599,o),
(807,556,o),
(881,456,cs),
(948,366,o),
(965,320,o),
(965,263,cs),
(965,172,o),
(899,111,o),
(783,111,cs),
(732,111,o),
(711,116,o),
(688,121,cs),
(671,125,o),
(655,124,o),
(641,131,cs),
(569,168,o),
(524,248,o),
(524,336,cs),
(524,422,o),
(558,453,o),
(601,453,cs),
(641,453,o),
(677,420,o),
(677,338,cs),
(677,244,o),
(630,167,o),
(563,133,cs),
(552,128,o),
(536,127,o),
(524,123,cs),
(498,115,o),
(469,111,o),
(439,111,cs),
(297,111,o),
(218,209,o),
(218,335,cs),
(218,410,o),
(254,453,o),
(305,453,cs),
(339,453,o),
(364,439,o),
(392,396,c),
(532,459,l),
(481,548,o),
(401,581,o),
(305,581,cs),
(124,581,o),
(31,473,o),
(31,334,cs),
(31,128,o),
(163,-12,o),
(433,-12,cs),
(509,-12,o),
(587,4,o),
(656,35,cs),
(669,41,o),
(681,51,o),
(693,58,cs),
(779,106,o),
(864,204,o),
(864,334,cs),
(864,494,o),
(765,581,o),
(600,581,cs),
(511,581,o),
(439,554,o),
(398,499,c),
(380,477,l),
(354,439,o),
(337,392,o),
(337,338,cs),
(337,202,o),
(411,109,o),
(518,52,cs),
(532,45,o),
(546,34,o),
(560,28,cs),
(623,1,o),
(692,-12,o),
(781,-12,cs)
);
}
);
};
layerId = "2AD682F6-F6C7-4738-913E-50B961B61BC3";
shapes = (
{
closed = 1;
nodes = (
(1088,-12,o),
(1155,155,o),
(1155,258,cs),
(1155,355,o),
(1117,433,o),
(1039,532,cs),
(983,603,o),
(973,619,o),
(973,646,cs),
(973,667,o),
(988,678,o),
(1011,678,cs),
(1036,678,o),
(1063,671,o),
(1080,665,c),
(1110,785,l),
(1075,795,o),
(1029,803,o),
(966,803,cs),
(853,803,o),
(787,745,o),
(787,662,cs),
(787,599,o),
(807,556,o),
(881,456,cs),
(948,366,o),
(965,320,o),
(965,263,cs),
(965,172,o),
(899,111,o),
(783,111,cs),
(732,111,o),
(711,116,o),
(688,121,cs),
(671,125,o),
(655,124,o),
(641,131,cs),
(569,168,o),
(524,248,o),
(524,336,cs),
(524,422,o),
(558,453,o),
(601,453,cs),
(641,453,o),
(677,420,o),
(677,338,cs),
(677,244,o),
(630,167,o),
(563,133,cs),
(552,128,o),
(536,127,o),
(524,123,cs),
(498,115,o),
(469,111,o),
(439,111,cs),
(297,111,o),
(218,209,o),
(218,335,cs),
(218,410,o),
(254,453,o),
(305,453,cs),
(339,453,o),
(364,439,o),
(392,396,c),
(532,459,l),
(481,548,o),
(401,581,o),
(305,581,cs),
(124,581,o),
(31,473,o),
(31,334,cs),
(31,128,o),
(163,-12,o),
(433,-12,cs),
(509,-12,o),
(587,4,o),
(656,35,cs),
(669,41,o),
(681,51,o),
(693,58,cs),
(779,106,o),
(864,204,o),
(864,334,cs),
(864,494,o),
(765,581,o),
(600,581,cs),
(511,581,o),
(439,554,o),
(398,499,c),
(380,477,l),
(354,439,o),
(337,392,o),
(337,338,cs),
(337,202,o),
(411,109,o),
(518,52,cs),
(532,45,o),
(546,34,o),
(560,28,cs),
(623,1,o),
(692,-12,o),
(781,-12,cs)
);
}
);
width = 1187;
}
);
unicode = 3413;
},
{
glyphname = lllachillumlym;
layers = (
{
anchors = (
{
name = b.uni0D00;
pos = (654,0);
},
{
name = virama;
pos = (571,709);
}
);
background = {
shapes = (
{
closed = 1;
nodes = (
(331,238,o),
(349,300,o),
(417,410,cs),
(494,535,o),
(519,581,o),
(519,654,cs),
(519,729,o),
(480,803,o),
(332,803,cs),
(277,803,o),
(224,794,o),
(186,782,c),
(216,668,l),
(230,671,o),
(254,676,o),
(285,676,cs),
(319,676,o),
(335,659,o),
(335,628,cs),
(335,593,o),
(313,548,o),
(274,476,cs),
(206,350,o),
(171,268,o),
(171,185,cs),
(171,50,o),
(268,-12,o),
(413,-12,cs),
(613,-12,o),
(657,62,o),
(657,142,cs),
(657,256,o),
(570,322,o),
(570,410,cs),
(570,437,o),
(586,462,o),
(619,462,cs),
(653,462,o),
(670,436,o),
(670,400,cs),
(670,324,o),
(621,270,o),
(474,270,cs),
(440,270,ls),
(388,270,o),
(339,276,o),
(299,293,c),
(242,320,l),
(221,347,o),
(211,362,o),
(211,412,cs),
(211,451,o),
(220,477,o),
(240,511,c),
(95,581,l),
(52,523,o),
(30,462,o),
(30,404,cs),
(30,280,o),
(106,216,o),
(209,184,c),
(261,176,l),
(315,164,o),
(370,157,o),
(429,157,cs),
(503,157,ls),
(747,157,o),
(854,251,o),
(854,387,cs),
(854,486,o),
(791,581,o),
(609,581,cs),
(503,581,o),
(404,511,o),
(404,401,cs),
(404,295,o),
(479,227,o),
(479,160,cs),
(479,131,o),
(459,115,o),
(413,115,cs),
(362,115,o),
(331,136,o),
(331,190,cs)
);
}
);
};
layerId = "2AD682F6-F6C7-4738-913E-50B961B61BC3";
shapes = (
{
closed = 1;
nodes = (
(331,238,o),
(349,300,o),
(417,410,cs),
(494,535,o),
(519,581,o),
(519,654,cs),
(519,729,o),
(480,803,o),
(332,803,cs),
(277,803,o),
(224,794,o),
(186,782,c),
(216,668,l),
(230,671,o),
(254,676,o),
(285,676,cs),
(319,676,o),
(335,659,o),
(335,628,cs),
(335,593,o),
(313,548,o),
(274,476,cs),
(206,350,o),
(171,268,o),
(171,185,cs),
(171,50,o),
(268,-12,o),
(413,-12,cs),
(613,-12,o),
(657,62,o),
(657,142,cs),
(657,256,o),
(570,322,o),
(570,410,cs),
(570,437,o),
(586,462,o),
(619,462,cs),
(653,462,o),
(670,436,o),
(670,400,cs),
(670,324,o),
(621,270,o),
(474,270,cs),
(440,270,ls),
(388,270,o),
(339,276,o),
(299,293,c),
(242,320,l),
(221,347,o),
(211,362,o),
(211,412,cs),
(211,451,o),
(220,477,o),
(240,511,c),
(95,581,l),
(52,523,o),
(30,462,o),
(30,404,cs),
(30,280,o),
(106,216,o),
(209,184,c),
(261,176,l),
(315,164,o),
(370,157,o),
(429,157,cs),
(503,157,ls),
(747,157,o),
(854,251,o),
(854,387,cs),
(854,486,o),
(791,581,o),
(609,581,cs),
(503,581,o),
(404,511,o),
(404,401,cs),
(404,295,o),
(479,227,o),
(479,160,cs),
(479,131,o),
(459,115,o),
(413,115,cs),
(362,115,o),
(331,136,o),
(331,190,cs)
);
}
);
width = 884;
}
);
unicode = 3414;
},
{
glyphname = aulengthmarkmlym;
lastChange = "2025-02-13 18:24:16 +0000";
layers = (
{
background = {
shapes = (
{
closed = 1;
nodes = (
(-332,581,o),
(-389,565,o),
(-436,514,c),
(-414,514,l),
(-454,552,o),
(-505,581,o),
(-589,581,cs),
(-751,581,o),
(-825,487,o),
(-825,380,cs),
(-825,343,o),
(-818,295,o),
(-804,254,c),
(-624,293,l),
(-632,317,o),
(-638,344,o),
(-638,376,cs),
(-638,425,o),
(-612,453,o),
(-574,453,cs),
(-560,453,o),
(-548,450,o),
(-537,439,cs),
(-521,423,o),
(-517,388,o),
(-517,345,cs),
(-517,268,l),
(-332,268,l),
(-332,353,ls),
(-332,399,o),
(-329,423,o),
(-315,439,cs),
(-307,448,o),
(-295,453,o),
(-279,453,cs),
(-237,453,o),
(-203,406,o),
(-203,308,cs),
(-203,179,o),
(-246,118,o),
(-362,118,cs),
(-432,118,o),
(-480,129,o),
(-552,165,c),
(-618,47,l),
(-541,8,o),
(-461,-12,o),
(-341,-12,cs),
(-121,-12,o),
(-13,106,o),
(-13,307,cs),
(-13,482,o),
(-109,581,o),
(-265,581,cs)
);
}
);
};
guides = (
{
pos = (-794,440);
},
{
angle = 135;
pos = (-830,359);
}
);
layerId = "2AD682F6-F6C7-4738-913E-50B961B61BC3";
shapes = (
{
closed = 1;
nodes = (
(112,253,l),
(30,415,o),
(245,459,o),
(245,284,c),
(283,350,l),
(188,521,o),
(29,505,o),
(15,351,c)
);
},
{
closed = 1;
nodes = (
(254,300,l),
(394,538,o),
(605,139,o),
(163,81,c),
(249,-5,l),
(756,110,o),
(376,638,o),
(225,387,c)
);
}
);
width = 519;
}
);
unicode = 3415;
},
{
glyphname = uni0D58;
layers = (
{
background = {
shapes = (
{
closed = 1;
nodes = (
(765,-12,o),
(820,8,o),
(878,70,c),
(962,272,l),
(962,569,l),
(775,569,l),
(775,256,ls),
(775,192,o),
(767,161,o),
(749,140,cs),
(735,125,o),
(715,117,o),
(688,117,cs),
(662,117,o),
(642,126,o),
(628,142,cs),
(609,163,o),
(602,195,o),
(602,264,cs),
(602,569,l),
(415,569,l),
(415,253,ls),
(415,201,o),
(411,164,o),
(392,141,cs),
(382,128,o),
(362,117,o),
(336,117,cs),
(285,117,o),
(225,160,o),
(225,270,cs),
(225,351,o),
(250,411,o),
(314,500,c),
(173,581,l),
(79,479,o),
(35,395,o),
(35,272,cs),
(35,113,o),
(135,-12,o),
(321,-12,cs),
(407,-12,o),
(460,9,o),
(520,59,c),
(496,67,l),
(543,16,o),
(599,-12,o),
(689,-12,cs)
);
},
{
closed = 1;
nodes = (
(1254,-12,o),
(1357,118,o),
(1357,330,cs),
(1357,617,o),
(1185,849,o),
(741,849,cs),
(624,849,o),
(524,839,o),
(437,819,c),
(459,685,l),
(527,702,o),
(635,715,o),
(731,715,cs),
(1061,715,o),
(1167,548,o),
(1167,324,cs),
(1167,203,o),
(1120,117,o),
(1044,117,cs),
(1016,117,o),
(997,127,o),
(985,141,cs),
(966,163,o),
(962,189,o),
(962,242,cs),
(962,559,l),
(785,559,l),
(785,260,l),
(860,63,l),
(920,11,o),
(974,-12,o),
(1059,-12,cs)
);
}
);
};
layerId = "2AD682F6-F6C7-4738-913E-50B961B61BC3";
shapes = (
{
closed = 1;
nodes = (
(765,-12,o),
(820,8,o),
(878,70,c),
(962,272,l),
(962,569,l),
(775,569,l),
(775,256,ls),
(775,192,o),
(767,161,o),
(749,140,cs),
(735,125,o),
(715,117,o),
(688,117,cs),
(662,117,o),
(642,126,o),
(628,142,cs),
(609,163,o),
(602,195,o),
(602,264,cs),
(602,569,l),
(415,569,l),
(415,253,ls),
(415,201,o),
(411,164,o),
(392,141,cs),
(382,128,o),
(362,117,o),
(336,117,cs),
(285,117,o),
(225,160,o),
(225,270,cs),
(225,351,o),
(250,411,o),
(314,500,c),
(173,581,l),
(79,479,o),
(35,395,o),
(35,272,cs),
(35,113,o),
(135,-12,o),
(321,-12,cs),
(407,-12,o),
(460,9,o),
(520,59,c),
(496,67,l),
(543,16,o),
(599,-12,o),
(689,-12,cs)
);
},
{
closed = 1;
nodes = (
(1254,-12,o),
(1357,118,o),
(1357,330,cs),
(1357,617,o),
(1185,849,o),
(741,849,cs),
(624,849,o),
(524,839,o),
(437,819,c),
(459,685,l),
(527,702,o),
(635,715,o),
(731,715,cs),
(1061,715,o),
(1167,548,o),
(1167,324,cs),
(1167,203,o),
(1120,117,o),
(1044,117,cs),
(1016,117,o),
(997,127,o),
(985,141,cs),
(966,163,o),
(962,189,o),
(962,242,cs),
(962,559,l),
(785,559,l),
(785,260,l),
(860,63,l),
(920,11,o),
(974,-12,o),
(1059,-12,cs)
);
}
);
width = 1395;
}
);
unicode = 3416;
},
{
glyphname = uni0D59;
layers = (
{
background = {
shapes = (
{
closed = 1;
nodes = (
(134,581,o),
(35,426,o),
(35,284,cs),
(35,154,o),
(94,65,o),
(181,-12,c),
(320,69,l),
(260,139,o),
(227,201,o),
(227,281,cs),
(227,388,o),
(297,451,o),
(431,451,cs),
(552,451,o),
(613,399,o),
(640,334,c),
(642,302,l),
(644,282,o),
(647,259,o),
(647,232,cs),
(647,140,o),
(617,112,o),
(575,112,cs),
(539,112,o),
(523,136,o),
(523,167,cs),
(523,191,o),
(532,206,o),
(548,216,cs),
(568,229,o),
(594,232,o),
(646,232,cs),
(765,232,l),
(765,360,l),
(659,360,ls),
(541,360,o),
(483,352,o),
(429,322,cs),
(378,294,o),
(341,243,o),
(341,168,cs),
(341,75,o),
(395,-12,o),
(570,-12,cs),
(737,-12,o),
(829,70,o),
(829,237,cs),
(829,418,o),
(700,581,o),
(417,581,cs)
);
},
{
closed = 1;
nodes = (
(965,569,o),
(878,515,o),
(878,407,cs),
(878,372,o),
(894,329,o),
(914,302,c),
(1079,309,l),
(1058,330,o),
(1038,355,o),
(1038,392,cs),
(1038,420,o),
(1053,444,o),
(1091,444,cs),
(1119,444,o),
(1136,428,o),
(1136,403,cs),
(1136,389,o),
(1131,378,o),
(1120,371,cs),
(1108,363,o),
(1094,360,o),
(1045,360,cs),
(737,360,l),
(737,232,l),
(1035,232,ls),
(1126,232,o),
(1183,237,o),
(1236,269,cs),
(1277,294,o),
(1303,339,o),
(1303,406,cs),
(1303,490,o),
(1245,569,o),
(1089,569,cs)
);
}
);
};
layerId = "2AD682F6-F6C7-4738-913E-50B961B61BC3";
shapes = (
{
closed = 1;
nodes = (
(134,581,o),
(35,426,o),
(35,284,cs),
(35,154,o),
(94,65,o),
(181,-12,c),
(320,69,l),
(260,139,o),
(227,201,o),
(227,281,cs),
(227,388,o),
(297,451,o),
(431,451,cs),
(552,451,o),
(613,399,o),
(640,334,c),
(642,302,l),
(644,282,o),
(647,259,o),
(647,232,cs),
(647,140,o),
(617,112,o),
(575,112,cs),
(539,112,o),
(523,136,o),
(523,167,cs),
(523,191,o),
(532,206,o),
(548,216,cs),
(568,229,o),
(594,232,o),
(646,232,cs),
(765,232,l),
(765,360,l),
(659,360,ls),
(541,360,o),
(483,352,o),
(429,322,cs),
(378,294,o),
(341,243,o),
(341,168,cs),
(341,75,o),
(395,-12,o),
(570,-12,cs),
(737,-12,o),
(829,70,o),
(829,237,cs),
(829,418,o),
(700,581,o),
(417,581,cs)
);
},
{
closed = 1;
nodes = (
(965,569,o),
(878,515,o),
(878,407,cs),
(878,372,o),
(894,329,o),
(914,302,c),
(1079,309,l),
(1058,330,o),
(1038,355,o),
(1038,392,cs),
(1038,420,o),
(1053,444,o),
(1091,444,cs),
(1119,444,o),
(1136,428,o),
(1136,403,cs),
(1136,389,o),
(1131,378,o),
(1120,371,cs),
(1108,363,o),
(1094,360,o),
(1045,360,cs),
(737,360,l),
(737,232,l),
(1035,232,ls),
(1126,232,o),
(1183,237,o),
(1236,269,cs),
(1277,294,o),
(1303,339,o),
(1303,406,cs),
(1303,490,o),
(1245,569,o),
(1089,569,cs)
);
}
);
width = 1321;
}
);
unicode = 3417;
},
{
glyphname = uni0D5A;
layers = (
{
background = {
shapes = (
{
closed = 1;
nodes = (
(676,581,o),
(585,553,o),
(518,493,c),
(553,509,l),
(485,557,o),
(417,581,o),
(329,581,cs),
(137,581,o),
(35,456,o),
(35,297,cs),
(35,174,o),
(79,90,o),
(173,-12,c),
(314,69,l),
(250,158,o),
(225,219,o),
(225,298,cs),
(225,409,o),
(287,452,o),
(344,452,cs),
(375,452,o),
(393,440,o),
(405,427,cs),
(424,406,o),
(428,370,o),
(428,320,cs),
(428,230,l),
(615,230,l),
(615,276,ls),
(615,340,o),
(625,385,o),
(641,409,cs),
(657,434,o),
(677,448,o),
(707,448,cs),
(740,448,o),
(752,421,o),
(752,387,cs),
(752,289,o),
(690,204,o),
(609,122,c),
(609,0,l),
(1177,0,l),
(1177,245,ls),
(1177,390,o),
(1141,454,o),
(1073,507,cs),
(1007,558,o),
(911,581,o),
(788,581,cs)
);
},
{
closed = 1;
nodes = (
(937,412,o),
(921,443,o),
(893,470,c),
(891,459,l),
(963,427,o),
(991,371,o),
(991,240,cs),
(991,127,l),
(887,127,ls),
(853,127,o),
(823,127,o),
(794,122,c),
(812,120,l),
(886,194,o),
(937,271,o),
(937,363,cs)
);
}
);
};
layerId = "2AD682F6-F6C7-4738-913E-50B961B61BC3";
shapes = (
{
closed = 1;
nodes = (
(676,581,o),
(585,553,o),
(518,493,c),
(553,509,l),
(485,557,o),
(417,581,o),
(329,581,cs),
(137,581,o),
(35,456,o),
(35,297,cs),
(35,174,o),
(79,90,o),
(173,-12,c),
(314,69,l),
(250,158,o),
(225,219,o),
(225,298,cs),
(225,409,o),
(287,452,o),
(344,452,cs),
(375,452,o),
(393,440,o),
(405,427,cs),
(424,406,o),
(428,370,o),
(428,320,cs),
(428,230,l),
(615,230,l),
(615,276,ls),
(615,340,o),
(625,385,o),
(641,409,cs),
(657,434,o),
(677,448,o),
(707,448,cs),
(740,448,o),
(752,421,o),
(752,387,cs),
(752,289,o),
(690,204,o),
(609,122,c),
(609,0,l),
(1177,0,l),
(1177,245,ls),
(1177,390,o),
(1141,454,o),
(1073,507,cs),
(1007,558,o),
(911,581,o),
(788,581,cs)
);
},
{
closed = 1;
nodes = (
(937,412,o),
(921,443,o),
(893,470,c),
(891,459,l),
(963,427,o),
(991,371,o),
(991,240,cs),
(991,127,l),
(887,127,ls),
(853,127,o),
(823,127,o),
(794,122,c),
(812,120,l),
(886,194,o),
(937,271,o),
(937,363,cs)
);
}
);
width = 1228;
}
);
unicode = 3418;
},
{
glyphname = uni0D5B;
layers = (
{
background = {
shapes = (
{
closed = 1;
nodes = (
(973,-12,o),
(1062,152,o),
(1062,285,cs),
(1062,415,o),
(1003,504,o),
(916,581,c),
(777,500,l),
(837,430,o),
(870,369,o),
(870,288,cs),
(870,179,o),
(801,117,o),
(707,117,cs),
(606,117,o),
(545,183,o),
(545,288,cs),
(545,368,o),
(579,430,o),
(626,485,c),
(566,569,l),
(55,569,l),
(55,0,l),
(242,0,l),
(242,441,l),
(439,441,l),
(486,534,l),
(404,452,o),
(355,400,o),
(355,285,cs),
(355,143,o),
(448,-12,o),
(708,-12,cs)
);
}
);
};
layerId = "2AD682F6-F6C7-4738-913E-50B961B61BC3";
shapes = (
{
closed = 1;
nodes = (
(973,-12,o),
(1062,152,o),
(1062,285,cs),
(1062,415,o),
(1003,504,o),
(916,581,c),
(777,500,l),
(837,430,o),
(870,369,o),
(870,288,cs),
(870,179,o),
(801,117,o),
(707,117,cs),
(606,117,o),
(545,183,o),
(545,288,cs),
(545,368,o),
(579,430,o),
(626,485,c),
(566,569,l),
(55,569,l),
(55,0,l),
(242,0,l),
(242,441,l),
(439,441,l),
(486,534,l),
(404,452,o),
(355,400,o),
(355,285,cs),
(355,143,o),
(448,-12,o),
(708,-12,cs)
);
}
);
width = 1097;
}
);
unicode = 3419;
},
{
glyphname = uni0D5C;
layers = (
{
background = {
shapes = (
{
closed = 1;
nodes = (
(954,581,o),
(886,561,o),
(838,516,cs),
(793,473,o),
(773,413,o),
(773,305,cs),
(773,270,ls),
(773,206,o),
(769,168,o),
(751,144,cs),
(738,127,o),
(719,117,o),
(690,117,cs),
(665,117,o),
(648,124,o),
(635,137,cs),
(613,159,o),
(608,191,o),
(608,271,cs),
(608,291,ls),
(608,409,o),
(583,480,o),
(527,525,cs),
(481,562,o),
(420,581,o),
(325,581,cs),
(142,581,o),
(35,466,o),
(35,300,cs),
(35,174,o),
(85,90,o),
(174,-12,c),
(313,69,l),
(251,155,o),
(225,216,o),
(225,296,cs),
(225,415,o),
(274,452,o),
(329,452,cs),
(355,452,o),
(374,445,o),
(387,432,cs),
(412,408,o),
(417,354,o),
(417,305,cs),
(417,265,ls),
(417,153,o),
(437,96,o),
(481,53,cs),
(526,9,o),
(589,-12,o),
(688,-12,cs),
(785,-12,o),
(852,8,o),
(899,54,cs),
(943,97,o),
(963,157,o),
(963,265,cs),
(963,295,ls),
(963,363,o),
(967,401,o),
(985,425,cs),
(998,442,o),
(1017,452,o),
(1046,452,cs),
(1071,452,o),
(1088,445,o),
(1101,432,cs),
(1123,410,o),
(1128,378,o),
(1128,296,cs),
(1128,278,ls),
(1128,160,o),
(1153,89,o),
(1209,44,cs),
(1255,7,o),
(1316,-12,o),
(1411,-12,cs),
(1594,-12,o),
(1701,103,o),
(1701,269,cs),
(1701,395,o),
(1651,479,o),
(1562,581,c),
(1423,500,l),
(1485,414,o),
(1511,353,o),
(1511,273,cs),
(1511,154,o),
(1462,117,o),
(1407,117,cs),
(1381,117,o),
(1362,124,o),
(1349,137,cs),
(1324,161,o),
(1319,204,o),
(1319,264,cs),
(1319,303,ls),
(1319,416,o),
(1299,472,o),
(1255,515,cs),
(1210,559,o),
(1141,581,o),
(1048,581,cs)
);
}
);
};
layerId = "2AD682F6-F6C7-4738-913E-50B961B61BC3";
shapes = (
{
closed = 1;
nodes = (
(954,581,o),
(886,561,o),
(838,516,cs),
(793,473,o),
(773,413,o),
(773,305,cs),
(773,270,ls),
(773,206,o),
(769,168,o),
(751,144,cs),
(738,127,o),
(719,117,o),
(690,117,cs),
(665,117,o),
(648,124,o),
(635,137,cs),
(613,159,o),
(608,191,o),
(608,271,cs),
(608,291,ls),
(608,409,o),
(583,480,o),
(527,525,cs),
(481,562,o),
(420,581,o),
(325,581,cs),
(142,581,o),
(35,466,o),
(35,300,cs),
(35,174,o),
(85,90,o),
(174,-12,c),
(313,69,l),
(251,155,o),
(225,216,o),
(225,296,cs),
(225,415,o),
(274,452,o),
(329,452,cs),
(355,452,o),
(374,445,o),
(387,432,cs),
(412,408,o),
(417,354,o),
(417,305,cs),
(417,265,ls),
(417,153,o),
(437,96,o),
(481,53,cs),
(526,9,o),
(589,-12,o),
(688,-12,cs),
(785,-12,o),
(852,8,o),
(899,54,cs),
(943,97,o),
(963,157,o),
(963,265,cs),
(963,295,ls),
(963,363,o),
(967,401,o),
(985,425,cs),
(998,442,o),
(1017,452,o),
(1046,452,cs),
(1071,452,o),
(1088,445,o),
(1101,432,cs),
(1123,410,o),
(1128,378,o),
(1128,296,cs),
(1128,278,ls),
(1128,160,o),
(1153,89,o),
(1209,44,cs),
(1255,7,o),
(1316,-12,o),
(1411,-12,cs),
(1594,-12,o),
(1701,103,o),
(1701,269,cs),
(1701,395,o),
(1651,479,o),
(1562,581,c),
(1423,500,l),
(1485,414,o),
(1511,353,o),
(1511,273,cs),
(1511,154,o),
(1462,117,o),
(1407,117,cs),
(1381,117,o),
(1362,124,o),
(1349,137,cs),
(1324,161,o),
(1319,204,o),
(1319,264,cs),
(1319,303,ls),
(1319,416,o),
(1299,472,o),
(1255,515,cs),
(1210,559,o),
(1141,581,o),
(1048,581,cs)
);
}
);
width = 1736;
}
);
unicode = 3420;
},
{
glyphname = uni0D5D;
layers = (
{
background = {
shapes = (
{
closed = 1;
nodes = (
(772,581,o),
(704,561,o),
(656,516,cs),
(611,473,o),
(590,413,o),
(590,305,cs),
(590,276,ls),
(590,201,o),
(585,162,o),
(560,138,cs),
(547,126,o),
(530,117,o),
(502,117,cs),
(474,117,o),
(456,124,o),
(440,140,cs),
(419,161,o),
(415,194,o),
(415,256,cs),
(415,569,l),
(228,569,l),
(228,241,ls),
(228,189,o),
(221,161,o),
(203,141,cs),
(191,127,o),
(173,117,o),
(140,117,cs),
(105,117,o),
(76,129,o),
(52,142,c),
(8,25,l),
(54,0,o),
(96,-12,o),
(150,-12,cs),
(232,-12,o),
(271,6,o),
(330,63,c),
(314,68,l),
(370,12,o),
(431,-12,o),
(524,-12,cs),
(595,-12,o),
(655,6,o),
(701,43,cs),
(758,89,o),
(781,158,o),
(781,266,cs),
(781,295,ls),
(781,363,o),
(785,401,o),
(803,425,cs),
(816,442,o),
(835,452,o),
(864,452,cs),
(889,452,o),
(906,445,o),
(919,432,cs),
(941,410,o),
(946,378,o),
(946,296,cs),
(946,265,ls),
(946,153,o),
(966,96,o),
(1010,53,cs),
(1055,9,o),
(1118,-12,o),
(1217,-12,cs),
(1314,-12,o),
(1381,8,o),
(1428,54,cs),
(1472,97,o),
(1492,157,o),
(1492,265,cs),
(1492,295,ls),
(1492,363,o),
(1496,401,o),
(1514,425,cs),
(1527,442,o),
(1546,452,o),
(1575,452,cs),
(1600,452,o),
(1617,445,o),
(1630,432,cs),
(1652,410,o),
(1657,378,o),
(1657,296,cs),
(1657,278,ls),
(1657,160,o),
(1682,89,o),
(1738,44,cs),
(1784,7,o),
(1845,-12,o),
(1940,-12,cs),
(2123,-12,o),
(2230,103,o),
(2230,269,cs),
(2230,395,o),
(2180,479,o),
(2091,581,c),
(1952,500,l),
(2014,414,o),
(2040,353,o),
(2040,273,cs),
(2040,154,o),
(1991,117,o),
(1936,117,cs),
(1910,117,o),
(1891,124,o),
(1878,137,cs),
(1853,161,o),
(1848,204,o),
(1848,264,cs),
(1848,303,ls),
(1848,416,o),
(1828,472,o),
(1784,515,cs),
(1739,559,o),
(1670,581,o),
(1577,581,cs),
(1483,581,o),
(1415,561,o),
(1367,516,cs),
(1322,473,o),
(1302,413,o),
(1302,305,cs),
(1302,270,ls),
(1302,206,o),
(1298,168,o),
(1280,144,cs),
(1267,127,o),
(1248,117,o),
(1219,117,cs),
(1194,117,o),
(1177,124,o),
(1164,137,cs),
(1142,159,o),
(1137,191,o),
(1137,271,cs),
(1137,303,ls),
(1137,416,o),
(1117,472,o),
(1073,515,cs),
(1028,559,o),
(959,581,o),
(866,581,cs)
);
}
);
};
layerId = "2AD682F6-F6C7-4738-913E-50B961B61BC3";
shapes = (
{
closed = 1;
nodes = (
(772,581,o),
(704,561,o),
(656,516,cs),
(611,473,o),
(590,413,o),
(590,305,cs),
(590,276,ls),
(590,201,o),
(585,162,o),
(560,138,cs),
(547,126,o),
(530,117,o),
(502,117,cs),
(474,117,o),
(456,124,o),
(440,140,cs),
(419,161,o),
(415,194,o),
(415,256,cs),
(415,569,l),
(228,569,l),
(228,241,ls),
(228,189,o),
(221,161,o),
(203,141,cs),
(191,127,o),
(173,117,o),
(140,117,cs),
(105,117,o),
(76,129,o),
(52,142,c),
(8,25,l),
(54,0,o),
(96,-12,o),
(150,-12,cs),
(232,-12,o),
(271,6,o),
(330,63,c),
(314,68,l),
(370,12,o),
(431,-12,o),
(524,-12,cs),
(595,-12,o),
(655,6,o),
(701,43,cs),
(758,89,o),
(781,158,o),
(781,266,cs),
(781,295,ls),
(781,363,o),
(785,401,o),
(803,425,cs),
(816,442,o),
(835,452,o),
(864,452,cs),
(889,452,o),
(906,445,o),
(919,432,cs),
(941,410,o),
(946,378,o),
(946,296,cs),
(946,265,ls),
(946,153,o),
(966,96,o),
(1010,53,cs),
(1055,9,o),
(1118,-12,o),
(1217,-12,cs),
(1314,-12,o),
(1381,8,o),
(1428,54,cs),
(1472,97,o),
(1492,157,o),
(1492,265,cs),
(1492,295,ls),
(1492,363,o),
(1496,401,o),
(1514,425,cs),
(1527,442,o),
(1546,452,o),
(1575,452,cs),
(1600,452,o),
(1617,445,o),
(1630,432,cs),
(1652,410,o),
(1657,378,o),
(1657,296,cs),
(1657,278,ls),
(1657,160,o),
(1682,89,o),
(1738,44,cs),
(1784,7,o),
(1845,-12,o),
(1940,-12,cs),
(2123,-12,o),
(2230,103,o),
(2230,269,cs),
(2230,395,o),
(2180,479,o),
(2091,581,c),
(1952,500,l),
(2014,414,o),
(2040,353,o),
(2040,273,cs),
(2040,154,o),
(1991,117,o),
(1936,117,cs),
(1910,117,o),
(1891,124,o),
(1878,137,cs),
(1853,161,o),
(1848,204,o),
(1848,264,cs),
(1848,303,ls),
(1848,416,o),
(1828,472,o),
(1784,515,cs),
(1739,559,o),
(1670,581,o),
(1577,581,cs),
(1483,581,o),
(1415,561,o),
(1367,516,cs),
(1322,473,o),
(1302,413,o),
(1302,305,cs),
(1302,270,ls),
(1302,206,o),
(1298,168,o),
(1280,144,cs),
(1267,127,o),
(1248,117,o),
(1219,117,cs),
(1194,117,o),
(1177,124,o),
(1164,137,cs),
(1142,159,o),
(1137,191,o),
(1137,271,cs),
(1137,303,ls),
(1137,416,o),
(1117,472,o),
(1073,515,cs),
(1028,559,o),
(959,581,o),
(866,581,cs)
);
}
);
width = 2265;
}
);
unicode = 3421;
},
{
glyphname = uni0D5E;
layers = (
{
background = {
shapes = (
{
closed = 1;
nodes = (
(134,581,o),
(35,426,o),
(35,284,cs),
(35,154,o),
(94,65,o),
(181,-12,c),
(320,69,l),
(260,139,o),
(227,201,o),
(227,281,cs),
(227,388,o),
(297,451,o),
(431,451,cs),
(552,451,o),
(613,399,o),
(640,334,c),
(642,302,l),
(644,282,o),
(647,259,o),
(647,232,cs),
(647,140,o),
(617,112,o),
(575,112,cs),
(539,112,o),
(523,136,o),
(523,167,cs),
(523,191,o),
(532,206,o),
(548,216,cs),
(568,229,o),
(594,232,o),
(646,232,cs),
(765,232,l),
(765,360,l),
(659,360,ls),
(541,360,o),
(483,352,o),
(429,322,cs),
(378,294,o),
(341,243,o),
(341,168,cs),
(341,75,o),
(395,-12,o),
(570,-12,cs),
(737,-12,o),
(829,70,o),
(829,237,cs),
(829,418,o),
(700,581,o),
(417,581,cs)
);
},
{
closed = 1;
nodes = (
(1465,197,o),
(1571,273,o),
(1571,399,cs),
(1571,472,o),
(1538,532,o),
(1490,582,c),
(1346,524,l),
(1370,486,o),
(1386,450,o),
(1386,409,cs),
(1386,359,o),
(1362,324,o),
(1311,324,cs),
(1259,324,o),
(1238,364,o),
(1238,406,cs),
(1238,446,o),
(1255,477,o),
(1269,499,c),
(1206,569,l),
(878,569,l),
(833,452,l),
(843,441,o),
(850,423,o),
(850,405,cs),
(850,380,o),
(834,360,o),
(784,360,cs),
(730,360,l),
(730,232,l),
(778,232,ls),
(926,232,o),
(1001,291,o),
(1001,398,cs),
(1001,440,o),
(987,474,o),
(968,496,c),
(945,441,l),
(1077,441,l),
(1080,493,l),
(1067,464,o),
(1060,426,o),
(1060,396,cs),
(1060,301,o),
(1134,197,o),
(1313,197,cs)
);
}
);
};
layerId = "2AD682F6-F6C7-4738-913E-50B961B61BC3";
shapes = (
{
closed = 1;
nodes = (
(134,581,o),
(35,426,o),
(35,284,cs),
(35,154,o),
(94,65,o),
(181,-12,c),
(320,69,l),
(260,139,o),
(227,201,o),
(227,281,cs),
(227,388,o),
(297,451,o),
(431,451,cs),
(552,451,o),
(613,399,o),
(640,334,c),
(642,302,l),
(644,282,o),
(647,259,o),
(647,232,cs),
(647,140,o),
(617,112,o),
(575,112,cs),
(539,112,o),
(523,136,o),
(523,167,cs),
(523,191,o),
(532,206,o),
(548,216,cs),
(568,229,o),
(594,232,o),
(646,232,cs),
(765,232,l),
(765,360,l),
(659,360,ls),
(541,360,o),
(483,352,o),
(429,322,cs),
(378,294,o),
(341,243,o),
(341,168,cs),
(341,75,o),
(395,-12,o),
(570,-12,cs),
(737,-12,o),
(829,70,o),
(829,237,cs),
(829,418,o),
(700,581,o),
(417,581,cs)
);
},
{
closed = 1;
nodes = (
(1465,197,o),
(1571,273,o),
(1571,399,cs),
(1571,472,o),
(1538,532,o),
(1490,582,c),
(1346,524,l),
(1370,486,o),
(1386,450,o),
(1386,409,cs),
(1386,359,o),
(1362,324,o),
(1311,324,cs),
(1259,324,o),
(1238,364,o),
(1238,406,cs),
(1238,446,o),
(1255,477,o),
(1269,499,c),
(1206,569,l),
(878,569,l),
(833,452,l),
(843,441,o),
(850,423,o),
(850,405,cs),
(850,380,o),
(834,360,o),
(784,360,cs),
(730,360,l),
(730,232,l),
(778,232,ls),
(926,232,o),
(1001,291,o),
(1001,398,cs),
(1001,440,o),
(987,474,o),
(968,496,c),
(945,441,l),
(1077,441,l),
(1080,493,l),
(1067,464,o),
(1060,426,o),
(1060,396,cs),
(1060,301,o),
(1134,197,o),
(1313,197,cs)
);
}
);
width = 1597;
}
);
unicode = 3422;
},
{
glyphname = uni0D5F;
layers = (
{
anchors = (
{
name = b.uni0D00;
pos = (780,0);
}
);
background = {
shapes = (
{
closed = 1;
nodes = (
(23,193,o),
(82,131,o),
(187,131,cs),
(292,131,o),
(352,193,o),
(352,273,cs),
(352,355,o),
(290,415,o),
(187,415,cs),
(84,415,o),
(23,354,o),
(23,273,cs)
);
},
{
closed = 1;
nodes = (
(141,300,o),
(157,318,o),
(187,318,cs),
(215,318,o),
(234,301,o),
(234,274,cs),
(234,248,o),
(218,228,o),
(187,228,cs),
(156,228,o),
(141,247,o),
(141,273,cs)
);
},
{
closed = 1;
nodes = (
(1209,193,o),
(1268,131,o),
(1373,131,cs),
(1478,131,o),
(1538,193,o),
(1538,273,cs),
(1538,355,o),
(1476,415,o),
(1373,415,cs),
(1270,415,o),
(1209,354,o),
(1209,273,cs)
);
},
{
closed = 1;
nodes = (
(1327,300,o),
(1343,318,o),
(1373,318,cs),
(1401,318,o),
(1420,301,o),
(1420,274,cs),
(1420,248,o),
(1404,228,o),
(1373,228,cs),
(1342,228,o),
(1327,247,o),
(1327,273,cs)
);
},
{
alignment = -1;
pos = (349,0);
ref = ramlym;
}
);
};
layerId = "2AD682F6-F6C7-4738-913E-50B961B61BC3";
shapes = (
{
closed = 1;
nodes = (
(23,193,o),
(82,131,o),
(187,131,cs),
(292,131,o),
(352,193,o),
(352,273,cs),
(352,355,o),
(290,415,o),
(187,415,cs),
(84,415,o),
(23,354,o),
(23,273,cs)
);
},
{
closed = 1;
nodes = (
(141,300,o),
(157,318,o),
(187,318,cs),
(215,318,o),
(234,301,o),
(234,274,cs),
(234,248,o),
(218,228,o),
(187,228,cs),
(156,228,o),
(141,247,o),
(141,273,cs)
);
},
{
closed = 1;
nodes = (
(1209,193,o),
(1268,131,o),
(1373,131,cs),
(1478,131,o),
(1538,193,o),
(1538,273,cs),
(1538,355,o),
(1476,415,o),
(1373,415,cs),
(1270,415,o),
(1209,354,o),
(1209,273,cs)
);
},
{
closed = 1;
nodes = (
(1327,300,o),
(1343,318,o),
(1373,318,cs),
(1401,318,o),
(1420,301,o),
(1420,274,cs),
(1420,248,o),
(1404,228,o),
(1373,228,cs),
(1342,228,o),
(1327,247,o),
(1327,273,cs)
);
},
{
alignment = -1;
pos = (349,0);
ref = ramlym;
}
);
width = 1561;
}
);
unicode = 3423;
},
{
glyphname = rrvocalicmlym;
layers = (
{
anchors = (
{
name = b.uni0D00;
pos = (530,0);
}
);
background = {
shapes = (
{
closed = 1;
nodes = (
(626,581,o),
(550,496,o),
(550,395,cs),
(550,271,o),
(630,221,o),
(767,221,cs),
(856,221,o),
(928,279,o),
(975,332,c),
(931,426,l),
(888,373,o),
(852,334,o),
(795,334,cs),
(760,334,o),
(730,349,o),
(730,399,cs),
(730,439,o),
(751,461,o),
(788,461,cs),
(830,461,o),
(862,420,o),
(862,345,cs),
(862,328,o),
(861,313,o),
(858,297,c),
(858,274,l),
(822,182,o),
(689,173,o),
(539,173,cs),
(520,173,ls),
(369,173,o),
(239,182,o),
(203,274,c),
(203,299,l),
(200,313,o),
(199,328,o),
(199,345,cs),
(199,420,o),
(231,461,o),
(274,461,cs),
(310,461,o),
(331,439,o),
(331,399,cs),
(331,349,o),
(301,334,o),
(266,334,cs),
(209,334,o),
(173,373,o),
(130,426,c),
(86,332,l),
(133,279,o),
(205,221,o),
(290,221,cs),
(430,221,o),
(511,271,o),
(511,395,cs),
(511,496,o),
(435,581,o),
(288,581,cs),
(122,581,o),
(30,485,o),
(30,339,cs),
(30,245,o),
(67,174,o),
(132,127,cs),
(201,77,o),
(298,61,o),
(411,61,cs),
(471,61,l),
(593,61,l),
(650,61,ls),
(763,61,o),
(860,77,o),
(929,127,cs),
(994,174,o),
(1031,245,o),
(1031,339,cs),
(1031,485,o),
(938,581,o),
(779,581,cs)
);
},
{
closed = 1;
nodes = (
(819,-261,o),
(958,-205,o),
(958,-59,cs),
(958,89,o),
(773,129,o),
(615,129,cs),
(446,129,ls),
(288,129,o),
(103,89,o),
(103,-59,cs),
(103,-205,o),
(243,-261,o),
(541,-261,cs)
);
},
{
closed = 1;
nodes = (
(363,-139,o),
(279,-115,o),
(279,-39,cs),
(279,39,o),
(371,55,o),
(516,55,cs),
(545,55,ls),
(690,55,o),
(782,39,o),
(782,-39,cs),
(782,-115,o),
(698,-139,o),
(532,-139,cs)
);
},
{
closed = 1;
nodes = (
(578,42,o),
(554,30,o),
(530,6,c),
(509,26,o),
(487,42,o),
(445,42,cs),
(345,42,o),
(327,-34,o),
(327,-83,cs),
(327,-109,l),
(428,-109,l),
(428,-101,ls),
(428,-78,o),
(430,-55,o),
(455,-55,cs),
(477,-55,o),
(482,-74,o),
(482,-100,cs),
(482,-109,l),
(579,-109,l),
(579,-100,ls),
(579,-76,o),
(582,-55,o),
(607,-55,cs),
(629,-55,o),
(633,-74,o),
(633,-101,cs),
(633,-109,l),
(734,-109,l),
(734,-83,ls),
(734,-34,o),
(713,42,o),
(616,42,cs)
);
}
);
};
layerId = "2AD682F6-F6C7-4738-913E-50B961B61BC3";
shapes = (
{
closed = 1;
nodes = (
(626,581,o),
(550,496,o),
(550,395,cs),
(550,271,o),
(630,221,o),
(767,221,cs),
(856,221,o),
(928,279,o),
(975,332,c),
(931,426,l),
(888,373,o),
(852,334,o),
(795,334,cs),
(760,334,o),
(730,349,o),
(730,399,cs),
(730,439,o),
(751,461,o),
(788,461,cs),
(830,461,o),
(862,420,o),
(862,345,cs),
(862,328,o),
(861,313,o),
(858,297,c),
(858,274,l),
(822,182,o),
(689,173,o),
(539,173,cs),
(520,173,ls),
(369,173,o),
(239,182,o),
(203,274,c),
(203,299,l),
(200,313,o),
(199,328,o),
(199,345,cs),
(199,420,o),
(231,461,o),
(274,461,cs),
(310,461,o),
(331,439,o),
(331,399,cs),
(331,349,o),
(301,334,o),
(266,334,cs),
(209,334,o),
(173,373,o),
(130,426,c),
(86,332,l),
(133,279,o),
(205,221,o),
(290,221,cs),
(430,221,o),
(511,271,o),
(511,395,cs),
(511,496,o),
(435,581,o),
(288,581,cs),
(122,581,o),
(30,485,o),
(30,339,cs),
(30,245,o),
(67,174,o),
(132,127,cs),
(201,77,o),
(298,61,o),
(411,61,cs),
(471,61,l),
(593,61,l),
(650,61,ls),
(763,61,o),
(860,77,o),
(929,127,cs),
(994,174,o),
(1031,245,o),
(1031,339,cs),
(1031,485,o),
(938,581,o),
(779,581,cs)
);
},
{
closed = 1;
nodes = (
(819,-261,o),
(958,-205,o),
(958,-59,cs),
(958,89,o),
(773,129,o),
(615,129,cs),
(446,129,ls),
(288,129,o),
(103,89,o),
(103,-59,cs),
(103,-205,o),
(243,-261,o),
(541,-261,cs)
);
},
{
closed = 1;
nodes = (
(363,-139,o),
(279,-115,o),
(279,-39,cs),
(279,39,o),
(371,55,o),
(516,55,cs),
(545,55,ls),
(690,55,o),
(782,39,o),
(782,-39,cs),
(782,-115,o),
(698,-139,o),
(532,-139,cs)
);
},
{
closed = 1;
nodes = (
(578,42,o),
(554,30,o),
(530,6,c),
(509,26,o),
(487,42,o),
(445,42,cs),
(345,42,o),
(327,-34,o),
(327,-83,cs),
(327,-109,l),
(428,-109,l),
(428,-101,ls),
(428,-78,o),
(430,-55,o),
(455,-55,cs),
(477,-55,o),
(482,-74,o),
(482,-100,cs),
(482,-109,l),
(579,-109,l),
(579,-100,ls),
(579,-76,o),
(582,-55,o),
(607,-55,cs),
(629,-55,o),
(633,-74,o),
(633,-101,cs),
(633,-109,l),
(734,-109,l),
(734,-83,ls),
(734,-34,o),
(713,42,o),
(616,42,cs)
);
}
);
width = 1061;
}
);
unicode = 3424;
},
{
glyphname = llvocalicmlym;
layers = (
{
anchors = (
{
name = b.uni0D00;
pos = (777,0);
}
);
background = {
shapes = (
{
closed = 1;
nodes = (
(202,581,o),
(33,460,o),
(33,244,cs),
(33,63,o),
(139,-12,o),
(278,-12,cs),
(432,-12,o),
(506,61,o),
(506,180,cs),
(506,285,o),
(444,359,o),
(316,359,cs),
(230,359,o),
(171,321,o),
(118,276,c),
(139,156,l),
(193,215,o),
(222,240,o),
(267,240,cs),
(303,240,o),
(325,216,o),
(325,173,cs),
(325,127,o),
(306,108,o),
(273,108,cs),
(235,108,o),
(202,135,o),
(202,240,cs),
(202,244,ls),
(202,380,o),
(301,453,o),
(418,453,cs),
(469,453,o),
(505,443,o),
(529,424,cs),
(562,397,o),
(574,359,o),
(574,273,cs),
(574,0,l),
(761,0,l),
(761,227,l),
(737,404,l),
(704,480,l),
(629,553,o),
(547,581,o),
(422,581,cs)
);
},
{
closed = 1;
nodes = (
(777,581,o),
(691,517,o),
(628,450,c),
(761,212,l),
(761,238,ls),
(761,312,o),
(769,377,o),
(818,416,cs),
(844,436,o),
(878,451,o),
(934,451,cs),
(1025,451,o),
(1076,420,o),
(1112,372,c),
(1129,321,l),
(1137,294,o),
(1141,265,o),
(1141,233,cs),
(1141,141,o),
(1113,112,o),
(1066,112,cs),
(1027,112,o),
(1005,137,o),
(1005,184,cs),
(1005,243,o),
(1042,292,o),
(1143,292,cs),
(1169,292,o),
(1192,290,o),
(1214,286,cs),
(1250,280,l),
(1316,255,o),
(1352,200,o),
(1352,106,cs),
(1352,34,o),
(1322,-70,o),
(1161,-70,cs),
(1115,-70,o),
(1078,-66,o),
(1031,-52,c),
(982,-173,l),
(1038,-192,o),
(1104,-201,o),
(1167,-201,cs),
(1447,-201,o),
(1530,-52,o),
(1530,104,cs),
(1530,263,o),
(1426,374,o),
(1250,404,c),
(1205,407,l),
(1181,410,o),
(1157,411,o),
(1132,411,cs),
(939,411,o),
(825,332,o),
(825,189,cs),
(825,67,o),
(916,-12,o),
(1062,-12,cs),
(1232,-12,o),
(1313,63,o),
(1313,232,cs),
(1313,266,o),
(1309,297,o),
(1302,326,cs),
(1260,501,o),
(1118,581,o),
(938,581,cs)
);
}
);
};
layerId = "2AD682F6-F6C7-4738-913E-50B961B61BC3";
shapes = (
{
closed = 1;
nodes = (
(202,581,o),
(33,460,o),
(33,244,cs),
(33,63,o),
(139,-12,o),
(278,-12,cs),
(432,-12,o),
(506,61,o),
(506,180,cs),
(506,285,o),
(444,359,o),
(316,359,cs),
(230,359,o),
(171,321,o),
(118,276,c),
(139,156,l),
(193,215,o),
(222,240,o),
(267,240,cs),
(303,240,o),
(325,216,o),
(325,173,cs),
(325,127,o),
(306,108,o),
(273,108,cs),
(235,108,o),
(202,135,o),
(202,240,cs),
(202,244,ls),
(202,380,o),
(301,453,o),
(418,453,cs),
(469,453,o),
(505,443,o),
(529,424,cs),
(562,397,o),
(574,359,o),
(574,273,cs),
(574,0,l),
(761,0,l),
(761,227,l),
(737,404,l),
(704,480,l),
(629,553,o),
(547,581,o),
(422,581,cs)
);
},
{
closed = 1;
nodes = (
(777,581,o),
(691,517,o),
(628,450,c),
(761,212,l),
(761,238,ls),
(761,312,o),
(769,377,o),
(818,416,cs),
(844,436,o),
(878,451,o),
(934,451,cs),
(1025,451,o),
(1076,420,o),
(1112,372,c),
(1129,321,l),
(1137,294,o),
(1141,265,o),
(1141,233,cs),
(1141,141,o),
(1113,112,o),
(1066,112,cs),
(1027,112,o),
(1005,137,o),
(1005,184,cs),
(1005,243,o),
(1042,292,o),
(1143,292,cs),
(1169,292,o),
(1192,290,o),
(1214,286,cs),
(1250,280,l),
(1316,255,o),
(1352,200,o),
(1352,106,cs),
(1352,34,o),
(1322,-70,o),
(1161,-70,cs),
(1115,-70,o),
(1078,-66,o),
(1031,-52,c),
(982,-173,l),
(1038,-192,o),
(1104,-201,o),
(1167,-201,cs),
(1447,-201,o),
(1530,-52,o),
(1530,104,cs),
(1530,263,o),
(1426,374,o),
(1250,404,c),
(1205,407,l),
(1181,410,o),
(1157,411,o),
(1132,411,cs),
(939,411,o),
(825,332,o),
(825,189,cs),
(825,67,o),
(916,-12,o),
(1062,-12,cs),
(1232,-12,o),
(1313,63,o),
(1313,232,cs),
(1313,266,o),
(1309,297,o),
(1302,326,cs),
(1260,501,o),
(1118,581,o),
(938,581,cs)
);
}
);
width = 1555;
}
);
unicode = 3425;
},
{
glyphname = zeromlym;
layers = (
{
anchors = (
{
name = b.uni0D00;
pos = (324,0);
}
);
background = {
shapes = (
{
closed = 1;
nodes = (
(504,33,o),
(612,133,o),
(612,281,cs),
(612,427,o),
(517,532,o),
(323,532,cs),
(149,532,o),
(36,435,o),
(36,281,cs),
(36,125,o),
(147,33,o),
(324,33,cs)
);
},
{
closed = 1;
nodes = (
(260,159,o),
(222,202,o),
(222,282,cs),
(222,364,o),
(261,406,o),
(323,406,cs),
(386,406,o),
(426,364,o),
(426,282,cs),
(426,201,o),
(386,159,o),
(323,159,cs)
);
}
);
};
layerId = "2AD682F6-F6C7-4738-913E-50B961B61BC3";
shapes = (
{
closed = 1;
nodes = (
(504,33,o),
(612,133,o),
(612,281,cs),
(612,427,o),
(517,532,o),
(323,532,cs),
(149,532,o),
(36,435,o),
(36,281,cs),
(36,125,o),
(147,33,o),
(324,33,cs)
);
},
{
closed = 1;
nodes = (
(260,159,o),
(222,202,o),
(222,282,cs),
(222,364,o),
(261,406,o),
(323,406,cs),
(386,406,o),
(426,364,o),
(426,282,cs),
(426,201,o),
(386,159,o),
(323,159,cs)
);
}
);
width = 648;
}
);
unicode = 3430;
},
{
glyphname = onemlym;
layers = (
{
anchors = (
{
name = b.uni0D00;
pos = (505,0);
}
);
background = {
shapes = (
{
closed = 1;
nodes = (
(433,-77,l),
(296,-77,ls),
(245,-77,o),
(227,-73,o),
(214,-64,cs),
(205,-58,o),
(200,-49,o),
(200,-36,cs),
(200,-23,o),
(206,-14,o),
(219,-8,cs),
(232,-2,o),
(246,0,o),
(293,0,cs),
(513,0,l),
(512,128,l),
(281,128,ls),
(179,128,o),
(121,117,o),
(73,84,cs),
(35,58,o),
(12,17,o),
(12,-42,cs),
(12,-108,o),
(43,-151,o),
(90,-175,cs),
(139,-200,o),
(193,-206,o),
(283,-206,cs),
(433,-206,l)
);
},
{
alignment = -1;
ref = thapart;
}
);
};
layerId = "2AD682F6-F6C7-4738-913E-50B961B61BC3";
shapes = (
{
closed = 1;
nodes = (
(433,-77,l),
(296,-77,ls),
(245,-77,o),
(227,-73,o),
(214,-64,cs),
(205,-58,o),
(200,-49,o),
(200,-36,cs),
(200,-23,o),
(206,-14,o),
(219,-8,cs),
(232,-2,o),
(246,0,o),
(293,0,cs),
(513,0,l),
(512,128,l),
(281,128,ls),
(179,128,o),
(121,117,o),
(73,84,cs),
(35,58,o),
(12,17,o),
(12,-42,cs),
(12,-108,o),
(43,-151,o),
(90,-175,cs),
(139,-200,o),
(193,-206,o),
(283,-206,cs),
(433,-206,l)
);
},
{
alignment = -1;
ref = thapart;
}
);
width = 1011;
}
);
unicode = 3431;
},
{
glyphname = twomlym;
layers = (
{
anchors = (
{
name = b.uni0D00;
pos = (476,0);
}
);
background = {
shapes = (
{
closed = 1;
nodes = (
(124,581,o),
(35,417,o),
(35,284,cs),
(35,154,o),
(94,65,o),
(181,-12,c),
(320,69,l),
(260,139,o),
(227,200,o),
(227,281,cs),
(227,390,o),
(296,452,o),
(390,452,cs),
(491,452,o),
(552,386,o),
(552,281,cs),
(552,201,o),
(518,139,o),
(471,84,c),
(531,0,l),
(933,0,l),
(933,128,l),
(658,128,l),
(611,35,l),
(693,117,o),
(742,169,o),
(742,284,cs),
(742,426,o),
(649,581,o),
(389,581,cs)
);
}
);
};
layerId = "2AD682F6-F6C7-4738-913E-50B961B61BC3";
shapes = (
{
closed = 1;
nodes = (
(124,581,o),
(35,417,o),
(35,284,cs),
(35,154,o),
(94,65,o),
(181,-12,c),
(320,69,l),
(260,139,o),
(227,200,o),
(227,281,cs),
(227,390,o),
(296,452,o),
(390,452,cs),
(491,452,o),
(552,386,o),
(552,281,cs),
(552,201,o),
(518,139,o),
(471,84,c),
(531,0,l),
(933,0,l),
(933,128,l),
(658,128,l),
(611,35,l),
(693,117,o),
(742,169,o),
(742,284,cs),
(742,426,o),
(649,581,o),
(389,581,cs)
);
}
);
width = 953;
}
);
unicode = 3432;
},
{
glyphname = threemlym;
layers = (
{
anchors = (
{
name = b.uni0D00;
pos = (609,0);
}
);
background = {
shapes = (
{
closed = 1;
nodes = (
(137,581,o),
(35,456,o),
(35,297,cs),
(35,174,o),
(79,90,o),
(173,-12,c),
(314,69,l),
(250,158,o),
(225,218,o),
(225,298,cs),
(225,409,o),
(287,452,o),
(344,452,cs),
(375,452,o),
(393,440,o),
(405,427,cs),
(424,406,o),
(428,370,o),
(428,320,cs),
(428,0,l),
(615,0,l),
(615,327,ls),
(615,380,o),
(622,408,o),
(640,428,cs),
(652,442,o),
(671,452,o),
(699,452,cs),
(758,452,o),
(819,411,o),
(819,295,cs),
(819,216,o),
(794,157,o),
(734,65,c),
(782,0,l),
(878,0,l),
(945,104,l),
(992,166,o),
(1009,223,o),
(1009,299,cs),
(1009,461,o),
(903,581,o),
(720,581,cs),
(629,581,o),
(573,558,o),
(513,506,c),
(529,510,l),
(469,560,o),
(415,581,o),
(329,581,cs)
);
},
{
closed = 1;
nodes = (
(849,0,l),
(1198,0,l),
(1198,128,l),
(907,128,l)
);
}
);
};
layerId = "2AD682F6-F6C7-4738-913E-50B961B61BC3";
shapes = (
{
closed = 1;
nodes = (
(137,581,o),
(35,456,o),
(35,297,cs),
(35,174,o),
(79,90,o),
(173,-12,c),
(314,69,l),
(250,158,o),
(225,218,o),
(225,298,cs),
(225,409,o),
(287,452,o),
(344,452,cs),
(375,452,o),
(393,440,o),
(405,427,cs),
(424,406,o),
(428,370,o),
(428,320,cs),
(428,0,l),
(615,0,l),
(615,327,ls),
(615,380,o),
(622,408,o),
(640,428,cs),
(652,442,o),
(671,452,o),
(699,452,cs),
(758,452,o),
(819,411,o),
(819,295,cs),
(819,216,o),
(794,157,o),
(734,65,c),
(782,0,l),
(878,0,l),
(945,104,l),
(992,166,o),
(1009,223,o),
(1009,299,cs),
(1009,461,o),
(903,581,o),
(720,581,cs),
(629,581,o),
(573,558,o),
(513,506,c),
(529,510,l),
(469,560,o),
(415,581,o),
(329,581,cs)
);
},
{
closed = 1;
nodes = (
(849,0,l),
(1198,0,l),
(1198,128,l),
(907,128,l)
);
}
);
width = 1218;
}
);
unicode = 3433;
},
{
glyphname = fourmlym;
layers = (
{
anchors = (
{
name = b.uni0D00;
pos = (457,0);
}
);
background = {
shapes = (
{
closed = 1;
nodes = (
(134,581,o),
(35,426,o),
(35,284,cs),
(35,154,o),
(94,65,o),
(181,-12,c),
(320,69,l),
(260,139,o),
(227,201,o),
(227,281,cs),
(227,388,o),
(300,457,o),
(425,457,cs),
(498,457,o),
(540,440,o),
(581,406,cs),
(631,365,o),
(654,290,o),
(654,229,cs),
(654,166,o),
(638,116,o),
(576,116,cs),
(529,116,o),
(506,151,o),
(506,196,cs),
(506,271,o),
(553,314,o),
(695,390,cs),
(853,474,o),
(910,519,o),
(910,631,cs),
(910,675,o),
(896,719,o),
(873,753,c),
(707,681,l),
(718,668,o),
(725,649,o),
(725,629,cs),
(725,570,o),
(690,550,o),
(592,492,c),
(395,394,o),
(321,317,o),
(321,193,cs),
(321,78,o),
(402,-12,o),
(573,-12,cs),
(759,-12,o),
(842,77,o),
(842,240,cs),
(842,340,o),
(799,425,o),
(728,482,c),
(644,547,o),
(551,581,o),
(423,581,cs)
);
}
);
};
layerId = "2AD682F6-F6C7-4738-913E-50B961B61BC3";
shapes = (
{
closed = 1;
nodes = (
(134,581,o),
(35,426,o),
(35,284,cs),
(35,154,o),
(94,65,o),
(181,-12,c),
(320,69,l),
(260,139,o),
(227,201,o),
(227,281,cs),
(227,388,o),
(300,457,o),
(425,457,cs),
(498,457,o),
(540,440,o),
(581,406,cs),
(631,365,o),
(654,290,o),
(654,229,cs),
(654,166,o),
(638,116,o),
(576,116,cs),
(529,116,o),
(506,151,o),
(506,196,cs),
(506,271,o),
(553,314,o),
(695,390,cs),
(853,474,o),
(910,519,o),
(910,631,cs),
(910,675,o),
(896,719,o),
(873,753,c),
(707,681,l),
(718,668,o),
(725,649,o),
(725,629,cs),
(725,570,o),
(690,550,o),
(592,492,c),
(395,394,o),
(321,317,o),
(321,193,cs),
(321,78,o),
(402,-12,o),
(573,-12,cs),
(759,-12,o),
(842,77,o),
(842,240,cs),
(842,340,o),
(799,425,o),
(728,482,c),
(644,547,o),
(551,581,o),
(423,581,cs)
);
}
);
width = 914;
}
);
unicode = 3434;
},
{
glyphname = fivemlym;
layers = (
{
anchors = (
{
name = b.uni0D00;
pos = (575,0);
}
);
background = {
shapes = (
{
closed = 1;
nodes = (
(282,732,o),
(38,578,o),
(38,255,cs),
(38,-17,o),
(207,-178,o),
(494,-178,cs),
(719,-178,o),
(861,-97,o),
(861,67,cs),
(861,147,o),
(820,213,o),
(744,248,c),
(732,230,l),
(829,263,o),
(853,321,o),
(853,378,cs),
(853,471,o),
(766,543,o),
(601,543,cs),
(406,543,o),
(289,435,o),
(289,268,cs),
(289,166,o),
(325,73,o),
(383,-11,c),
(535,66,l),
(494,137,o),
(476,186,o),
(476,262,cs),
(476,343,o),
(513,414,o),
(594,414,cs),
(639,414,o),
(667,392,o),
(667,360,cs),
(667,344,o),
(661,332,o),
(651,324,cs),
(635,311,o),
(612,306,o),
(569,306,cs),
(552,306,l),
(552,181,l),
(562,181,ls),
(637,181,o),
(675,136,o),
(675,79,cs),
(675,-1,o),
(613,-49,o),
(489,-49,cs),
(283,-49,o),
(217,103,o),
(217,259,cs),
(217,492,o),
(364,603,o),
(585,603,cs),
(825,603,o),
(932,458,o),
(932,269,cs),
(932,177,o),
(917,131,o),
(883,53,c),
(1031,-12,l),
(1088,86,o),
(1113,193,o),
(1113,276,cs),
(1113,539,o),
(946,732,o),
(580,732,cs)
);
}
);
};
layerId = "2AD682F6-F6C7-4738-913E-50B961B61BC3";
shapes = (
{
closed = 1;
nodes = (
(282,732,o),
(38,578,o),
(38,255,cs),
(38,-17,o),
(207,-178,o),
(494,-178,cs),
(719,-178,o),
(861,-97,o),
(861,67,cs),
(861,147,o),
(820,213,o),
(744,248,c),
(732,230,l),
(829,263,o),
(853,321,o),
(853,378,cs),
(853,471,o),
(766,543,o),
(601,543,cs),
(406,543,o),
(289,435,o),
(289,268,cs),
(289,166,o),
(325,73,o),
(383,-11,c),
(535,66,l),
(494,137,o),
(476,186,o),
(476,262,cs),
(476,343,o),
(513,414,o),
(594,414,cs),
(639,414,o),
(667,392,o),
(667,360,cs),
(667,344,o),
(661,332,o),
(651,324,cs),
(635,311,o),
(612,306,o),
(569,306,cs),
(552,306,l),
(552,181,l),
(562,181,ls),
(637,181,o),
(675,136,o),
(675,79,cs),
(675,-1,o),
(613,-49,o),
(489,-49,cs),
(283,-49,o),
(217,103,o),
(217,259,cs),
(217,492,o),
(364,603,o),
(585,603,cs),
(825,603,o),
(932,458,o),
(932,269,cs),
(932,177,o),
(917,131,o),
(883,53,c),
(1031,-12,l),
(1088,86,o),
(1113,193,o),
(1113,276,cs),
(1113,539,o),
(946,732,o),
(580,732,cs)
);
}
);
width = 1151;
}
);
unicode = 3435;
},
{
glyphname = sixmlym;
layers = (
{
anchors = (
{
name = b.uni0D00;
pos = (697,0);
}
);
background = {
shapes = (
{
closed = 1;
nodes = (
(599,581,o),
(543,553,o),
(496,502,c),
(520,510,l),
(460,560,o),
(407,581,o),
(321,581,cs),
(135,581,o),
(35,456,o),
(35,297,cs),
(35,174,o),
(79,90,o),
(173,-12,c),
(314,69,l),
(250,158,o),
(225,218,o),
(225,299,cs),
(225,409,o),
(285,452,o),
(336,452,cs),
(362,452,o),
(382,441,o),
(392,428,cs),
(411,405,o),
(415,368,o),
(415,316,cs),
(415,0,l),
(602,0,l),
(602,305,ls),
(602,374,o),
(609,406,o),
(628,427,cs),
(642,443,o),
(662,452,o),
(688,452,cs),
(715,452,o),
(735,444,o),
(749,429,cs),
(767,408,o),
(775,377,o),
(775,313,cs),
(775,0,l),
(962,0,l),
(962,297,l),
(878,499,l),
(820,561,o),
(765,581,o),
(689,581,cs)
);
},
{
closed = 1;
nodes = (
(974,581,o),
(920,558,o),
(860,506,c),
(785,309,l),
(785,10,l),
(962,10,l),
(962,327,ls),
(962,380,o),
(966,406,o),
(985,428,cs),
(997,442,o),
(1016,452,o),
(1044,452,cs),
(1120,452,o),
(1167,366,o),
(1167,232,cs),
(1167,55,o),
(1116,-70,o),
(918,-70,cs),
(881,-70,o),
(848,-68,o),
(819,-62,c),
(805,-191,l),
(848,-199,o),
(894,-201,o),
(938,-201,cs),
(1243,-201,o),
(1357,-45,o),
(1357,228,cs),
(1357,451,o),
(1254,581,o),
(1059,581,cs)
);
}
);
};
layerId = "2AD682F6-F6C7-4738-913E-50B961B61BC3";
shapes = (
{
closed = 1;
nodes = (
(599,581,o),
(543,553,o),
(496,502,c),
(520,510,l),
(460,560,o),
(407,581,o),
(321,581,cs),
(135,581,o),
(35,456,o),
(35,297,cs),
(35,174,o),
(79,90,o),
(173,-12,c),
(314,69,l),
(250,158,o),
(225,218,o),
(225,299,cs),
(225,409,o),
(285,452,o),
(336,452,cs),
(362,452,o),
(382,441,o),
(392,428,cs),
(411,405,o),
(415,368,o),
(415,316,cs),
(415,0,l),
(602,0,l),
(602,305,ls),
(602,374,o),
(609,406,o),
(628,427,cs),
(642,443,o),
(662,452,o),
(688,452,cs),
(715,452,o),
(735,444,o),
(749,429,cs),
(767,408,o),
(775,377,o),
(775,313,cs),
(775,0,l),
(962,0,l),
(962,297,l),
(878,499,l),
(820,561,o),
(765,581,o),
(689,581,cs)
);
},
{
closed = 1;
nodes = (
(974,581,o),
(920,558,o),
(860,506,c),
(785,309,l),
(785,10,l),
(962,10,l),
(962,327,ls),
(962,380,o),
(966,406,o),
(985,428,cs),
(997,442,o),
(1016,452,o),
(1044,452,cs),
(1120,452,o),
(1167,366,o),
(1167,232,cs),
(1167,55,o),
(1116,-70,o),
(918,-70,cs),
(881,-70,o),
(848,-68,o),
(819,-62,c),
(805,-191,l),
(848,-199,o),
(894,-201,o),
(938,-201,cs),
(1243,-201,o),
(1357,-45,o),
(1357,228,cs),
(1357,451,o),
(1254,581,o),
(1059,581,cs)
);
}
);
width = 1395;
}
);
unicode = 3436;
},
{
glyphname = sevenmlym;
layers = (
{
anchors = (
{
name = b.uni0D00;
pos = (431,0);
}
);
background = {
shapes = (
{
closed = 1;
nodes = (
(186,581,o),
(33,444,o),
(33,237,cs),
(33,63,o),
(139,-12,o),
(278,-12,cs),
(432,-12,o),
(506,61,o),
(506,180,cs),
(506,285,o),
(444,359,o),
(316,359,cs),
(230,359,o),
(171,321,o),
(118,276,c),
(139,156,l),
(193,215,o),
(222,240,o),
(268,240,cs),
(303,240,o),
(325,216,o),
(325,173,cs),
(325,127,o),
(306,108,o),
(273,108,cs),
(235,108,o),
(202,135,o),
(202,236,cs),
(202,243,ls),
(202,380,o),
(315,452,o),
(425,452,cs),
(562,452,o),
(635,363,o),
(635,211,cs),
(635,55,o),
(570,-70,o),
(376,-70,cs),
(336,-70,o),
(308,-68,o),
(276,-62,c),
(262,-190,l),
(305,-198,o),
(352,-201,o),
(393,-201,cs),
(686,-201,o),
(825,-41,o),
(825,213,cs),
(825,409,o),
(719,581,o),
(445,581,cs)
);
}
);
};
layerId = "2AD682F6-F6C7-4738-913E-50B961B61BC3";
shapes = (
{
closed = 1;
nodes = (
(186,581,o),
(33,444,o),
(33,237,cs),
(33,63,o),
(139,-12,o),
(278,-12,cs),
(432,-12,o),
(506,61,o),
(506,180,cs),
(506,285,o),
(444,359,o),
(316,359,cs),
(230,359,o),
(171,321,o),
(118,276,c),
(139,156,l),
(193,215,o),
(222,240,o),
(268,240,cs),
(303,240,o),
(325,216,o),
(325,173,cs),
(325,127,o),
(306,108,o),
(273,108,cs),
(235,108,o),
(202,135,o),
(202,236,cs),
(202,243,ls),
(202,380,o),
(315,452,o),
(425,452,cs),
(562,452,o),
(635,363,o),
(635,211,cs),
(635,55,o),
(570,-70,o),
(376,-70,cs),
(336,-70,o),
(308,-68,o),
(276,-62,c),
(262,-190,l),
(305,-198,o),
(352,-201,o),
(393,-201,cs),
(686,-201,o),
(825,-41,o),
(825,213,cs),
(825,409,o),
(719,581,o),
(445,581,cs)
);
}
);
width = 863;
}
);
unicode = 3437;
},
{
glyphname = eightmlym;
layers = (
{
anchors = (
{
name = b.uni0D00;
pos = (548,0);
}
);
background = {
shapes = (
{
closed = 1;
nodes = (
(124,581,o),
(35,417,o),
(35,284,cs),
(35,154,o),
(94,65,o),
(181,-12,c),
(320,69,l),
(260,139,o),
(227,200,o),
(227,281,cs),
(227,390,o),
(296,452,o),
(390,452,cs),
(491,452,o),
(552,386,o),
(552,281,cs),
(552,201,o),
(518,139,o),
(471,84,c),
(531,0,l),
(957,0,l),
(1042,217,l),
(1042,569,l),
(855,569,l),
(855,128,l),
(658,128,l),
(611,35,l),
(693,117,o),
(742,169,o),
(742,284,cs),
(742,426,o),
(649,581,o),
(389,581,cs)
);
},
{
closed = 1;
nodes = (
(785,-201,o),
(883,-179,o),
(949,-118,cs),
(1009,-62,o),
(1042,13,o),
(1042,163,cs),
(1042,336,l),
(858,70,l),
(855,2,o),
(820,-71,o),
(656,-71,cs),
(620,-71,o),
(583,-69,o),
(556,-62,c),
(538,-189,l),
(579,-197,o),
(632,-201,o),
(666,-201,cs)
);
}
);
};
layerId = "2AD682F6-F6C7-4738-913E-50B961B61BC3";
shapes = (
{
closed = 1;
nodes = (
(124,581,o),
(35,417,o),
(35,284,cs),
(35,154,o),
(94,65,o),
(181,-12,c),
(320,69,l),
(260,139,o),
(227,200,o),
(227,281,cs),
(227,390,o),
(296,452,o),
(390,452,cs),
(491,452,o),
(552,386,o),
(552,281,cs),
(552,201,o),
(518,139,o),
(471,84,c),
(531,0,l),
(957,0,l),
(1042,217,l),
(1042,569,l),
(855,569,l),
(855,128,l),
(658,128,l),
(611,35,l),
(693,117,o),
(742,169,o),
(742,284,cs),
(742,426,o),
(649,581,o),
(389,581,cs)
);
},
{
closed = 1;
nodes = (
(785,-201,o),
(883,-179,o),
(949,-118,cs),
(1009,-62,o),
(1042,13,o),
(1042,163,cs),
(1042,336,l),
(858,70,l),
(855,2,o),
(820,-71,o),
(656,-71,cs),
(620,-71,o),
(583,-69,o),
(556,-62,c),
(538,-189,l),
(579,-197,o),
(632,-201,o),
(666,-201,cs)
);
}
);
width = 1097;
}
);
unicode = 3438;
},
{
glyphname = ninemlym;
layers = (
{
anchors = (
{
name = b.uni0D00;
pos = (639,0);
}
);
background = {
shapes = (
{
closed = 1;
nodes = (
(137,581,o),
(35,456,o),
(35,297,cs),
(35,174,o),
(79,90,o),
(173,-12,c),
(314,69,l),
(250,158,o),
(225,218,o),
(225,298,cs),
(225,409,o),
(287,452,o),
(344,452,cs),
(375,452,o),
(393,440,o),
(405,427,cs),
(424,406,o),
(428,370,o),
(428,320,cs),
(428,0,l),
(615,0,l),
(615,199,l),
(529,510,l),
(469,560,o),
(415,581,o),
(329,581,cs)
);
},
{
closed = 1;
nodes = (
(614,581,o),
(546,532,o),
(486,470,c),
(438,312,l),
(438,29,l),
(615,29,l),
(615,254,ls),
(615,348,o),
(631,393,o),
(667,423,cs),
(691,443,o),
(725,457,o),
(790,457,cs),
(863,457,o),
(905,440,o),
(946,406,cs),
(996,365,o),
(1019,290,o),
(1019,229,cs),
(1019,166,o),
(1003,116,o),
(941,116,cs),
(894,116,o),
(871,151,o),
(871,196,cs),
(871,271,o),
(918,314,o),
(1060,390,cs),
(1218,474,o),
(1275,519,o),
(1275,631,cs),
(1275,675,o),
(1261,719,o),
(1238,753,c),
(1072,681,l),
(1083,668,o),
(1090,649,o),
(1090,629,cs),
(1090,570,o),
(1055,550,o),
(957,492,c),
(760,394,o),
(686,317,o),
(686,193,cs),
(686,78,o),
(767,-12,o),
(938,-12,cs),
(1124,-12,o),
(1207,77,o),
(1207,240,cs),
(1207,340,o),
(1164,425,o),
(1093,482,cs),
(1010,549,o),
(923,581,o),
(792,581,cs)
);
}
);
};
layerId = "2AD682F6-F6C7-4738-913E-50B961B61BC3";
shapes = (
{
closed = 1;
nodes = (
(137,581,o),
(35,456,o),
(35,297,cs),
(35,174,o),
(79,90,o),
(173,-12,c),
(314,69,l),
(250,158,o),
(225,218,o),
(225,298,cs),
(225,409,o),
(287,452,o),
(344,452,cs),
(375,452,o),
(393,440,o),
(405,427,cs),
(424,406,o),
(428,370,o),
(428,320,cs),
(428,0,l),
(615,0,l),
(615,199,l),
(529,510,l),
(469,560,o),
(415,581,o),
(329,581,cs)
);
},
{
closed = 1;
nodes = (
(614,581,o),
(546,532,o),
(486,470,c),
(438,312,l),
(438,29,l),
(615,29,l),
(615,254,ls),
(615,348,o),
(631,393,o),
(667,423,cs),
(691,443,o),
(725,457,o),
(790,457,cs),
(863,457,o),
(905,440,o),
(946,406,cs),
(996,365,o),
(1019,290,o),
(1019,229,cs),
(1019,166,o),
(1003,116,o),
(941,116,cs),
(894,116,o),
(871,151,o),
(871,196,cs),
(871,271,o),
(918,314,o),
(1060,390,cs),
(1218,474,o),
(1275,519,o),
(1275,631,cs),
(1275,675,o),
(1261,719,o),
(1238,753,c),
(1072,681,l),
(1083,668,o),
(1090,649,o),
(1090,629,cs),
(1090,570,o),
(1055,550,o),
(957,492,c),
(760,394,o),
(686,317,o),
(686,193,cs),
(686,78,o),
(767,-12,o),
(938,-12,cs),
(1124,-12,o),
(1207,77,o),
(1207,240,cs),
(1207,340,o),
(1164,425,o),
(1093,482,cs),
(1010,549,o),
(923,581,o),
(792,581,cs)
);
}
);
width = 1279;
}
);
unicode = 3439;
},
{
glyphname = tenmlym;
layers = (
{
background = {
shapes = (
{
closed = 1;
nodes = (
(194,569,l),
(194,107,ls),
(194,22,o),
(181,-12,o),
(153,-38,cs),
(130,-60,o),
(93,-70,o),
(40,-70,cs),
(14,-70,o),
(-7,-66,o),
(-23,-61,c),
(-39,-190,l),
(-5,-199,o),
(37,-201,o),
(65,-201,cs),
(179,-201,o),
(247,-175,o),
(297,-121,cs),
(352,-61,o),
(370,23,o),
(370,142,c),
(381,168,l),
(381,569,l)
);
},
{
closed = 1;
nodes = (
(1035,-12,o),
(1141,108,o),
(1141,270,cs),
(1141,395,o),
(1091,479,o),
(1002,581,c),
(863,500,l),
(925,414,o),
(951,353,o),
(951,274,cs),
(951,158,o),
(892,117,o),
(837,117,cs),
(806,117,o),
(788,127,o),
(776,141,cs),
(759,162,o),
(751,189,o),
(751,241,cs),
(751,569,l),
(564,569,l),
(564,265,ls),
(564,200,o),
(556,164,o),
(536,142,cs),
(521,126,o),
(501,117,o),
(473,117,cs),
(444,117,o),
(423,125,o),
(409,140,cs),
(389,161,o),
(381,196,o),
(381,259,cs),
(381,553,l),
(222,551,l),
(220,258,l),
(299,71,l),
(348,22,o),
(387,-12,o),
(473,-12,cs),
(565,-12,o),
(622,16,o),
(670,67,c),
(649,63,l),
(709,11,o),
(765,-12,o),
(854,-12,cs)
);
}
);
};
layerId = "2AD682F6-F6C7-4738-913E-50B961B61BC3";
shapes = (
{
closed = 1;
nodes = (
(194,569,l),
(194,107,ls),
(194,22,o),
(181,-12,o),
(153,-38,cs),
(130,-60,o),
(93,-70,o),
(40,-70,cs),
(14,-70,o),
(-7,-66,o),
(-23,-61,c),
(-39,-190,l),
(-5,-199,o),
(37,-201,o),
(65,-201,cs),
(179,-201,o),
(247,-175,o),
(297,-121,cs),
(352,-61,o),
(370,23,o),
(370,142,c),
(381,168,l),
(381,569,l)
);
},
{
closed = 1;
nodes = (
(1035,-12,o),
(1141,108,o),
(1141,270,cs),
(1141,395,o),
(1091,479,o),
(1002,581,c),
(863,500,l),
(925,414,o),
(951,353,o),
(951,274,cs),
(951,158,o),
(892,117,o),
(837,117,cs),
(806,117,o),
(788,127,o),
(776,141,cs),
(759,162,o),
(751,189,o),
(751,241,cs),
(751,569,l),
(564,569,l),
(564,265,ls),
(564,200,o),
(556,164,o),
(536,142,cs),
(521,126,o),
(501,117,o),
(473,117,cs),
(444,117,o),
(423,125,o),
(409,140,cs),
(389,161,o),
(381,196,o),
(381,259,cs),
(381,553,l),
(222,551,l),
(220,258,l),
(299,71,l),
(348,22,o),
(387,-12,o),
(473,-12,cs),
(565,-12,o),
(622,16,o),
(670,67,c),
(649,63,l),
(709,11,o),
(765,-12,o),
(854,-12,cs)
);
}
);
width = 1176;
}
);
unicode = 3440;
},
{
glyphname = hundredmlym;
layers = (
{
background = {
shapes = (
{
closed = 1;
nodes = (
(137,581,o),
(35,456,o),
(35,297,cs),
(35,174,o),
(79,90,o),
(173,-12,c),
(314,69,l),
(250,158,o),
(225,218,o),
(225,298,cs),
(225,409,o),
(287,452,o),
(344,452,cs),
(375,452,o),
(393,440,o),
(405,427,cs),
(424,406,o),
(428,370,o),
(428,320,cs),
(428,0,l),
(615,0,l),
(615,199,l),
(529,510,l),
(469,560,o),
(415,581,o),
(329,581,cs)
);
},
{
closed = 1;
nodes = (
(627,581,o),
(573,558,o),
(513,506,c),
(438,309,l),
(438,10,l),
(615,10,l),
(615,327,ls),
(615,380,o),
(619,406,o),
(638,428,cs),
(650,442,o),
(669,452,o),
(697,452,cs),
(773,452,o),
(820,366,o),
(820,232,cs),
(820,55,o),
(769,-70,o),
(571,-70,cs),
(534,-70,o),
(501,-68,o),
(472,-62,c),
(458,-191,l),
(501,-199,o),
(547,-201,o),
(591,-201,cs),
(896,-201,o),
(1010,-45,o),
(1010,228,cs),
(1010,451,o),
(907,581,o),
(712,581,cs)
);
}
);
};
layerId = "2AD682F6-F6C7-4738-913E-50B961B61BC3";
shapes = (
{
closed = 1;
nodes = (
(137,581,o),
(35,456,o),
(35,297,cs),
(35,174,o),
(79,90,o),
(173,-12,c),
(314,69,l),
(250,158,o),
(225,218,o),
(225,298,cs),
(225,409,o),
(287,452,o),
(344,452,cs),
(375,452,o),
(393,440,o),
(405,427,cs),
(424,406,o),
(428,370,o),
(428,320,cs),
(428,0,l),
(615,0,l),
(615,199,l),
(529,510,l),
(469,560,o),
(415,581,o),
(329,581,cs)
);
},
{
closed = 1;
nodes = (
(627,581,o),
(573,558,o),
(513,506,c),
(438,309,l),
(438,10,l),
(615,10,l),
(615,327,ls),
(615,380,o),
(619,406,o),
(638,428,cs),
(650,442,o),
(669,452,o),
(697,452,cs),
(773,452,o),
(820,366,o),
(820,232,cs),
(820,55,o),
(769,-70,o),
(571,-70,cs),
(534,-70,o),
(501,-68,o),
(472,-62,c),
(458,-191,l),
(501,-199,o),
(547,-201,o),
(591,-201,cs),
(896,-201,o),
(1010,-45,o),
(1010,228,cs),
(1010,451,o),
(907,581,o),
(712,581,cs)
);
}
);
width = 1048;
}
);
unicode = 3441;
},
{
glyphname = thousandmlym;
layers = (
{
background = {
shapes = (
{
closed = 1;
nodes = (
(1285,569,o),
(1198,515,o),
(1198,407,cs),
(1198,372,o),
(1214,329,o),
(1234,302,c),
(1399,309,l),
(1378,330,o),
(1358,355,o),
(1358,392,cs),
(1358,420,o),
(1373,444,o),
(1411,444,cs),
(1439,444,o),
(1456,428,o),
(1456,403,cs),
(1456,389,o),
(1451,378,o),
(1440,371,cs),
(1428,363,o),
(1414,360,o),
(1365,360,cs),
(1057,360,l),
(1057,232,l),
(1355,232,ls),
(1446,232,o),
(1503,237,o),
(1556,269,cs),
(1597,294,o),
(1623,339,o),
(1623,406,cs),
(1623,490,o),
(1565,569,o),
(1409,569,cs)
);
},
{
alignment = -1;
pos = (-3,0);
ref = datemarkmlym;
}
);
};
layerId = "2AD682F6-F6C7-4738-913E-50B961B61BC3";
shapes = (
{
closed = 1;
nodes = (
(1285,569,o),
(1198,515,o),
(1198,407,cs),
(1198,372,o),
(1214,329,o),
(1234,302,c),
(1399,309,l),
(1378,330,o),
(1358,355,o),
(1358,392,cs),
(1358,420,o),
(1373,444,o),
(1411,444,cs),
(1439,444,o),
(1456,428,o),
(1456,403,cs),
(1456,389,o),
(1451,378,o),
(1440,371,cs),
(1428,363,o),
(1414,360,o),
(1365,360,cs),
(1057,360,l),
(1057,232,l),
(1355,232,ls),
(1446,232,o),
(1503,237,o),
(1556,269,cs),
(1597,294,o),
(1623,339,o),
(1623,406,cs),
(1623,490,o),
(1565,569,o),
(1409,569,cs)
);
},
{
alignment = -1;
pos = (-3,0);
ref = datemarkmlym;
}
);
width = 1641;
}
);
unicode = 3442;
},
{
glyphname = onequartermlym;
layers = (
{
background = {
shapes = (
{
closed = 1;
nodes = (
(432,-12,o),
(506,61,o),
(506,180,cs),
(506,285,o),
(443,359,o),
(315,359,cs),
(230,359,o),
(171,321,o),
(118,276,c),
(139,156,l),
(193,215,o),
(222,240,o),
(267,240,cs),
(303,240,o),
(325,216,o),
(325,173,cs),
(325,128,o),
(306,108,o),
(273,108,cs),
(235,108,o),
(202,137,o),
(202,225,cs),
(202,243,o),
(202,261,o),
(204,278,c),
(209,308,l),
(228,345,o),
(256,369,o),
(302,384,cs),
(338,396,o),
(384,403,o),
(511,403,cs),
(804,403,l),
(804,534,l),
(492,534,ls),
(325,534,o),
(247,522,o),
(164,472,cs),
(79,421,o),
(33,342,o),
(33,234,cs),
(33,63,o),
(139,-12,o),
(278,-12,cs)
);
}
);
};
layerId = "2AD682F6-F6C7-4738-913E-50B961B61BC3";
shapes = (
{
closed = 1;
nodes = (
(432,-12,o),
(506,61,o),
(506,180,cs),
(506,285,o),
(443,359,o),
(315,359,cs),
(230,359,o),
(171,321,o),
(118,276,c),
(139,156,l),
(193,215,o),
(222,240,o),
(267,240,cs),
(303,240,o),
(325,216,o),
(325,173,cs),
(325,128,o),
(306,108,o),
(273,108,cs),
(235,108,o),
(202,137,o),
(202,225,cs),
(202,243,o),
(202,261,o),
(204,278,c),
(209,308,l),
(228,345,o),
(256,369,o),
(302,384,cs),
(338,396,o),
(384,403,o),
(511,403,cs),
(804,403,l),
(804,534,l),
(492,534,ls),
(325,534,o),
(247,522,o),
(164,472,cs),
(79,421,o),
(33,342,o),
(33,234,cs),
(33,63,o),
(139,-12,o),
(278,-12,cs)
);
}
);
width = 826;
}
);
unicode = 3443;
},
{
glyphname = onehalfmlym;
layers = (
{
background = {
shapes = (
{
closed = 1;
nodes = (
(533,789,l),
(533,273,ls),
(533,143,o),
(553,77,o),
(611,33,cs),
(650,3,o),
(705,-12,o),
(781,-12,cs),
(957,-12,o),
(1043,80,o),
(1043,225,cs),
(1043,447,o),
(850,557,o),
(661,574,c),
(614,577,l),
(584,580,o),
(553,581,o),
(524,581,cs),
(238,581,o),
(32,469,o),
(32,242,cs),
(32,63,o),
(138,-12,o),
(277,-12,cs),
(431,-12,o),
(505,61,o),
(505,180,cs),
(505,285,o),
(443,359,o),
(315,359,cs),
(229,359,o),
(170,321,o),
(117,276,c),
(138,156,l),
(192,215,o),
(221,240,o),
(266,240,cs),
(302,240,o),
(324,216,o),
(324,173,cs),
(324,128,o),
(305,108,o),
(272,108,cs),
(234,108,o),
(201,137,o),
(201,238,cs),
(201,254,ls),
(201,405,o),
(380,455,o),
(514,455,cs),
(544,455,o),
(576,453,o),
(607,448,c),
(649,442,l),
(758,421,o),
(853,348,o),
(853,214,cs),
(853,139,o),
(830,112,o),
(788,112,cs),
(765,112,o),
(750,120,o),
(739,135,cs),
(725,154,o),
(720,184,o),
(720,236,cs),
(720,789,l)
);
}
);
};
layerId = "2AD682F6-F6C7-4738-913E-50B961B61BC3";
shapes = (
{
closed = 1;
nodes = (
(533,789,l),
(533,273,ls),
(533,143,o),
(553,77,o),
(611,33,cs),
(650,3,o),
(705,-12,o),
(781,-12,cs),
(957,-12,o),
(1043,80,o),
(1043,225,cs),
(1043,447,o),
(850,557,o),
(661,574,c),
(614,577,l),
(584,580,o),
(553,581,o),
(524,581,cs),
(238,581,o),
(32,469,o),
(32,242,cs),
(32,63,o),
(138,-12,o),
(277,-12,cs),
(431,-12,o),
(505,61,o),
(505,180,cs),
(505,285,o),
(443,359,o),
(315,359,cs),
(229,359,o),
(170,321,o),
(117,276,c),
(138,156,l),
(192,215,o),
(221,240,o),
(266,240,cs),
(302,240,o),
(324,216,o),
(324,173,cs),
(324,128,o),
(305,108,o),
(272,108,cs),
(234,108,o),
(201,137,o),
(201,238,cs),
(201,254,ls),
(201,405,o),
(380,455,o),
(514,455,cs),
(544,455,o),
(576,453,o),
(607,448,c),
(649,442,l),
(758,421,o),
(853,348,o),
(853,214,cs),
(853,139,o),
(830,112,o),
(788,112,cs),
(765,112,o),
(750,120,o),
(739,135,cs),
(725,154,o),
(720,184,o),
(720,236,cs),
(720,789,l)
);
}
);
width = 1078;
}
);
unicode = 3444;
},
{
glyphname = threequartermlym;
layers = (
{
background = {
shapes = (
{
closed = 1;
nodes = (
(202,581,o),
(33,460,o),
(33,244,cs),
(33,63,o),
(139,-12,o),
(278,-12,cs),
(432,-12,o),
(506,61,o),
(506,180,cs),
(506,285,o),
(444,359,o),
(316,359,cs),
(230,359,o),
(171,321,o),
(118,276,c),
(139,156,l),
(193,215,o),
(222,240,o),
(267,240,cs),
(303,240,o),
(325,216,o),
(325,173,cs),
(325,127,o),
(306,108,o),
(273,108,cs),
(235,108,o),
(202,135,o),
(202,240,cs),
(202,244,ls),
(202,380,o),
(301,453,o),
(418,453,cs),
(469,453,o),
(505,443,o),
(529,424,cs),
(562,397,o),
(574,359,o),
(574,273,cs),
(574,0,l),
(761,0,l),
(761,229,l),
(726,385,l),
(704,480,l),
(629,553,o),
(547,581,o),
(422,581,cs)
);
},
{
closed = 1;
nodes = (
(760,581,o),
(692,532,o),
(632,470,c),
(584,312,l),
(584,29,l),
(761,29,l),
(761,254,ls),
(761,348,o),
(777,393,o),
(813,423,cs),
(837,443,o),
(871,457,o),
(936,457,cs),
(1009,457,o),
(1051,440,o),
(1092,406,cs),
(1142,365,o),
(1165,290,o),
(1165,229,cs),
(1165,166,o),
(1149,116,o),
(1087,116,cs),
(1040,116,o),
(1017,151,o),
(1017,196,cs),
(1017,271,o),
(1064,314,o),
(1206,390,cs),
(1364,474,o),
(1421,519,o),
(1421,631,cs),
(1421,675,o),
(1407,719,o),
(1384,753,c),
(1218,681,l),
(1229,668,o),
(1236,649,o),
(1236,629,cs),
(1236,570,o),
(1201,550,o),
(1103,492,c),
(906,394,o),
(832,317,o),
(832,193,cs),
(832,78,o),
(913,-12,o),
(1084,-12,cs),
(1270,-12,o),
(1353,77,o),
(1353,240,cs),
(1353,340,o),
(1310,425,o),
(1239,482,cs),
(1156,549,o),
(1069,581,o),
(938,581,cs)
);
}
);
};
layerId = "2AD682F6-F6C7-4738-913E-50B961B61BC3";
shapes = (
{
closed = 1;
nodes = (
(202,581,o),
(33,460,o),
(33,244,cs),
(33,63,o),
(139,-12,o),
(278,-12,cs),
(432,-12,o),
(506,61,o),
(506,180,cs),
(506,285,o),
(444,359,o),
(316,359,cs),
(230,359,o),
(171,321,o),
(118,276,c),
(139,156,l),
(193,215,o),
(222,240,o),
(267,240,cs),
(303,240,o),
(325,216,o),
(325,173,cs),
(325,127,o),
(306,108,o),
(273,108,cs),
(235,108,o),
(202,135,o),
(202,240,cs),
(202,244,ls),
(202,380,o),
(301,453,o),
(418,453,cs),
(469,453,o),
(505,443,o),
(529,424,cs),
(562,397,o),
(574,359,o),
(574,273,cs),
(574,0,l),
(761,0,l),
(761,229,l),
(726,385,l),
(704,480,l),
(629,553,o),
(547,581,o),
(422,581,cs)
);
},
{
closed = 1;
nodes = (
(760,581,o),
(692,532,o),
(632,470,c),
(584,312,l),
(584,29,l),
(761,29,l),
(761,254,ls),
(761,348,o),
(777,393,o),
(813,423,cs),
(837,443,o),
(871,457,o),
(936,457,cs),
(1009,457,o),
(1051,440,o),
(1092,406,c),
(1142,365,o),
(1165,290,o),
(1165,229,cs),
(1165,166,o),
(1149,116,o),
(1087,116,cs),
(1040,116,o),
(1017,151,o),
(1017,196,cs),
(1017,271,o),
(1064,314,o),
(1206,390,c),
(1364,474,o),
(1421,519,o),
(1421,631,cs),
(1421,675,o),
(1407,719,o),
(1384,753,c),
(1218,681,l),
(1229,668,o),
(1236,649,o),
(1236,629,cs),
(1236,570,o),
(1201,550,o),
(1103,492,c),
(906,394,o),
(832,317,o),
(832,193,cs),
(832,78,o),
(913,-12,o),
(1084,-12,cs),
(1270,-12,o),
(1353,77,o),
(1353,240,cs),
(1353,340,o),
(1310,425,o),
(1239,482,cs),
(1156,549,o),
(1069,581,o),
(938,581,cs)
);
}
);
width = 1425;
}
);
unicode = 3445;
},
{
glyphname = uni0D76;
layers = (
{
background = {
shapes = (
{
closed = 1;
nodes = (
(133,372,o),
(27,296,o),
(27,170,cs),
(27,97,o),
(60,37,o),
(108,-13,c),
(252,45,l),
(228,83,o),
(212,119,o),
(212,160,cs),
(212,210,o),
(236,245,o),
(287,245,cs),
(339,245,o),
(360,205,o),
(360,163,cs),
(360,123,o),
(343,92,o),
(329,70,c),
(392,0,l),
(773,0,l),
(769,128,l),
(521,128,l),
(518,76,l),
(531,105,o),
(538,143,o),
(538,173,cs),
(538,268,o),
(464,372,o),
(285,372,cs)
);
},
{
alignment = -1;
pos = (674,0);
ref = mamlym;
}
);
};
layerId = "2AD682F6-F6C7-4738-913E-50B961B61BC3";
shapes = (
{
closed = 1;
nodes = (
(133,372,o),
(27,296,o),
(27,170,cs),
(27,97,o),
(60,37,o),
(108,-13,c),
(252,45,l),
(228,83,o),
(212,119,o),
(212,160,cs),
(212,210,o),
(236,245,o),
(287,245,cs),
(339,245,o),
(360,205,o),
(360,163,cs),
(360,123,o),
(343,92,o),
(329,70,c),
(392,0,l),
(773,0,l),
(769,128,l),
(521,128,l),
(518,76,l),
(531,105,o),
(538,143,o),
(538,173,cs),
(538,268,o),
(464,372,o),
(285,372,cs)
);
},
{
alignment = -1;
pos = (674,0);
ref = mamlym;
}
);
width = 1529;
}
);
unicode = 3446;
},
{
glyphname = uni0D77;
layers = (
{
background = {
shapes = (
{
closed = 1;
nodes = (
(133,372,o),
(27,296,o),
(27,170,cs),
(27,97,o),
(60,37,o),
(108,-13,c),
(252,45,l),
(228,83,o),
(212,119,o),
(212,160,cs),
(212,210,o),
(236,245,o),
(287,245,cs),
(339,245,o),
(360,205,o),
(360,163,cs),
(360,123,o),
(343,92,o),
(329,70,c),
(392,0,l),
(792,0,l),
(790,128,l),
(521,128,l),
(518,76,l),
(531,105,o),
(538,143,o),
(538,173,cs),
(538,268,o),
(464,372,o),
(285,372,cs)
);
},
{
closed = 1;
nodes = (
(728,581,o),
(626,456,o),
(626,297,cs),
(626,223,o),
(643,166,o),
(690,104,c),
(751,0,l),
(853,0,l),
(901,65,l),
(841,157,o),
(816,218,o),
(816,298,cs),
(816,409,o),
(878,452,o),
(935,452,cs),
(966,452,o),
(984,440,o),
(996,427,cs),
(1015,406,o),
(1019,370,o),
(1019,320,cs),
(1019,230,l),
(1206,230,l),
(1206,251,l),
(1142,498,l),
(1075,556,o),
(1011,581,o),
(921,581,cs)
);
},
{
closed = 1;
nodes = (
(1235,581,o),
(1146,525,o),
(1100,480,c),
(1101,241,l),
(1206,234,l),
(1206,237,ls),
(1206,336,o),
(1225,388,o),
(1260,417,cs),
(1286,439,o),
(1320,451,o),
(1367,451,cs),
(1465,451,o),
(1536,407,o),
(1560,324,c),
(1563,291,l),
(1565,275,o),
(1566,259,o),
(1566,241,cs),
(1566,135,o),
(1533,112,o),
(1493,112,cs),
(1453,112,o),
(1437,136,o),
(1437,167,cs),
(1437,191,o),
(1446,206,o),
(1462,216,cs),
(1482,229,o),
(1508,232,o),
(1569,232,cs),
(1603,232,l),
(1603,360,l),
(1573,360,ls),
(1455,360,o),
(1397,352,o),
(1343,322,cs),
(1292,294,o),
(1255,243,o),
(1255,168,cs),
(1255,75,o),
(1309,-12,o),
(1484,-12,cs),
(1651,-12,o),
(1743,65,o),
(1743,244,cs),
(1743,449,o),
(1604,581,o),
(1371,581,cs)
);
},
{
closed = 1;
nodes = (
(1783,448,l),
(1785,442,o),
(1788,427,o),
(1788,418,cs),
(1788,398,o),
(1782,384,o),
(1770,375,cs),
(1755,364,o),
(1731,360,o),
(1693,360,cs),
(1594,360,l),
(1594,232,l),
(1709,232,ls),
(1796,232,o),
(1855,236,o),
(1907,269,cs),
(1948,295,o),
(1973,339,o),
(1973,402,cs),
(1973,432,o),
(1965,461,o),
(1959,479,c)
);
}
);
};
layerId = "2AD682F6-F6C7-4738-913E-50B961B61BC3";
shapes = (
{
closed = 1;
nodes = (
(133,372,o),
(27,296,o),
(27,170,cs),
(27,97,o),
(60,37,o),
(108,-13,c),
(252,45,l),
(228,83,o),
(212,119,o),
(212,160,cs),
(212,210,o),
(236,245,o),
(287,245,cs),
(339,245,o),
(360,205,o),
(360,163,cs),
(360,123,o),
(343,92,o),
(329,70,c),
(392,0,l),
(792,0,l),
(790,128,l),
(521,128,l),
(518,76,l),
(531,105,o),
(538,143,o),
(538,173,cs),
(538,268,o),
(464,372,o),
(285,372,cs)
);
},
{
closed = 1;
nodes = (
(728,581,o),
(626,456,o),
(626,297,cs),
(626,223,o),
(643,166,o),
(690,104,c),
(751,0,l),
(853,0,l),
(901,65,l),
(841,157,o),
(816,218,o),
(816,298,cs),
(816,409,o),
(878,452,o),
(935,452,cs),
(966,452,o),
(984,440,o),
(996,427,cs),
(1015,406,o),
(1019,370,o),
(1019,320,cs),
(1019,230,l),
(1206,230,l),
(1206,251,l),
(1142,498,l),
(1075,556,o),
(1011,581,o),
(921,581,cs)
);
},
{
closed = 1;
nodes = (
(1235,581,o),
(1146,525,o),
(1100,480,c),
(1101,241,l),
(1206,234,l),
(1206,237,ls),
(1206,336,o),
(1225,388,o),
(1260,417,cs),
(1286,439,o),
(1320,451,o),
(1367,451,cs),
(1465,451,o),
(1536,407,o),
(1560,324,c),
(1563,291,l),
(1565,275,o),
(1566,259,o),
(1566,241,cs),
(1566,135,o),
(1533,112,o),
(1493,112,cs),
(1453,112,o),
(1437,136,o),
(1437,167,cs),
(1437,191,o),
(1446,206,o),
(1462,216,cs),
(1482,229,o),
(1508,232,o),
(1569,232,cs),
(1603,232,l),
(1603,360,l),
(1573,360,ls),
(1455,360,o),
(1397,352,o),
(1343,322,cs),
(1292,294,o),
(1255,243,o),
(1255,168,cs),
(1255,75,o),
(1309,-12,o),
(1484,-12,cs),
(1651,-12,o),
(1743,65,o),
(1743,244,cs),
(1743,449,o),
(1604,581,o),
(1371,581,cs)
);
},
{
closed = 1;
nodes = (
(1783,448,l),
(1785,442,o),
(1788,427,o),
(1788,418,cs),
(1788,398,o),
(1782,384,o),
(1770,375,cs),
(1755,364,o),
(1731,360,o),
(1693,360,cs),
(1594,360,l),
(1594,232,l),
(1709,232,ls),
(1796,232,o),
(1855,236,o),
(1907,269,cs),
(1948,295,o),
(1973,339,o),
(1973,402,cs),
(1973,432,o),
(1965,461,o),
(1959,479,c)
);
}
);
width = 1992;
}
);
unicode = 3447;
},
{
glyphname = uni0D78;
layers = (
{
background = {
shapes = (
{
closed = 1;
nodes = (
(1483,581,o),
(1415,561,o),
(1367,516,cs),
(1322,473,o),
(1302,413,o),
(1302,305,cs),
(1302,270,ls),
(1302,206,o),
(1298,168,o),
(1280,144,cs),
(1267,127,o),
(1248,117,o),
(1219,117,cs),
(1194,117,o),
(1177,124,o),
(1164,137,cs),
(1142,159,o),
(1137,191,o),
(1137,271,cs),
(1137,303,ls),
(1137,416,o),
(1117,472,o),
(1073,515,cs),
(1028,559,o),
(959,581,o),
(866,581,cs),
(772,581,o),
(704,561,o),
(656,516,cs),
(611,473,o),
(590,413,o),
(590,305,cs),
(590,276,ls),
(590,201,o),
(585,162,o),
(560,138,cs),
(547,126,o),
(530,117,o),
(502,117,cs),
(474,117,o),
(456,124,o),
(440,140,cs),
(419,161,o),
(415,194,o),
(415,256,cs),
(415,569,l),
(228,569,l),
(228,241,ls),
(228,189,o),
(221,161,o),
(203,141,cs),
(191,127,o),
(173,117,o),
(140,117,cs),
(105,117,o),
(76,129,o),
(52,142,c),
(8,25,l),
(54,0,o),
(96,-12,o),
(150,-12,cs),
(232,-12,o),
(271,6,o),
(330,63,c),
(314,68,l),
(370,12,o),
(431,-12,o),
(524,-12,cs),
(595,-12,o),
(655,6,o),
(701,43,cs),
(758,89,o),
(781,158,o),
(781,266,cs),
(781,295,ls),
(781,363,o),
(785,401,o),
(803,425,cs),
(816,442,o),
(835,452,o),
(864,452,cs),
(889,452,o),
(906,445,o),
(919,432,cs),
(941,410,o),
(946,378,o),
(946,296,cs),
(946,265,ls),
(946,153,o),
(966,96,o),
(1010,53,cs),
(1055,9,o),
(1118,-12,o),
(1217,-12,cs),
(1314,-12,o),
(1381,8,o),
(1428,54,cs),
(1472,97,o),
(1492,157,o),
(1492,265,cs),
(1492,295,ls),
(1492,363,o),
(1496,401,o),
(1514,425,cs),
(1527,442,o),
(1546,452,o),
(1575,452,cs),
(1600,452,o),
(1617,445,o),
(1630,432,cs),
(1652,410,o),
(1657,378,o),
(1657,296,cs),
(1657,230,l),
(1844,230,l),
(1844,276,ls),
(1844,340,o),
(1854,385,o),
(1870,409,cs),
(1886,434,o),
(1906,448,o),
(1936,448,cs),
(1969,448,o),
(1981,421,o),
(1981,387,cs),
(1981,289,o),
(1919,204,o),
(1838,122,c),
(1838,0,l),
(2406,0,l),
(2406,245,ls),
(2406,390,o),
(2370,454,o),
(2302,507,cs),
(2236,558,o),
(2140,581,o),
(2017,581,cs),
(1905,581,o),
(1814,553,o),
(1747,493,c),
(1781,488,l),
(1726,549,o),
(1665,581,o),
(1567,581,cs)
);
},
{
closed = 1;
nodes = (
(2166,412,o),
(2150,443,o),
(2122,470,c),
(2120,459,l),
(2192,427,o),
(2220,371,o),
(2220,240,cs),
(2220,127,l),
(2116,127,ls),
(2082,127,o),
(2052,127,o),
(2023,122,c),
(2041,120,l),
(2115,194,o),
(2166,271,o),
(2166,363,cs)
);
}
);
};
layerId = "2AD682F6-F6C7-4738-913E-50B961B61BC3";
shapes = (
{
closed = 1;
nodes = (
(1483,581,o),
(1415,561,o),
(1367,516,cs),
(1322,473,o),
(1302,413,o),
(1302,305,cs),
(1302,270,ls),
(1302,206,o),
(1298,168,o),
(1280,144,cs),
(1267,127,o),
(1248,117,o),
(1219,117,cs),
(1194,117,o),
(1177,124,o),
(1164,137,cs),
(1142,159,o),
(1137,191,o),
(1137,271,cs),
(1137,303,ls),
(1137,416,o),
(1117,472,o),
(1073,515,cs),
(1028,559,o),
(959,581,o),
(866,581,cs),
(772,581,o),
(704,561,o),
(656,516,cs),
(611,473,o),
(590,413,o),
(590,305,cs),
(590,276,ls),
(590,201,o),
(585,162,o),
(560,138,cs),
(547,126,o),
(530,117,o),
(502,117,cs),
(474,117,o),
(456,124,o),
(440,140,cs),
(419,161,o),
(415,194,o),
(415,256,cs),
(415,569,l),
(228,569,l),
(228,241,ls),
(228,189,o),
(221,161,o),
(203,141,cs),
(191,127,o),
(173,117,o),
(140,117,cs),
(105,117,o),
(76,129,o),
(52,142,c),
(8,25,l),
(54,0,o),
(96,-12,o),
(150,-12,cs),
(232,-12,o),
(271,6,o),
(330,63,c),
(314,68,l),
(370,12,o),
(431,-12,o),
(524,-12,cs),
(595,-12,o),
(655,6,o),
(701,43,cs),
(758,89,o),
(781,158,o),
(781,266,cs),
(781,295,ls),
(781,363,o),
(785,401,o),
(803,425,cs),
(816,442,o),
(835,452,o),
(864,452,cs),
(889,452,o),
(906,445,o),
(919,432,cs),
(941,410,o),
(946,378,o),
(946,296,cs),
(946,265,ls),
(946,153,o),
(966,96,o),
(1010,53,cs),
(1055,9,o),
(1118,-12,o),
(1217,-12,cs),
(1314,-12,o),
(1381,8,o),
(1428,54,cs),
(1472,97,o),
(1492,157,o),
(1492,265,cs),
(1492,295,ls),
(1492,363,o),
(1496,401,o),
(1514,425,cs),
(1527,442,o),
(1546,452,o),
(1575,452,cs),
(1600,452,o),
(1617,445,o),
(1630,432,cs),
(1652,410,o),
(1657,378,o),
(1657,296,cs),
(1657,230,l),
(1844,230,l),
(1844,276,ls),
(1844,340,o),
(1854,385,o),
(1870,409,cs),
(1886,434,o),
(1906,448,o),
(1936,448,cs),
(1969,448,o),
(1981,421,o),
(1981,387,cs),
(1981,289,o),
(1919,204,o),
(1838,122,c),
(1838,0,l),
(2406,0,l),
(2406,245,ls),
(2406,390,o),
(2370,454,o),
(2302,507,cs),
(2236,558,o),
(2140,581,o),
(2017,581,cs),
(1905,581,o),
(1814,553,o),
(1747,493,c),
(1781,488,l),
(1726,549,o),
(1665,581,o),
(1567,581,cs)
);
},
{
closed = 1;
nodes = (
(2166,412,o),
(2150,443,o),
(2122,470,c),
(2120,459,l),
(2192,427,o),
(2220,371,o),
(2220,240,cs),
(2220,127,l),
(2116,127,ls),
(2082,127,o),
(2052,127,o),
(2023,122,c),
(2041,120,l),
(2115,194,o),
(2166,271,o),
(2166,363,cs)
);
}
);
width = 2457;
}
);
unicode = 3448;
},
